<?xml version="1.0" encoding="utf-8"?>
<!-- Generator: Adobe Illustrator 19.0.0, SVG Export Plug-In . SVG Version: 6.00 Build 0)  -->
<svg version="1.1" id="Layer_1" fill="#2377BF" xmlns="http://www.w3.org/2000/svg" xmlns:xlink="http://www.w3.org/1999/xlink" x="0px" y="0px"
	 viewBox="0 0 17 23" style="enable-background:new 0 0 17 23;" xml:space="preserve">
<g id="XMLID_829_">
	<path id="XMLID_831_" class="st0" d="M14.5,2H2.7C1.3,2,0.2,3.1,0.2,4.5H17C17,3.1,15.9,2,14.5,2z"/>
	<path id="XMLID_832_" class="st0" d="M10.5,0H6.7C6.3,0,5.9,0.6,5.9,1.2h5.4C11.3,0.6,10.9,0,10.5,0z"/>
	<path id="XMLID_833_" class="st0" d="M1.6,5.4v14.9v0.1V21h0c0.2,1.2,1.2,2,2.5,2h9c1.2,0,2.2-0.9,2.5-2h0v-0.5v-0.1V5.4H1.6z
		 M5.7,20.8c0,0.3-0.5,0.6-1,0.6s-1-0.3-1-0.6V8.3c0-0.3,0.5-0.6,1-0.6s1,0.3,1,0.6V20.8z M9.6,20.8c0,0.3-0.5,0.6-1,0.6
		s-1-0.3-1-0.6V8.3c0-0.3,0.5-0.6,1-0.6s1,0.3,1,0.6V20.8z M13.5,20.8c0,0.3-0.5,0.6-1,0.6s-1-0.3-1-0.6V8.3c0-0.3,0.5-0.6,1-0.6
		s1,0.3,1,0.6V20.8z"/>
</g>
</svg>
