<?xml version="1.0" encoding="utf-8"?>
<!-- Generator: Adobe Illustrator 19.0.0, SVG Export Plug-In . SVG Version: 6.00 Build 0)  -->
<svg version="1.1" id="Layer_1" xmlns="http://www.w3.org/2000/svg" xmlns:xlink="http://www.w3.org/1999/xlink" x="0px" y="0px"
	 viewBox="0 0 24 21" style="enable-background:new 0 0 24 21;" xml:space="preserve">
<style type="text/css">
	.st0{fill:#575B5D;}
</style>
<g id="XMLID_779_">
	<g id="XMLID_780_">
		<g id="XMLID_788_">
			<g id="XMLID_46_">
				<ellipse id="XMLID_51_" class="st0" cx="417.5" cy="373.2" rx="5.5" ry="6"/>
				<path id="XMLID_50_" class="st0" d="M413.9,377.6c0.2,0.5,0.4,1,0.4,1.6c0,1.7-1.2,3.1-2.7,3.5v5.9h5.9v-11H413.9z"/>
				<path id="XMLID_49_" class="st0" d="M421.1,377.6c-0.2,0.5-0.4,1-0.4,1.6c0,1.7,1.2,3.1,2.7,3.5v5.9h-5.9v-11H421.1z"/>
				<path id="XMLID_48_" class="st0" d="M411.7,382.7c0,0-6.3,2-6.5,4.7v1.3h6.5V382.7z"/>
				<path id="XMLID_47_" class="st0" d="M423.3,382.7c0,0,6.3,2,6.5,4.7v1.3h-6.5V382.7z"/>
			</g>
		</g>
	</g>
	<rect id="XMLID_794_" x="416" y="375" class="st0" width="3" height="13"/>
</g>
<g id="XMLID_1_">
	<g id="XMLID_3_">
		<g id="XMLID_4_">
			<g id="XMLID_62_">
				<ellipse id="XMLID_67_" class="st0" cx="12" cy="5.8" rx="5.3" ry="5.8"/>
				<path id="XMLID_66_" class="st0" d="M8.5,10.2c0.2,0.5,0.4,1,0.4,1.6c0,1.7-1.1,3.1-2.6,3.4V21H12V10.2H8.5z"/>
				<path id="XMLID_65_" class="st0" d="M15.5,10.2c-0.2,0.5-0.4,1-0.4,1.6c0,1.7,1.1,3.1,2.6,3.4V21H12V10.2H15.5z"/>
				<path id="XMLID_64_" class="st0" d="M6.4,15.1c0,0-6.1,2-6.4,4.6V21h6.4V15.1z"/>
				<path id="XMLID_63_" class="st0" d="M17.6,15.1c0,0,6.1,2,6.4,4.6V21h-6.4V15.1z"/>
			</g>
		</g>
	</g>
	<rect id="XMLID_2_" x="11" y="7" class="st0" width="2" height="13"/>
</g>
</svg>
