<?xml version="1.0" encoding="utf-8"?>
<!-- Generator: Adobe Illustrator 19.0.0, SVG Export Plug-In . SVG Version: 6.00 Build 0)  -->
<svg version="1.1" id="Layer_1" xmlns="http://www.w3.org/2000/svg" xmlns:xlink="http://www.w3.org/1999/xlink" x="0px" y="0px"
	 viewBox="0 0 24 21" style="enable-background:new 0 0 24 21;" xml:space="preserve">
<style type="text/css">
	.st0{fill:#575B5D;}
</style>
<g id="XMLID_765_">
	<path id="XMLID_766_" class="st0" d="M22,7.6H10.1v0c0.3,0.6,0.4,1.4,0.5,2.1c0,0,0,0,0,0.1c0,0.8-0.2,1.5-0.5,2.2v0h2.5l1.2-1.5
		l1.8,1.5l3.4-1.4l1.6,1.4L24,9.8L22,7.6z"/>
	<path id="XMLID_767_" class="st0" d="M10.8,9.7c0-0.8-0.2-1.5-0.5-2.1C9.5,5.7,7.6,4.4,5.4,4.4C2.4,4.4,0,6.8,0,9.8
		s2.4,5.4,5.4,5.4c2.2,0,4.1-1.3,4.9-3.2C10.6,11.3,10.8,10.6,10.8,9.7C10.8,9.8,10.8,9.8,10.8,9.7z M3.8,11.5
		c-0.9,0-1.7-0.8-1.7-1.7s0.8-1.7,1.7-1.7s1.7,0.8,1.7,1.7S4.7,11.5,3.8,11.5z"/>
</g>
</svg>
