<?xml version="1.0" standalone="no"?>
<!DOCTYPE svg PUBLIC "-//W3C//DTD SVG 1.1//EN" "http://www.w3.org/Graphics/SVG/1.1/DTD/svg11.dtd" >
<svg xmlns="http://www.w3.org/2000/svg" xmlns:xlink="http://www.w3.org/1999/xlink" version="1.1">
<metadata>
Created by FontForge 20141024 at Thu May 28 15:52:23 2015
 By System Administrator
BPG-InfoTech Rioni
</metadata>
<defs>
<font id="BPGRioniArial" horiz-adv-x="600" >
  <font-face 
    font-family="BPG Rioni Arial"
    font-weight="400"
    font-stretch="normal"
    units-per-em="800"
    panose-1="2 11 6 4 2 2 2 2 2 4"
    ascent="640"
    descent="-160"
    x-height="415"
    cap-height="572"
    bbox="-532 -260 1600 804"
    underline-thickness="59"
    underline-position="-56"
    unicode-range="U+0020-FFFC"
  />
<missing-glyph 
d="M100 0h400v500h-400v-500zM113 12v475h374v-475h-374z" />
    <glyph glyph-name="afii62881" unicode="&#x651;&#x64b;" horiz-adv-x="169" 
d="M161 734c-56 -23 -95 -39 -117 -48c-11 -11 -16 -22 -16 -33c52 21 90 36 113 47c13 11 20 22 20 34zM161 676c-56 -24 -95 -40 -117 -49c-11 -11 -16 -22 -16 -33c52 21 90 37 113 46c12 11 20 11 20 36zM169 577c0 9 -2 24 -5 33l-8 -2c0 -12 -2 -23 -7 -34
c-5 -13 -13 -19 -23 -19c-7 0 -12 4 -16 12c-1 3 -2 11 -4 23l-9 -2c-4 -20 -8 -33 -12 -40c-6 -14 -15 -21 -26 -21c-9 0 -15 10 -15 22c0 7 2 18 2 22l-8 -3c-4 -9 -7 -16 -8 -21c-1 -8 -2 -15 -2 -22c0 -24 11 -41 32 -41c9 0 18 4 26 13c5 5 10 11 15 20
c9 -5 18 -9 27 -9c13 0 24 7 31 21c7 13 10 29 10 48z" />
    <glyph glyph-name="afii62882" unicode="&#x651;&#x64c;" horiz-adv-x="180" arabic-form="isolated" 
d="M179 708c1 32 -9 38 -24 39c-13 -1 -26 -8 -38 -23c-9 -11 -14 -23 -14 -35c0 -7 2 -14 6 -21c3 -3 8 -8 17 -16c-17 -12 -35 -21 -52 -26c4 17 6 24 6 33c0 23 -11 42 -28 42c-12 0 -21 -7 -26 -21c-3 -8 -6 -21 -7 -39l10 17c5 7 10 10 15 10c11 0 16 -13 16 -24
c0 -8 -3 -17 -8 -26l-15 -23c23 0 44 5 63 14c15 7 28 18 40 33l33 -27c3 15 3 25 3 34c0 7 -4 11 -12 19c11 17 14 29 15 40zM169 577c0 9 -2 24 -5 33l-8 -2c0 -12 -2 -23 -7 -34c-5 -13 -13 -19 -23 -19c-7 0 -12 4 -16 12c-1 3 -3 11 -4 23l-9 -2c-4 -20 -8 -33 -12 -40
c-6 -14 -15 -21 -26 -21c-9 0 -15 10 -15 22c0 7 2 18 2 22l-8 -3c-7 -17 -10 -30 -10 -43c0 -25 11 -41 32 -41c9 0 18 4 26 13c5 5 10 11 15 20c11 -7 18 -9 27 -9c13 0 24 7 31 21c7 13 10 29 10 48zM153 698c0 -5 -2 -10 -5 -15c-8 7 -13 11 -14 13c-5 5 -7 9 -7 14
c0 8 2 12 13 12c5 0 13 -12 13 -24z" />
    <glyph glyph-name="afii62883" unicode="&#x651;&#x64d;" horiz-adv-x="169" arabic-form="isolated" 
d="M169 691c0 8 -2 21 -5 33l-8 -3c0 -12 -2 -23 -7 -34c-5 -13 -13 -19 -23 -19c-7 0 -12 4 -16 13c-1 2 -2 10 -4 23l-9 -3c-4 -19 -8 -32 -12 -39c-6 -14 -15 -21 -26 -21c-9 0 -15 9 -15 21c0 8 2 18 2 22l-8 -3c-4 -9 -7 -16 -8 -21c-1 -7 -2 -14 -2 -21
c0 -25 11 -41 32 -41c9 0 18 4 26 12c5 5 10 12 15 21c9 -7 18 -10 27 -10c13 0 24 7 31 21c7 12 10 28 10 49zM164 613c-57 -22 -96 -38 -118 -47c-11 -11 -17 -22 -17 -34c53 21 91 37 114 47c14 11 21 23 21 34zM164 565c-57 -23 -96 -39 -118 -49
c-11 -11 -17 -21 -17 -32c53 21 91 37 114 46c14 12 21 24 21 35z" />
    <glyph glyph-name="afii62884" unicode="&#x651;&#x64e;" horiz-adv-x="169" arabic-form="isolated" 
d="M164 672c-57 -23 -96 -39 -117 -48c-12 -11 -18 -22 -18 -33c53 21 91 36 114 45c14 12 21 24 21 36zM169 577c0 9 -2 24 -5 33l-8 -2c0 -12 -2 -23 -7 -34c-5 -13 -13 -19 -23 -19c-7 0 -12 4 -16 12c-1 3 -3 11 -4 23l-9 -2c-4 -20 -8 -33 -12 -40
c-6 -14 -15 -21 -26 -21c-9 0 -15 10 -15 22c0 7 2 18 2 22l-8 -3c-4 -9 -7 -16 -8 -21c-1 -8 -2 -15 -2 -22c0 -25 11 -41 32 -41c9 0 18 4 26 13c5 5 10 11 15 20c9 -5 18 -9 27 -9c13 0 24 7 31 21c7 13 10 29 10 48z" />
    <glyph glyph-name="afii62885" unicode="&#x651;&#x64f;" horiz-adv-x="169" arabic-form="isolated" 
d="M169 620c0 13 -1 22 -4 27c-1 3 -6 7 -15 10c5 9 8 15 9 17c3 6 5 12 5 17c0 15 -15 27 -31 27c-23 0 -45 -29 -45 -50c0 -6 2 -12 7 -18c3 -4 8 -9 13 -14c-15 -9 -29 -17 -41 -23c-8 -3 -22 -9 -42 -18c8 -5 15 -7 22 -7c14 0 29 5 45 15c6 3 17 12 32 25
c9 -3 14 -5 16 -6c11 -1 20 -2 29 -2zM169 578c0 8 -2 24 -5 33l-8 -2c0 -12 -2 -23 -7 -34c-5 -13 -13 -19 -23 -19c-7 0 -12 4 -16 12c-1 3 -2 10 -4 23l-9 -3c-4 -19 -8 -32 -12 -39c-6 -14 -15 -21 -26 -21c-9 0 -15 10 -15 22c0 7 2 18 2 22l-8 -3c-4 -9 -7 -16 -8 -21
c-1 -8 -2 -15 -2 -22c0 -25 11 -42 32 -42c9 0 18 4 26 13c5 5 10 12 15 21c9 -7 18 -10 27 -10c13 0 24 7 31 21c7 13 10 29 10 49zM138 678c0 -3 -2 -8 -5 -11c-17 9 -21 15 -21 26c0 5 2 9 5 9c12 0 21 -12 21 -24z" />
    <glyph glyph-name="afii62886" unicode="&#x651;&#x650;" horiz-adv-x="169" arabic-form="isolated" 
d="M169 649c0 9 -2 23 -5 34l-8 -3c0 -11 -2 -22 -7 -33c-5 -13 -13 -19 -23 -19c-7 0 -12 4 -16 11c-1 3 -3 11 -4 24l-9 -3c-4 -19 -8 -32 -12 -39c-6 -14 -15 -21 -26 -21c-9 0 -15 10 -15 21c0 7 2 18 2 23l-8 -4c-4 -9 -7 -15 -8 -20c-1 -8 -2 -15 -2 -22
c0 -25 11 -41 32 -41c9 0 18 4 26 13c5 5 10 11 15 20c11 -7 18 -10 27 -10c13 0 24 7 31 21c7 13 10 29 10 48zM164 565c-57 -23 -96 -40 -117 -49c-12 -11 -18 -21 -18 -32c53 21 91 36 114 45c14 12 21 24 21 36z" />
    <glyph glyph-name="afii64184" unicode="&#xfedf;&#xfee0;&#xfbab;" horiz-adv-x="493" arabic-form="isolated" 
d="M299 532c-2 15 -5 29 -9 40c-2 3 -7 11 -14 26c-5 9 -13 14 -24 14c-9 0 -15 -5 -17 -16c14 -11 23 -19 26 -23c13 -14 23 -29 30 -44zM369 514c0 5 -1 10 -2 15l-10 -2c-1 -10 -4 -19 -8 -26c-5 -11 -10 -16 -17 -16c-11 0 -18 3 -21 8c-1 2 -3 8 -6 18l-9 -2
c-4 -21 -18 -49 -29 -49c-17 0 -24 8 -24 32l-12 -4c-1 -5 -3 -20 -3 -29c0 -24 11 -39 32 -39c9 0 17 4 25 12c7 7 12 14 15 21c12 -7 21 -9 32 -9c21 0 37 31 37 70zM483 185c0 13 -4 38 -11 75c-4 21 -11 53 -20 96c-8 36 -13 57 -14 64c-7 -9 -13 -19 -18 -29
c-7 -11 -10 -21 -10 -30c0 -3 1 -10 3 -21c0 -3 1 -10 3 -21l23 -107c-3 -20 -12 -32 -27 -32c-17 0 -30 6 -40 17c-9 10 -15 25 -19 44l-14 67c-12 60 -17 84 -22 112c-8 -11 -15 -20 -20 -29c-6 -11 -9 -21 -9 -30c0 -4 1 -11 3 -21c1 -5 2 -12 4 -21l23 -107
c-20 -31 -29 -32 -53 -32c-29 0 -48 11 -53 40c-5 27 -11 57 -17 89c-4 21 -8 43 -11 64c-8 -10 -15 -19 -20 -28c-5 -11 -8 -20 -8 -29s4 -25 5 -32c-43 -21 -79 -45 -109 -72c-29 -27 -44 -52 -44 -74c0 -15 38 -23 95 -23c28 0 60 22 81 53c11 -32 47 -53 82 -53
c17 0 31 3 43 9c15 7 27 20 38 38c11 -15 25 -27 41 -34c20 -9 46 -13 77 -13l4 9c5 10 9 21 12 34c1 9 2 18 2 27zM175 196c-13 -16 -30 -25 -43 -25c-27 0 -38 3 -50 8c9 14 20 26 34 35c11 8 29 16 52 25z" />
    <glyph glyph-name="afii62834" unicode="&#xfedf;&#xfe82;" horiz-adv-x="436" arabic-form="isolated" 
d="M405 527c-11 5 -34 16 -46 23c-11 7 -18 16 -19 27l-8 3c-12 -24 -18 -51 -18 -86l22 -12c0 -49 -3 -89 -8 -120c-7 -36 -19 -72 -36 -107c-12 25 -24 47 -36 66l-40 64c-19 31 -38 59 -58 85c-22 30 -42 54 -60 72c-20 20 -35 30 -46 30c-8 0 -13 -7 -16 -20
c-3 -9 -4 -21 -4 -38c0 -23 6 -34 25 -59c11 -15 23 -27 34 -37c11 -11 20 -17 26 -17c3 0 7 1 11 3c8 4 14 6 17 6c5 0 11 -5 19 -14c7 -7 14 -16 23 -27c22 -33 37 -58 46 -73c8 -14 21 -38 40 -73c-31 -38 -68 -69 -112 -92c-5 -17 -9 -35 -10 -55v-13c60 0 125 8 180 21
c3 17 4 28 4 48c0 17 -3 33 -9 49c-4 11 -11 25 -20 44c21 35 36 70 45 107c9 32 13 66 13 101v35l23 -11zM304 148c0 -10 -11 -16 -33 -19c-13 -2 -35 -3 -66 -3c31 19 65 49 81 70c15 -29 18 -37 18 -48zM184 646l-5 6c-14 -6 -28 -9 -41 -9c-9 0 -19 2 -32 6
c-26 8 -40 12 -43 12c-10 0 -18 -3 -24 -8c-3 -2 -7 -8 -14 -17l4 -5c9 4 13 5 20 5c2 0 16 -4 42 -13c11 -3 23 -5 36 -5s24 3 35 9c7 5 15 11 22 19z" />
    <glyph glyph-name="afii62835" unicode="&#xfee0;&#xfe82;" horiz-adv-x="481" arabic-form="final" 
d="M319 319c0 41 -19 83 -56 126c-30 35 -67 66 -112 92c-40 23 -69 35 -88 35c-11 0 -16 -8 -16 -24c0 -23 8 -44 23 -64c11 -16 27 -29 46 -40c15 -10 26 -15 32 -15c11 0 18 21 26 21c19 0 44 -19 75 -57c29 -35 50 -69 65 -101c4 11 5 16 5 27zM481 115v67h-24
c-7 0 -13 5 -19 14c-9 15 -16 38 -21 71c-3 26 -8 60 -13 102c-4 34 -8 66 -12 96c-6 44 -13 85 -20 122c-4 -9 -9 -20 -14 -32l-13 -33c12 -47 19 -89 19 -140c0 -53 -17 -98 -52 -137c-29 -33 -71 -61 -126 -85c-35 -15 -87 -33 -157 -54v-12c86 0 147 4 183 13
c43 10 75 30 98 60c20 26 43 74 68 143c0 -3 2 -22 2 -30c0 -58 8 -101 24 -130c13 -23 31 -35 53 -35h24zM188 646l-6 6c-13 -6 -27 -9 -41 -9c-8 0 -19 2 -32 6c-26 8 -40 12 -42 12c-10 0 -18 -3 -24 -8c-3 -2 -8 -8 -15 -17l5 -5c8 4 14 5 19 5c2 0 16 -4 41 -13
c12 -3 25 -5 38 -5c12 0 23 3 34 9c8 5 16 11 23 19z" />
    <glyph glyph-name="afii62836" unicode="&#xfedf;&#xfe84;" horiz-adv-x="436" arabic-form="isolated" 
d="M405 527c-11 5 -34 16 -46 23c-11 7 -18 16 -19 27l-8 3c-12 -24 -18 -51 -18 -86l22 -12c0 -49 -3 -89 -8 -120c-7 -36 -19 -72 -36 -107c-12 25 -24 47 -36 66l-40 64c-19 31 -38 59 -58 85c-22 30 -42 54 -60 72c-20 20 -35 30 -46 30c-8 0 -13 -7 -16 -20
c-3 -9 -4 -21 -4 -38c0 -23 6 -34 25 -59c11 -15 23 -27 34 -37c11 -11 20 -17 26 -17c3 0 7 1 11 3c8 4 14 6 17 6c5 0 11 -5 19 -14c7 -7 14 -16 23 -27c22 -33 37 -58 46 -73c8 -14 21 -38 40 -73c-31 -38 -68 -69 -112 -92c-5 -17 -9 -35 -10 -55v-13c60 0 125 8 180 21
c3 17 4 28 4 48c0 17 -3 33 -9 49c-4 11 -11 25 -20 44c21 35 36 70 45 107c9 32 13 66 13 101v35l23 -11zM304 148c0 -10 -11 -16 -33 -19c-13 -2 -35 -3 -66 -3c31 19 65 49 81 70c15 -29 18 -37 18 -48zM124 640c-15 -5 -16 -6 -27 -6c-9 0 -19 3 -32 10
c-12 7 -18 12 -18 16c0 7 14 12 26 12c9 0 18 -4 26 -11c5 9 9 16 9 23c0 12 -8 20 -19 20c-12 0 -26 -8 -41 -24c-13 -15 -20 -26 -20 -35c0 -5 3 -10 8 -15c4 -4 10 -8 18 -12c-26 -9 -39 -20 -39 -31l72 25c11 3 20 7 25 10c8 5 12 11 12 18z" />
    <glyph glyph-name="afii62837" unicode="&#xfee0;&#xfe84;" horiz-adv-x="481" arabic-form="final" 
d="M319 319c0 41 -19 83 -56 126c-30 35 -67 66 -112 92c-40 23 -69 35 -88 35c-11 0 -16 -8 -16 -24c0 -23 8 -44 23 -64c11 -16 27 -29 46 -40c15 -10 26 -15 32 -15c11 0 18 21 26 21c19 0 44 -19 75 -57c29 -35 50 -69 65 -101c4 11 5 16 5 27zM481 115v67h-24
c-7 0 -13 5 -19 14c-9 15 -16 38 -21 71c-3 26 -8 60 -13 102c-4 34 -8 66 -12 96c-6 44 -13 85 -20 122c-4 -9 -9 -20 -14 -32l-13 -33c12 -47 19 -89 19 -140c0 -53 -17 -98 -52 -137c-29 -33 -71 -61 -126 -85c-35 -15 -87 -33 -157 -54v-12c86 0 147 4 183 13
c43 10 75 30 98 60c20 26 43 74 68 143c0 -3 2 -22 2 -30c0 -58 8 -101 24 -130c13 -23 31 -35 53 -35h24zM132 640c-16 -5 -16 -6 -28 -6c-9 0 -19 3 -31 10s-18 12 -18 16c0 7 13 12 25 12c9 0 18 -4 27 -11c4 9 9 16 9 23c0 12 -9 20 -20 20c-12 0 -26 -8 -41 -24
c-13 -15 -20 -26 -20 -35c0 -5 3 -10 8 -15c4 -4 10 -8 18 -12c-26 -9 -39 -20 -39 -31l73 25c11 3 19 7 24 10c9 5 13 11 13 18z" />
    <glyph glyph-name="afii62838" unicode="&#xfedf;&#xfe88;" horiz-adv-x="436" arabic-form="isolated" 
d="M405 527c-11 5 -34 16 -46 23c-11 7 -18 16 -19 27l-8 3c-12 -24 -18 -51 -18 -86l22 -12c0 -49 -3 -89 -8 -120c-7 -36 -19 -72 -36 -107c-12 25 -24 47 -36 66l-40 64c-19 31 -38 59 -58 85c-22 30 -42 54 -60 72c-20 20 -35 30 -46 30c-8 0 -13 -7 -16 -20
c-3 -9 -4 -21 -4 -38c0 -23 6 -34 25 -59c11 -15 23 -27 34 -37c11 -11 20 -17 26 -17c3 0 7 1 11 3c8 4 14 6 17 6c5 0 11 -5 19 -14c7 -7 14 -16 23 -27c22 -33 37 -58 46 -73c8 -14 21 -38 40 -73c-31 -38 -68 -69 -112 -92c-5 -17 -9 -35 -10 -55v-13c60 0 125 8 180 21
c3 17 4 28 4 48c0 17 -3 33 -9 49c-4 11 -11 25 -20 44c21 35 36 70 45 107c9 32 13 66 13 101v35l23 -11zM304 148c0 -10 -11 -16 -33 -19c-13 -2 -35 -3 -66 -3c31 19 65 49 81 70c15 -29 18 -37 18 -48zM244 -36c-16 -5 -17 -5 -28 -5c-9 0 -19 4 -32 11
c-12 7 -18 12 -18 15c0 7 14 11 26 11c9 0 18 -3 26 -10c5 9 9 16 9 24c0 12 -8 19 -19 19c-12 0 -26 -8 -41 -25c-13 -14 -20 -25 -20 -33c0 -5 3 -11 8 -16c4 -4 10 -8 18 -12c-26 -9 -39 -20 -39 -32l72 25c11 4 20 8 25 12c9 5 13 10 13 16z" />
    <glyph glyph-name="afii62839" unicode="&#xfee0;&#xfe88;" horiz-adv-x="481" arabic-form="final" 
d="M319 319c0 41 -19 83 -56 126c-30 35 -67 66 -112 92c-40 23 -69 35 -88 35c-11 0 -16 -8 -16 -24c0 -23 8 -44 23 -64c11 -16 27 -29 46 -40c15 -10 26 -15 32 -15c11 0 18 21 26 21c19 0 44 -19 75 -57c29 -35 50 -69 65 -101c4 11 5 16 5 27zM481 115v67h-24
c-7 0 -13 5 -19 14c-9 15 -16 38 -21 71c-3 26 -8 60 -13 102c-4 34 -8 66 -12 96c-6 44 -13 85 -20 122c-4 -9 -9 -20 -14 -32l-13 -33c12 -47 19 -89 19 -140c0 -53 -17 -98 -52 -137c-29 -33 -71 -61 -126 -85c-35 -15 -87 -33 -157 -54v-12c86 0 147 4 183 13
c43 10 75 30 98 60c20 26 43 74 68 143c0 -3 2 -22 2 -30c0 -58 8 -101 24 -130c13 -23 31 -35 53 -35h24zM185 -36c-16 -5 -17 -5 -28 -5c-9 0 -19 4 -31 11s-18 12 -18 15c0 7 13 11 25 11c10 0 19 -3 26 -10c7 9 9 16 9 24c0 12 -8 19 -19 19s-25 -8 -41 -25
c-13 -14 -20 -25 -20 -33c0 -5 3 -11 8 -16c4 -4 10 -8 19 -12c-26 -9 -39 -20 -39 -32l72 25c11 4 19 8 24 12c9 5 13 10 13 16z" />
    <glyph glyph-name="afii62840" unicode="&#xfedf;&#xfe8e;" horiz-adv-x="436" arabic-form="isolated" 
d="M405 527c-11 5 -34 16 -46 23c-11 7 -18 16 -19 27l-8 3c-12 -24 -18 -51 -18 -86l22 -12c0 -49 -3 -89 -8 -120c-7 -36 -19 -72 -36 -107c-12 25 -24 47 -36 66l-40 64c-19 31 -38 59 -58 85c-22 30 -42 54 -60 72c-20 20 -35 30 -46 30c-8 0 -13 -7 -16 -20
c-3 -9 -4 -21 -4 -38c0 -23 6 -34 25 -59c11 -15 23 -27 34 -37c11 -11 20 -17 26 -17c3 0 7 1 11 3c8 4 14 6 17 6c5 0 11 -5 19 -14c7 -7 14 -16 23 -27c22 -33 37 -58 46 -73c8 -14 21 -38 40 -73c-31 -38 -68 -69 -112 -92c-5 -17 -9 -35 -10 -55v-13c60 0 125 8 180 21
c3 17 4 28 4 48c0 17 -3 33 -9 49c-4 11 -11 25 -20 44c21 35 36 70 45 107c9 32 13 66 13 101v35l23 -11zM304 148c0 -10 -11 -16 -33 -19c-13 -2 -35 -3 -66 -3c31 19 65 49 81 70c15 -29 18 -37 18 -48z" />
    <glyph glyph-name="afii62841" unicode="&#xfee0;&#xfe8e;" horiz-adv-x="481" arabic-form="final" 
d="M319 319c0 41 -19 83 -56 126c-30 35 -67 66 -112 92c-40 23 -69 35 -88 35c-11 0 -16 -8 -16 -24c0 -23 8 -44 23 -64c11 -16 27 -29 46 -40c15 -10 26 -15 32 -15c11 0 18 21 26 21c19 0 44 -19 75 -57c29 -35 50 -69 65 -101c4 11 5 16 5 27zM481 115v67h-24
c-7 0 -13 5 -19 14c-9 15 -16 38 -21 71c-3 26 -8 60 -13 102c-4 34 -8 66 -12 96c-6 44 -13 85 -20 122c-4 -9 -9 -20 -14 -32l-13 -33c12 -47 19 -89 19 -140c0 -53 -17 -98 -52 -137c-29 -33 -71 -61 -126 -85c-35 -15 -87 -33 -157 -54v-12c86 0 147 4 183 13
c43 10 75 30 98 60c20 26 43 74 68 143c0 -3 2 -22 2 -30c0 -58 8 -101 24 -130c13 -23 31 -35 53 -35h24z" />
    <glyph glyph-name="glyph1672" unicode="&#xfedf;&#xfb51;" horiz-adv-x="436" 
d="M405 527c-11 5 -34 16 -46 23c-11 7 -18 16 -19 27l-8 3c-12 -24 -18 -51 -18 -86l22 -12c0 -49 -3 -89 -8 -120c-7 -36 -19 -72 -36 -107c-12 25 -24 47 -36 66l-40 64c-19 31 -38 59 -58 85c-22 30 -42 54 -60 72c-20 20 -35 30 -46 30c-8 0 -13 -7 -16 -20
c-3 -9 -4 -21 -4 -38c0 -23 6 -34 25 -59c11 -15 23 -27 34 -37c11 -11 20 -17 26 -17c3 0 7 1 11 3c8 4 14 6 17 6c5 0 11 -5 19 -14c7 -7 14 -16 23 -27c22 -33 37 -58 46 -73c8 -14 21 -38 40 -73c-31 -38 -68 -69 -112 -92c-5 -17 -9 -35 -10 -55v-13c60 0 125 8 180 21
c3 17 4 28 4 48c0 17 -3 33 -9 49c-4 11 -11 25 -20 44c21 35 36 70 45 107c9 32 13 66 13 101v35l23 -11zM304 148c0 -10 -11 -16 -33 -19c-13 -2 -35 -3 -66 -3c31 19 65 49 81 70c15 -29 18 -37 18 -48zM168 674c0 26 -11 39 -32 39c-30 0 -60 -21 -91 -62h-9
c-20 0 -30 -9 -30 -26c0 -14 6 -27 19 -39v7c-1 3 -1 5 -1 7c0 11 4 17 12 17h65c19 0 35 6 48 19c13 11 19 24 19 38zM133 674c0 -15 -12 -23 -35 -23h-32c23 25 41 38 55 38c8 0 12 -5 12 -15z" />
    <glyph glyph-name="glyph1673" unicode="&#xfee0;&#xfb51;" horiz-adv-x="481" 
d="M319 319c0 41 -19 83 -56 126c-30 35 -67 66 -112 92c-40 23 -69 35 -88 35c-11 0 -16 -8 -16 -24c0 -23 8 -44 23 -64c11 -16 27 -29 46 -40c15 -10 26 -15 32 -15c11 0 18 21 26 21c19 0 44 -19 75 -57c29 -35 50 -69 65 -101c4 11 5 16 5 27zM481 115v67h-24
c-7 0 -13 5 -19 14c-9 15 -16 38 -21 71c-3 26 -8 60 -13 102c-4 34 -8 66 -12 96c-6 44 -13 85 -20 122c-4 -9 -9 -20 -14 -32l-13 -33c12 -47 19 -89 19 -140c0 -53 -17 -98 -52 -137c-29 -33 -71 -61 -126 -85c-35 -15 -87 -33 -157 -54v-12c86 0 147 4 183 13
c43 10 75 30 98 60c20 26 43 74 68 143c0 -3 2 -22 2 -30c0 -58 8 -101 24 -130c13 -23 31 -35 53 -35h24zM168 674c0 26 -11 39 -32 39c-30 0 -60 -21 -91 -62h-9c-20 0 -30 -9 -30 -26c0 -14 6 -27 19 -39v7c-1 3 -1 5 -1 7c0 11 4 17 12 17h65c19 0 35 6 48 19
c13 11 19 24 19 38zM133 674c0 -15 -12 -23 -35 -23h-32c23 25 41 38 55 38c8 0 12 -5 12 -15z" />
    <glyph glyph-name="afii57506" unicode="&#x67e;" horiz-adv-x="571" arabic-form="isolated" 
d="M571 115v105c0 56 -9 99 -27 128c-3 4 -9 13 -20 27l-31 -64c35 -25 47 -61 47 -118v-11h-331c-45 0 -81 8 -109 23c-33 17 -49 40 -49 71c0 15 4 32 11 50c5 12 11 24 17 36l-11 8c-15 -25 -25 -43 -29 -53c-11 -25 -17 -49 -17 -73c0 -47 19 -82 56 -104
c30 -17 70 -25 120 -25h373zM397 22l-63 33l-29 -57l64 -33zM384 -84l-62 34l-30 -57l64 -33zM308 -14l-63 34l-30 -57l64 -33z" />
    <glyph glyph-name="afii62958" unicode="&#x67e;" horiz-adv-x="571" arabic-form="final" 
d="M571 115v105c0 56 -9 99 -27 128c-3 4 -9 13 -20 27l-31 -64c35 -25 47 -61 47 -118v-11h-331c-45 0 -81 8 -109 23c-33 17 -49 40 -49 71c0 15 4 32 11 50c5 12 11 24 17 36l-11 8c-15 -25 -25 -43 -29 -53c-11 -25 -17 -49 -17 -73c0 -47 19 -82 56 -104
c30 -17 70 -25 120 -25h373zM397 22l-63 33l-29 -57l64 -33zM384 -84l-62 34l-30 -57l64 -33zM308 -14l-63 34l-30 -57l64 -33z" />
    <glyph glyph-name="afii62956" unicode="&#x67e;" horiz-adv-x="196" arabic-form="initial" 
d="M189 22l-63 33l-30 -57l64 -33zM176 -84l-63 34l-29 -57l63 -33zM100 -14l-64 34l-30 -57l65 -33zM196 115v95c0 46 -4 79 -11 99c-5 13 -17 32 -36 55l-30 -63c19 -21 32 -38 37 -49c7 -16 11 -39 11 -70h-195v-67h224z" />
    <glyph glyph-name="afii52957" unicode="&#x67e;" horiz-adv-x="196" arabic-form="medial" 
d="M189 22l-63 33l-30 -57l64 -33zM176 -84l-63 34l-29 -57l63 -33zM100 -14l-64 34l-30 -57l65 -33zM196 115v95c0 46 -4 79 -11 99c-5 13 -17 32 -36 55l-30 -63c19 -21 32 -38 37 -49c7 -16 11 -39 11 -70h-195v-67h224z" />
    <glyph glyph-name="afii57507" unicode="&#x686;" horiz-adv-x="451" arabic-form="isolated" 
d="M189 272c-37 -24 -60 -40 -69 -47c-29 -24 -52 -49 -68 -76c-21 -35 -31 -74 -31 -118c0 -51 13 -93 39 -124c23 -28 56 -48 101 -61c37 -11 84 -16 140 -16h23l88 62l-2 5h-71c-85 0 -153 12 -204 36c-59 29 -88 71 -88 127c0 43 20 80 60 112c32 26 77 48 134 65
c39 12 85 23 140 32l15 66c-15 0 -51 -5 -66 -5c-18 0 -39 2 -64 5c-53 7 -89 11 -106 11c-46 0 -79 -10 -99 -30c-9 -9 -18 -27 -29 -56c24 5 43 8 56 9c21 3 39 5 56 5c11 0 34 -2 45 -2zM334 140l-63 33l-29 -57l64 -32zM321 36l-62 33l-31 -57l64 -33zM245 104l-63 34
l-30 -56l64 -34z" />
    <glyph glyph-name="afii62961" unicode="&#x686;" horiz-adv-x="420" arabic-form="final" 
d="M420 115v67h-53c-19 0 -33 2 -41 7c-13 7 -19 22 -19 43v22c15 3 27 5 35 6c14 3 26 5 37 6l16 66c-28 -3 -52 -6 -79 -6c-20 0 -45 2 -75 7c-29 5 -56 8 -81 8c-46 0 -80 -11 -102 -33c-9 -10 -19 -28 -28 -53c29 7 47 10 52 11c17 2 38 3 64 3c19 0 44 -1 64 -4
c-44 -24 -71 -39 -80 -45c-33 -22 -59 -46 -76 -72c-22 -33 -33 -72 -33 -117c0 -51 13 -93 39 -124c23 -28 56 -48 101 -61c37 -11 84 -16 140 -16h23l88 62l-2 5h-71c-85 0 -153 12 -204 36c-59 29 -88 71 -88 127c0 36 15 68 44 96c23 22 55 42 97 60c22 9 55 21 100 35
c-2 -10 -3 -18 -4 -23c-3 -15 -4 -28 -4 -38c0 -55 24 -75 87 -75h53zM281 97l-63 33l-30 -57l64 -33zM268 -8l-63 34l-30 -58l64 -33zM192 60l-63 34l-30 -56l64 -34z" />
    <glyph glyph-name="afii62959" unicode="&#x686;" horiz-adv-x="424" arabic-form="initial" 
d="M424 115v67h-24c-11 3 -32 18 -64 46c-40 37 -69 62 -88 75c-36 26 -67 39 -93 39c-27 0 -50 -9 -68 -26c-13 -11 -22 -27 -29 -46c13 2 26 3 40 3c21 0 43 -4 64 -12c19 -6 39 -16 62 -31c19 -11 41 -27 67 -48h-319v-67h452zM276 22l-64 33l-29 -57l64 -33zM262 -84
l-62 34l-30 -57l64 -33zM187 -14l-63 34l-31 -57l64 -33z" />
    <glyph glyph-name="afii62960" unicode="&#x686;" horiz-adv-x="424" arabic-form="medial" 
d="M424 115v67h-24c-11 3 -32 18 -64 46c-40 37 -69 62 -88 75c-36 26 -67 39 -93 39c-27 0 -50 -9 -68 -26c-13 -11 -22 -27 -29 -46c13 2 26 3 40 3c21 0 43 -4 64 -12c19 -6 39 -16 62 -31c19 -11 41 -27 67 -48h-319v-67h452zM276 22l-64 33l-29 -57l64 -33zM262 -84
l-62 34l-30 -57l64 -33zM187 -14l-63 34l-31 -57l64 -33z" />
    <glyph glyph-name="afii57508" unicode="&#x698;" horiz-adv-x="391" arabic-form="isolated" 
d="M391 115v95c0 27 -6 52 -17 74c-11 20 -27 40 -48 60l-22 -61c18 -20 32 -39 41 -57c12 -23 18 -44 18 -65c0 -24 -12 -51 -35 -81c-23 -29 -51 -54 -84 -74c-36 -21 -71 -32 -104 -32c-31 0 -71 9 -104 16l-7 -16c19 -7 37 -13 55 -20c23 -9 42 -15 58 -19
c21 -5 40 -8 58 -8c19 0 44 10 75 29c32 19 59 43 80 70c24 30 36 60 36 89zM304 545l-64 34l-28 -57l62 -34zM380 476l-64 32l-29 -56l63 -32zM291 440l-64 33l-29 -57l63 -32z" />
    <glyph glyph-name="afii62962" unicode="&#x698;" horiz-adv-x="391" arabic-form="final" 
d="M391 115v95c0 27 -6 52 -17 74c-11 20 -27 40 -48 60l-22 -61c18 -20 32 -39 41 -57c12 -23 18 -44 18 -65c0 -24 -12 -51 -35 -81c-23 -29 -51 -54 -84 -74c-36 -21 -71 -32 -104 -32c-31 0 -71 9 -104 16l-7 -16c19 -7 37 -13 55 -20c23 -9 42 -15 58 -19
c21 -5 40 -8 58 -8c19 0 44 10 75 29c32 19 59 43 80 70c24 30 36 60 36 89zM304 545l-64 34l-28 -57l62 -34zM380 476l-64 32l-29 -56l63 -32zM291 440l-64 33l-29 -57l63 -32z" />
    <glyph glyph-name="afii57567" unicode="&#x6a9;" horiz-adv-x="650" arabic-form="isolated" 
d="M604 182h-421c-43 0 -76 5 -99 14c-30 11 -45 30 -45 59c0 20 5 38 22 78l-13 8c-11 -22 -19 -37 -22 -45c-12 -29 -18 -55 -18 -78c0 -38 14 -65 42 -81c27 -15 71 -22 133 -22h467v67c-20 38 -46 75 -77 110c-29 33 -64 64 -104 94c-11 7 -21 15 -31 24
c-17 12 -25 21 -25 27s13 15 39 26c19 9 45 18 78 29l82 27v68l-111 -43c-49 -19 -84 -40 -105 -63c-21 -25 -32 -61 -32 -106c0 -7 8 -18 24 -31l46 -36l13 13c80 -48 121 -83 157 -139z" />
    <glyph glyph-name="afii62964" unicode="&#x6a9;" horiz-adv-x="746" arabic-form="final" 
d="M183 115h165c61 0 106 14 137 41c29 27 44 63 44 109c13 -13 22 -24 29 -31c3 -3 11 -13 24 -30c21 -27 37 -45 49 -56c23 -22 46 -33 67 -33h48v67h-51c-12 0 -26 7 -42 21c-11 9 -23 21 -35 36c-19 24 -33 41 -42 50c-13 16 -28 31 -44 45c-19 17 -40 35 -63 52
c-11 7 -21 15 -31 24c-17 12 -25 21 -25 27c0 5 8 11 23 19c18 9 49 21 94 36l82 27v68l-111 -43c-49 -19 -84 -40 -105 -63c-21 -25 -32 -61 -32 -106c0 -7 8 -18 24 -31l46 -36l13 13c19 -10 31 -18 37 -24c13 -13 20 -28 20 -45c0 -23 -17 -41 -51 -54
c-27 -11 -62 -16 -104 -16h-166c-43 0 -76 5 -99 14c-30 11 -45 30 -45 59c0 20 5 38 22 78l-13 8c-11 -22 -19 -37 -22 -45c-12 -29 -18 -55 -18 -78c0 -38 14 -65 42 -81c27 -15 71 -22 133 -22z" />
    <glyph glyph-name="afii52305" unicode="&#x6a9;" horiz-adv-x="316" arabic-form="initial" 
d="M316 115v67c-20 38 -46 75 -77 110c-29 33 -64 64 -104 94c-11 7 -21 15 -32 24c-17 12 -25 21 -25 27s13 15 38 26c21 9 47 18 80 29l81 27v68l-110 -43c-50 -19 -85 -40 -105 -63c-22 -25 -33 -61 -33 -106c0 -7 8 -18 24 -31l47 -36l13 13c79 -48 121 -83 157 -139
h-298v-67h344z" />
    <glyph glyph-name="afii52306" unicode="&#x6a9;" horiz-adv-x="412" arabic-form="medial" 
d="M284 239c-19 24 -33 41 -42 50c-14 16 -29 31 -45 45c-18 17 -39 35 -62 52c-11 7 -21 15 -32 24c-17 12 -25 21 -25 27s13 15 38 26c21 9 47 18 80 29l81 27v68l-110 -43c-50 -19 -85 -40 -105 -63c-22 -25 -33 -61 -33 -106c0 -7 8 -18 24 -31l47 -36l13 13
c18 -10 30 -18 37 -24c13 -13 20 -28 20 -45c0 -23 -17 -41 -51 -54c-28 -11 -63 -16 -104 -16h-43v-67h41c61 0 107 14 138 41c29 27 44 63 44 109c13 -13 22 -24 29 -31c3 -3 11 -13 24 -30c21 -27 37 -45 49 -56c23 -22 46 -33 67 -33h48v67h-51c-12 0 -26 7 -42 21
c-12 9 -24 21 -35 36z" />
    <glyph glyph-name="afii57509" unicode="&#x6af;" horiz-adv-x="650" arabic-form="isolated" 
d="M604 182h-421c-43 0 -76 5 -99 14c-30 11 -45 30 -45 59c0 20 5 38 22 78l-13 8c-11 -22 -19 -37 -22 -45c-12 -29 -18 -55 -18 -78c0 -38 14 -65 42 -81c27 -15 71 -22 133 -22h467v67c-20 38 -46 75 -77 110c-29 33 -64 64 -104 94c-11 7 -21 15 -31 24
c-17 12 -25 21 -25 27s13 15 39 26c19 9 45 18 78 29l82 27v68l-111 -43c-49 -19 -84 -40 -105 -63c-21 -25 -32 -61 -32 -106c0 -7 8 -18 24 -31l46 -36l13 13c80 -48 121 -83 157 -139zM612 693c-39 -15 -78 -33 -117 -54c-69 -36 -123 -71 -139 -91v-41
c24 17 57 35 99 55c48 23 100 45 157 66v65z" />
    <glyph glyph-name="afii62967" unicode="&#x6af;" horiz-adv-x="746" arabic-form="final" 
d="M183 115h165c61 0 106 14 137 41c29 27 44 63 44 109c13 -13 22 -24 29 -31c3 -3 11 -13 24 -30c21 -27 37 -45 49 -56c23 -22 46 -33 67 -33h48v67h-51c-12 0 -26 7 -42 21c-11 9 -23 21 -35 36c-19 24 -33 41 -42 50c-13 16 -28 31 -44 45c-19 17 -40 35 -63 52
c-11 7 -21 15 -31 24c-17 12 -25 21 -25 27c0 5 8 11 23 19c18 9 49 21 94 36l82 27v68l-111 -43c-49 -19 -84 -40 -105 -63c-21 -25 -32 -61 -32 -106c0 -7 8 -18 24 -31l46 -36l13 13c19 -10 31 -18 37 -24c13 -13 20 -28 20 -45c0 -23 -17 -41 -51 -54
c-27 -11 -62 -16 -104 -16h-166c-43 0 -76 5 -99 14c-30 11 -45 30 -45 59c0 20 5 38 22 78l-13 8c-11 -22 -19 -37 -22 -45c-12 -29 -18 -55 -18 -78c0 -38 14 -65 42 -81c27 -15 71 -22 133 -22zM612 693c-39 -15 -78 -33 -117 -54c-69 -36 -123 -71 -139 -91v-41
c24 17 57 35 99 55c48 23 100 45 157 66v65z" />
    <glyph glyph-name="afii62965" unicode="&#x6af;" horiz-adv-x="316" arabic-form="initial" 
d="M316 115v67c-20 38 -46 75 -77 110c-29 33 -64 64 -104 94c-11 7 -21 15 -32 24c-17 12 -25 21 -25 27s13 15 38 26c21 9 47 18 80 29l81 27v68l-110 -43c-50 -19 -85 -40 -105 -63c-22 -25 -33 -61 -33 -106c0 -7 8 -18 24 -31l47 -36l13 13c79 -48 121 -83 157 -139
h-298v-67h344zM277 700c-38 -15 -77 -33 -116 -54c-71 -36 -123 -71 -140 -90v-42c25 17 58 35 100 55c48 23 100 45 156 66v65z" />
    <glyph glyph-name="afii62966" unicode="&#x6af;" horiz-adv-x="412" arabic-form="medial" 
d="M284 239c-19 24 -33 41 -42 50c-14 16 -29 31 -45 45c-18 17 -39 35 -62 52c-11 7 -21 15 -32 24c-17 12 -25 21 -25 27s13 15 38 26c21 9 47 18 80 29l81 27v68l-110 -43c-50 -19 -85 -40 -105 -63c-22 -25 -33 -61 -33 -106c0 -7 8 -18 24 -31l47 -36l13 13
c18 -10 30 -18 37 -24c13 -13 20 -28 20 -45c0 -23 -17 -41 -51 -54c-28 -11 -63 -16 -104 -16h-43v-67h41c61 0 107 14 138 41c29 27 44 63 44 109c13 -13 22 -24 29 -31c3 -3 11 -13 24 -30c21 -27 37 -45 49 -56c23 -22 46 -33 67 -33h48v67h-51c-12 0 -26 7 -42 21
c-12 9 -24 21 -35 36zM277 700c-38 -15 -77 -33 -116 -54c-71 -36 -123 -71 -140 -90v-42c25 17 58 35 100 55c48 23 100 45 156 66v65z" />
    <glyph glyph-name="afii57555" unicode="&#x6cc;" horiz-adv-x="510" arabic-form="isolated" 
d="M484 313c0 35 -20 57 -55 57c-27 0 -53 -13 -80 -40c-22 -22 -41 -49 -57 -82c-14 -29 -21 -53 -21 -70c0 -27 20 -44 43 -44h91c15 0 21 -3 21 -12c0 -7 -14 -18 -43 -33s-61 -27 -96 -38c-41 -13 -77 -19 -108 -19c-83 0 -127 32 -127 95c0 39 17 92 50 149l-17 8
l-24 -48c-12 -24 -21 -48 -28 -71c-9 -29 -13 -57 -13 -84c0 -40 13 -70 40 -89c24 -18 59 -27 105 -27c90 0 161 16 213 47c57 34 86 84 86 149c0 17 -6 27 -19 29s-24 3 -33 3c-9 1 -22 1 -41 1h-31c-28 0 -38 6 -38 15c0 14 12 33 35 58c25 27 48 40 71 40
c27 0 54 -15 71 -39c1 8 5 28 5 45z" />
    <glyph glyph-name="afii52364" unicode="&#x6cc;" horiz-adv-x="471" arabic-form="final" 
d="M471 115v67h-68c-22 0 -43 -3 -63 -9c-27 -8 -48 -20 -63 -37c-19 -20 -29 -46 -29 -79c0 -17 13 -26 46 -26c9 0 49 -3 62 -3c20 0 26 -6 26 -14c0 -12 -17 -22 -52 -29c-29 -5 -62 -8 -99 -8c-55 0 -99 8 -131 23c-33 17 -49 42 -49 74c0 17 7 41 22 70
c9 17 19 33 29 50l-16 8c-25 -40 -41 -66 -47 -78c-17 -34 -25 -66 -25 -96c0 -38 18 -67 53 -88c33 -19 77 -28 133 -28c81 0 138 12 173 36c32 22 48 58 48 107c0 9 -4 16 -11 20c-4 2 -13 4 -26 6c-21 2 -34 3 -41 4c-6 1 -14 1 -25 1c-24 0 -36 4 -36 13
c0 12 40 16 121 16h68z" />
    <glyph glyph-name="afii52399" unicode="&#x621;" horiz-adv-x="330" arabic-form="isolated" 
d="M291 210c-37 -11 -74 -25 -111 -42c-25 8 -43 16 -56 24c-15 10 -23 20 -23 31c0 17 35 35 60 35c10 0 23 -5 39 -16c2 -1 8 -5 17 -12l20 52c-11 12 -17 19 -20 21c-13 11 -29 17 -48 17c-21 0 -42 -11 -63 -34c-16 -17 -30 -39 -43 -65c-11 -22 -16 -37 -16 -45
c0 -11 7 -20 21 -29l45 -26c-7 -7 -13 -15 -18 -24c-5 -10 -10 -21 -13 -33l11 -6c25 23 52 41 81 55c25 12 58 23 98 33z" />
    <glyph glyph-name="afii52400" unicode="&#x622;" horiz-adv-x="165" arabic-form="isolated" 
d="M164 646l-5 6c-13 -6 -27 -9 -41 -9c-8 0 -19 2 -32 6c-26 8 -40 12 -42 12c-11 0 -19 -3 -24 -8c-3 -2 -8 -8 -15 -17l5 -5c8 4 14 5 19 5c2 0 16 -4 42 -13c11 -3 24 -5 37 -5c12 0 23 3 34 9c8 5 15 11 22 19zM132 214c0 26 -2 65 -7 117c-4 41 -9 88 -16 139
c-6 52 -11 93 -15 122c-12 -24 -27 -51 -36 -75c4 -33 8 -65 11 -97c12 -107 23 -211 23 -266c0 -8 -1 -31 -4 -46l7 -4c13 23 22 39 26 50c7 19 11 39 11 60z" />
    <glyph glyph-name="afii62753" unicode="&#x622;" horiz-adv-x="184" arabic-form="final" 
d="M184 115v67h-55c-9 0 -17 6 -24 17c-9 13 -16 43 -21 89c-2 101 -4 165 -7 192c-4 43 -11 81 -22 112l-48 -76c10 -9 18 -20 24 -32c9 -21 14 -48 18 -111c2 -31 4 -60 5 -89c5 -73 13 -123 32 -148c11 -14 25 -21 43 -21h55zM145 646l-5 6c-14 -6 -28 -9 -41 -9
c-9 0 -19 2 -32 6c-26 8 -40 12 -43 12c-10 0 -18 -3 -24 -8c-3 -2 -7 -8 -14 -17l4 -5c8 4 13 5 20 5c1 0 15 -4 42 -13c11 -3 23 -5 36 -5s24 3 35 9c7 5 15 11 22 19z" />
    <glyph glyph-name="afii57411" unicode="&#x623;" horiz-adv-x="165" arabic-form="isolated" 
d="M143 640c-15 -5 -16 -6 -27 -6c-9 0 -20 3 -32 10s-18 12 -18 16c0 7 14 12 26 12c9 0 18 -4 25 -11c7 9 9 16 9 23c0 12 -7 20 -18 20c-12 0 -26 -8 -41 -24c-14 -15 -21 -26 -21 -35c0 -5 3 -10 8 -15c4 -4 10 -8 19 -12c-26 -9 -39 -20 -39 -31l73 25c11 3 19 7 24 10
c8 5 12 11 12 18zM132 214c0 26 -2 65 -7 117c-4 41 -9 88 -16 139c-6 52 -11 93 -15 122c-12 -24 -27 -51 -36 -75c4 -33 8 -65 11 -97c12 -107 23 -211 23 -266c0 -8 -1 -31 -4 -46l7 -4c13 23 22 39 26 50c7 19 11 39 11 60z" />
    <glyph glyph-name="afii62754" unicode="&#x623;" horiz-adv-x="184" arabic-form="final" 
d="M116 640c-16 -5 -16 -6 -28 -6c-9 0 -19 3 -31 10s-18 12 -18 16c0 7 13 12 25 12c9 0 18 -4 27 -11c4 9 9 16 9 23c0 12 -9 20 -20 20c-12 0 -26 -8 -41 -24c-13 -15 -20 -26 -20 -35c0 -5 3 -10 8 -15c4 -4 10 -8 18 -12c-26 -9 -39 -20 -39 -31l73 25c11 3 19 7 24 10
c9 5 13 11 13 18zM184 115v67h-55c-9 0 -17 6 -24 17c-9 13 -16 43 -21 89c-2 101 -4 165 -7 192c-4 43 -11 81 -22 112l-48 -76c10 -9 18 -20 24 -32c9 -21 14 -48 18 -111c2 -31 4 -60 5 -89c5 -73 13 -123 32 -148c11 -14 25 -21 43 -21h55z" />
    <glyph glyph-name="afii57412" unicode="&#x624;" horiz-adv-x="346" arabic-form="isolated" 
d="M346 138v44c0 37 -4 65 -12 86c-10 27 -26 40 -49 40c-22 0 -41 -13 -56 -40c-12 -23 -18 -47 -18 -74c0 -30 10 -51 30 -63c17 -11 43 -17 78 -17c-20 -28 -36 -48 -47 -60c-22 -24 -44 -43 -67 -56c-28 -16 -58 -24 -89 -24c-27 0 -61 11 -90 16l-6 -13
c17 -6 33 -12 50 -18c21 -7 39 -12 53 -14c17 -4 35 -6 52 -6c47 0 88 24 123 71c32 43 48 85 48 128zM321 180c-52 0 -73 13 -73 40c0 13 12 25 27 25c10 0 18 -4 25 -13c9 -9 16 -27 21 -52zM252 380c-16 -7 -16 -6 -28 -6c-8 0 -18 3 -31 10c-12 7 -18 13 -18 16
c0 7 14 12 25 12c9 0 18 -4 27 -11c5 9 9 17 9 24c0 12 -9 19 -20 19s-25 -8 -40 -24c-14 -15 -21 -26 -21 -34c0 -5 3 -10 9 -15c4 -5 10 -9 17 -13c-26 -9 -39 -19 -39 -32l73 26c11 3 20 7 25 11c8 5 12 11 12 17z" />
    <glyph glyph-name="afii62755" unicode="&#x624;" horiz-adv-x="346" arabic-form="final" 
d="M346 138v44c0 37 -4 65 -12 86c-10 27 -26 40 -49 40c-22 0 -41 -13 -56 -40c-12 -23 -18 -47 -18 -74c0 -30 10 -51 30 -63c17 -11 43 -17 78 -17c-20 -28 -36 -48 -47 -60c-22 -24 -44 -43 -67 -56c-28 -16 -58 -24 -89 -24c-27 0 -61 11 -90 16l-6 -13
c17 -6 33 -12 50 -18c21 -7 39 -12 53 -14c17 -4 35 -6 52 -6c47 0 88 24 123 71c32 43 48 85 48 128zM321 180c-52 0 -73 13 -73 40c0 13 12 25 27 25c10 0 18 -4 25 -13c9 -9 16 -27 21 -52zM252 380c-16 -7 -16 -6 -28 -6c-8 0 -18 3 -31 10c-12 7 -18 13 -18 16
c0 7 14 12 25 12c9 0 18 -4 27 -11c5 9 9 17 9 24c0 12 -9 19 -20 19s-25 -8 -40 -24c-14 -15 -21 -26 -21 -34c0 -5 3 -10 9 -15c4 -5 10 -9 17 -13c-26 -9 -39 -19 -39 -32l73 26c11 3 20 7 25 11c8 5 12 11 12 17z" />
    <glyph glyph-name="afii57413" unicode="&#x625;" horiz-adv-x="165" arabic-form="isolated" 
d="M127 -21c-15 -7 -16 -7 -27 -7c-9 0 -20 4 -32 11s-18 12 -18 16c0 7 14 12 26 12c9 0 18 -4 25 -11c7 8 9 16 9 23c0 12 -7 20 -18 20c-12 0 -26 -8 -41 -24c-14 -15 -21 -27 -21 -35c0 -5 3 -10 8 -15c4 -4 10 -8 19 -13c-26 -9 -39 -19 -39 -31l73 25c11 4 19 8 24 11
c8 5 12 11 12 18zM132 214c0 26 -2 65 -7 117c-4 41 -9 88 -16 139c-6 52 -11 93 -15 122c-12 -24 -27 -51 -36 -75c4 -33 8 -65 11 -97c12 -107 23 -211 23 -266c0 -8 -1 -31 -4 -46l7 -4c13 23 22 39 26 50c7 19 11 39 11 60z" />
    <glyph glyph-name="afii62756" unicode="&#x625;" horiz-adv-x="184" arabic-form="final" 
d="M184 115v67h-55c-9 0 -17 6 -24 17c-9 13 -16 43 -21 89c-2 101 -4 165 -7 192c-4 43 -11 81 -22 112l-48 -76c10 -9 18 -20 24 -32c9 -21 14 -48 18 -111c2 -31 4 -60 5 -89c5 -73 13 -123 32 -148c11 -14 25 -21 43 -21h55zM119 -21c-15 -7 -16 -7 -27 -7
c-9 0 -20 4 -32 11s-18 12 -18 16c0 7 14 12 26 12c9 0 18 -4 25 -11c7 8 10 16 10 23c0 12 -8 20 -19 20c-12 0 -26 -8 -41 -24c-14 -15 -21 -27 -21 -35c0 -5 3 -10 8 -15c4 -4 10 -8 19 -13c-26 -9 -39 -19 -39 -31l73 25c11 4 19 8 24 11c8 5 12 11 12 18z" />
    <glyph glyph-name="afii57414" unicode="&#x626;" horiz-adv-x="510" arabic-form="isolated" 
d="M484 313c0 35 -20 57 -55 57c-27 0 -53 -13 -80 -40c-22 -22 -41 -49 -57 -82c-14 -29 -21 -53 -21 -70c0 -27 20 -44 43 -44h91c15 0 21 -3 21 -12c0 -7 -14 -18 -43 -33s-61 -27 -96 -38c-41 -13 -77 -19 -108 -19c-83 0 -127 32 -127 95c0 39 17 92 50 149l-17 8
l-24 -48c-12 -24 -21 -48 -28 -71c-9 -29 -13 -57 -13 -84c0 -40 13 -70 40 -89c24 -18 59 -27 105 -27c90 0 161 16 213 47c57 34 86 84 86 149c0 17 -6 27 -19 29s-24 3 -33 3c-9 1 -22 1 -41 1h-31c-28 0 -38 6 -38 15c0 14 12 33 35 58c25 27 48 40 71 40
c27 0 54 -15 71 -39c1 8 5 28 5 45zM141 380c-15 -7 -15 -6 -27 -6c-19 0 -49 19 -49 26s13 12 25 12c9 0 18 -4 26 -11c5 9 9 17 9 24c0 12 -8 19 -19 19c-12 0 -26 -8 -41 -24c-14 -15 -21 -26 -21 -34c0 -5 3 -10 8 -15s11 -9 19 -13c-26 -9 -39 -19 -39 -32l73 26
c11 3 19 7 24 11c8 5 12 11 12 17z" />
    <glyph glyph-name="afii62759" unicode="&#x626;" horiz-adv-x="471" arabic-form="final" 
d="M471 115v67h-68c-22 0 -43 -3 -63 -9c-27 -8 -48 -20 -63 -37c-19 -20 -29 -46 -29 -79c0 -17 13 -26 46 -26c9 0 49 -3 62 -3c20 0 26 -6 26 -14c0 -12 -17 -22 -52 -29c-29 -5 -62 -8 -99 -8c-55 0 -99 8 -131 23c-33 17 -49 42 -49 74c0 17 7 41 22 70
c9 17 19 33 29 50l-16 8c-25 -40 -41 -66 -47 -78c-17 -34 -25 -66 -25 -96c0 -38 18 -67 53 -88c33 -19 77 -28 133 -28c81 0 138 12 173 36c32 22 48 58 48 107c0 9 -4 16 -11 20c-4 2 -13 4 -26 6c-21 2 -34 3 -41 4c-6 1 -14 1 -25 1c-24 0 -36 4 -36 13
c0 12 40 16 121 16h68zM138 329c-16 -7 -17 -6 -29 -6c-8 0 -18 3 -31 10c-12 7 -18 12 -18 16c0 7 14 12 26 12c9 0 18 -4 26 -11c5 9 9 16 9 24c0 11 -10 19 -19 19c-12 0 -26 -8 -41 -24c-13 -15 -20 -26 -20 -34c0 -6 3 -11 8 -16c4 -4 10 -8 19 -12
c-27 -9 -40 -20 -40 -31l72 24c11 5 20 8 25 11c9 5 13 11 13 18z" />
    <glyph glyph-name="afii62757" unicode="&#x626;" horiz-adv-x="196" arabic-form="initial" 
d="M196 115v95c0 46 -4 79 -11 99c-5 13 -17 32 -36 55l-30 -63c19 -21 32 -38 37 -49c7 -16 11 -39 11 -70h-195v-67h224zM153 471c-16 -7 -16 -6 -28 -6c-8 0 -18 3 -31 10c-12 7 -18 12 -18 16c0 7 14 12 25 12c10 0 19 -4 27 -11c5 9 9 16 9 24c0 11 -9 19 -20 19
s-25 -8 -40 -25c-14 -14 -21 -25 -21 -34c0 -5 3 -10 9 -15c4 -4 10 -8 18 -12c-26 -9 -39 -19 -39 -32l72 25c11 4 19 8 25 11c8 5 12 11 12 18z" />
    <glyph glyph-name="afii62758" unicode="&#x626;" horiz-adv-x="196" arabic-form="medial" 
d="M196 115v95c0 46 -4 79 -11 99c-5 13 -17 32 -36 55l-30 -63c19 -21 32 -38 37 -49c7 -16 11 -39 11 -70h-195v-67h224zM153 471c-16 -7 -16 -6 -28 -6c-8 0 -18 3 -31 10c-12 7 -18 12 -18 16c0 7 14 12 25 12c10 0 19 -4 27 -11c5 9 9 16 9 24c0 11 -9 19 -20 19
s-25 -8 -40 -25c-14 -14 -21 -25 -21 -34c0 -5 3 -10 9 -15c4 -4 10 -8 18 -12c-26 -9 -39 -19 -39 -32l72 25c11 4 19 8 25 11c8 5 12 11 12 18z" />
    <glyph glyph-name="afii57415" unicode="&#x627;" horiz-adv-x="165" arabic-form="isolated" 
d="M132 214c0 26 -2 65 -7 117c-4 41 -9 88 -16 139c-6 52 -11 93 -15 122c-12 -24 -27 -51 -36 -75c4 -33 8 -65 11 -97c12 -107 23 -211 23 -266c0 -8 -1 -31 -4 -46l7 -4c13 23 22 39 26 50c7 19 11 39 11 60z" />
    <glyph glyph-name="afii62760" unicode="&#x627;" horiz-adv-x="184" arabic-form="final" 
d="M184 115v67h-55c-9 0 -17 6 -24 17c-9 13 -16 43 -21 89c-2 101 -4 165 -7 192c-4 43 -11 81 -22 112l-48 -76c10 -9 18 -20 24 -32c9 -21 14 -48 18 -111c2 -31 4 -60 5 -89c5 -73 13 -123 32 -148c11 -14 25 -21 43 -21h55z" />
    <glyph glyph-name="afii57416" unicode="&#x628;" horiz-adv-x="571" arabic-form="isolated" 
d="M571 115v105c0 56 -9 99 -27 128c-3 4 -9 13 -20 27l-31 -64c35 -25 47 -61 47 -118v-11h-331c-45 0 -81 8 -109 23c-33 17 -49 40 -49 71c0 15 4 32 11 50c5 12 11 24 17 36l-11 8c-15 -25 -25 -43 -29 -53c-11 -25 -17 -49 -17 -73c0 -47 19 -82 56 -104
c30 -17 70 -25 120 -25h373zM347 20l-65 32l-29 -56l63 -33z" />
    <glyph glyph-name="afii62763" unicode="&#x628;" horiz-adv-x="571" arabic-form="final" 
d="M571 115v105c0 56 -9 99 -27 128c-3 4 -9 13 -20 27l-31 -64c35 -25 47 -61 47 -118v-11h-331c-45 0 -81 8 -109 23c-33 17 -49 40 -49 71c0 15 4 32 11 50c5 12 11 24 17 36l-11 8c-15 -25 -25 -43 -29 -53c-11 -25 -17 -49 -17 -73c0 -47 19 -82 56 -104
c30 -17 70 -25 120 -25h373zM347 20l-65 32l-29 -56l63 -33z" />
    <glyph glyph-name="afii62761" unicode="&#x628;" horiz-adv-x="196" arabic-form="initial" 
d="M196 115v95c0 46 -4 79 -11 99c-5 13 -17 32 -36 55l-30 -63c19 -21 32 -38 37 -49c7 -16 11 -39 11 -70h-195v-67h224zM156 20l-65 32l-30 -56l64 -33z" />
    <glyph glyph-name="afii62762" unicode="&#x628;" horiz-adv-x="196" arabic-form="medial" 
d="M196 115v95c0 46 -4 79 -11 99c-5 13 -17 32 -36 55l-30 -63c19 -21 32 -38 37 -49c7 -16 11 -39 11 -70h-195v-67h224zM156 20l-65 32l-30 -56l64 -33z" />
    <glyph glyph-name="afii57417" unicode="&#x629;" horiz-adv-x="226" arabic-form="isolated" 
d="M183 479l-65 34l-29 -56l63 -34zM93 444l-64 33l-29 -57l63 -32zM217 229c0 24 -15 47 -46 68c-10 7 -38 22 -85 47l-24 -66l6 -2c-9 -21 -17 -41 -25 -61c-9 -23 -14 -44 -14 -63c0 -16 7 -28 22 -36c12 -8 28 -12 47 -12c49 0 83 14 101 43c12 18 18 45 18 82zM183 199
c0 -7 -9 -14 -26 -23c-17 -8 -33 -12 -48 -12c-24 0 -41 17 -41 42c0 9 4 19 12 30c3 3 9 11 20 24c15 -7 28 -14 40 -21c29 -17 43 -30 43 -40z" />
    <glyph glyph-name="afii62764" unicode="&#x629;" horiz-adv-x="300" arabic-form="final" 
d="M201 581l-64 33l-29 -56l63 -33zM111 546l-64 33l-28 -56l63 -33zM300 115v67h-56c-9 0 -17 14 -24 41c-5 18 -11 45 -18 82l-12 67c-8 32 -13 62 -18 94c-8 -9 -14 -18 -19 -27c-6 -11 -9 -21 -9 -30c0 -4 4 -28 5 -33c-43 -20 -80 -44 -109 -71s-44 -52 -44 -75
c0 -12 45 -21 105 -21c27 0 52 17 68 46c7 -38 15 -69 26 -92c14 -32 30 -48 49 -48h56zM164 289c-15 -16 -30 -24 -45 -24c-25 0 -38 2 -49 7c19 28 42 43 86 60z" />
    <glyph glyph-name="afii57418" unicode="&#x62a;" horiz-adv-x="571" arabic-form="isolated" 
d="M387 469l-64 33l-30 -56l63 -33zM297 434l-64 33l-29 -57l64 -32zM571 115v105c0 56 -9 99 -27 128c-3 4 -9 13 -20 27l-31 -64c35 -25 47 -61 47 -118v-11h-331c-45 0 -81 8 -109 23c-33 17 -49 40 -49 71c0 15 4 32 11 50c5 12 11 24 17 36l-11 8
c-15 -25 -25 -43 -29 -53c-11 -25 -17 -49 -17 -73c0 -47 19 -82 56 -104c30 -17 70 -25 120 -25h373z" />
    <glyph glyph-name="afii62767" unicode="&#x62a;" horiz-adv-x="571" arabic-form="final" 
d="M387 469l-64 33l-30 -56l63 -33zM297 434l-64 33l-29 -57l64 -32zM571 115v105c0 56 -9 99 -27 128c-3 4 -9 13 -20 27l-31 -64c35 -25 47 -61 47 -118v-11h-331c-45 0 -81 8 -109 23c-33 17 -49 40 -49 71c0 15 4 32 11 50c5 12 11 24 17 36l-11 8
c-15 -25 -25 -43 -29 -53c-11 -25 -17 -49 -17 -73c0 -47 19 -82 56 -104c30 -17 70 -25 120 -25h373z" />
    <glyph glyph-name="afii62765" unicode="&#x62a;" horiz-adv-x="196" arabic-form="initial" 
d="M194 500l-65 33l-29 -56l63 -33zM103 465l-64 33l-28 -56l63 -33zM196 115v95c0 46 -4 79 -11 99c-5 13 -17 32 -36 55l-30 -63c19 -21 32 -38 37 -49c7 -16 11 -39 11 -70h-195v-67h224z" />
    <glyph glyph-name="afii62766" unicode="&#x62a;" horiz-adv-x="196" arabic-form="medial" 
d="M194 500l-65 33l-29 -56l63 -33zM103 465l-64 33l-28 -56l63 -33zM196 115v95c0 46 -4 79 -11 99c-5 13 -17 32 -36 55l-30 -63c19 -21 32 -38 37 -49c7 -16 11 -39 11 -70h-195v-67h224z" />
    <glyph glyph-name="afii57419" unicode="&#x62b;" horiz-adv-x="571" arabic-form="isolated" 
d="M310 539l-64 33l-28 -56l62 -34zM387 469l-64 33l-30 -56l63 -33zM297 434l-64 33l-29 -57l64 -32zM571 115v105c0 56 -9 99 -27 128c-3 4 -9 13 -20 27l-31 -64c35 -25 47 -61 47 -118v-11h-331c-45 0 -81 8 -109 23c-33 17 -49 40 -49 71c0 15 4 32 11 50
c5 12 11 24 17 36l-11 8c-15 -25 -25 -43 -29 -53c-11 -25 -17 -49 -17 -73c0 -47 19 -82 56 -104c30 -17 70 -25 120 -25h373z" />
    <glyph glyph-name="afii62770" unicode="&#x62b;" horiz-adv-x="571" arabic-form="final" 
d="M310 539l-64 33l-28 -56l62 -34zM387 469l-64 33l-30 -56l63 -33zM297 434l-64 33l-29 -57l64 -32zM571 115v105c0 56 -9 99 -27 128c-3 4 -9 13 -20 27l-31 -64c35 -25 47 -61 47 -118v-11h-331c-45 0 -81 8 -109 23c-33 17 -49 40 -49 71c0 15 4 32 11 50
c5 12 11 24 17 36l-11 8c-15 -25 -25 -43 -29 -53c-11 -25 -17 -49 -17 -73c0 -47 19 -82 56 -104c30 -17 70 -25 120 -25h373z" />
    <glyph glyph-name="afii62768" unicode="&#x62b;" horiz-adv-x="196" arabic-form="initial" 
d="M116 570l-64 34l-28 -57l62 -34zM194 500l-65 33l-29 -56l63 -33zM103 465l-64 33l-28 -56l63 -33zM196 115v95c0 46 -4 79 -11 99c-5 13 -17 32 -36 55l-30 -63c19 -21 32 -38 37 -49c7 -16 11 -39 11 -70h-195v-67h224z" />
    <glyph glyph-name="afii62769" unicode="&#x62b;" horiz-adv-x="196" arabic-form="medial" 
d="M116 570l-64 34l-28 -57l62 -34zM194 500l-65 33l-29 -56l63 -33zM103 465l-64 33l-28 -56l63 -33zM196 115v95c0 46 -4 79 -11 99c-5 13 -17 32 -36 55l-30 -63c19 -21 32 -38 37 -49c7 -16 11 -39 11 -70h-195v-67h224z" />
    <glyph glyph-name="afii57420" unicode="&#x62c;" horiz-adv-x="451" arabic-form="isolated" 
d="M302 103l-64 32l-30 -56l61 -35zM189 272c-37 -24 -60 -40 -69 -47c-29 -24 -52 -49 -68 -76c-21 -35 -31 -74 -31 -118c0 -51 13 -93 39 -124c23 -28 56 -48 101 -61c37 -11 84 -16 140 -16h23l88 62l-2 5h-71c-85 0 -153 12 -204 36c-59 29 -88 71 -88 127
c0 43 20 80 60 112c32 26 77 48 134 65c39 12 85 23 140 32l15 66c-15 0 -51 -5 -66 -5c-18 0 -39 2 -64 5c-53 7 -89 11 -106 11c-46 0 -79 -10 -99 -30c-9 -9 -18 -27 -29 -56c24 5 43 8 56 9c21 3 39 5 56 5c11 0 34 -2 45 -2z" />
    <glyph glyph-name="afii62773" unicode="&#x62c;" horiz-adv-x="420" arabic-form="final" 
d="M420 115v67h-53c-19 0 -33 2 -41 7c-13 7 -19 22 -19 43v22c15 3 27 5 35 6c14 3 26 5 37 6l16 66c-28 -3 -52 -6 -79 -6c-20 0 -45 2 -75 7c-29 5 -56 8 -81 8c-46 0 -80 -11 -102 -33c-9 -10 -19 -28 -28 -53c29 7 47 10 52 11c17 2 38 3 64 3c19 0 44 -1 64 -4
c-44 -24 -71 -39 -80 -45c-33 -22 -59 -46 -76 -72c-22 -33 -33 -72 -33 -117c0 -51 13 -93 39 -124c23 -28 56 -48 101 -61c37 -11 84 -16 140 -16h23l88 62l-2 5h-71c-85 0 -153 12 -204 36c-59 29 -88 71 -88 127c0 36 15 68 44 96c23 22 55 42 97 60c22 9 55 21 100 35
c-2 -10 -3 -18 -4 -23c-3 -15 -4 -28 -4 -38c0 -55 24 -75 87 -75h53zM275 72l-63 34l-31 -58l63 -33z" />
    <glyph glyph-name="afii62771" unicode="&#x62c;" horiz-adv-x="424" arabic-form="initial" 
d="M424 115v67h-24c-11 3 -32 18 -64 46c-40 37 -69 62 -88 75c-36 26 -67 39 -93 39c-27 0 -50 -9 -68 -26c-13 -11 -22 -27 -29 -46c13 2 26 3 40 3c21 0 43 -4 64 -12c19 -6 39 -16 62 -31c19 -11 41 -27 67 -48h-319v-67h452zM225 29l-62 34l-31 -57l64 -33z" />
    <glyph glyph-name="afii62772" unicode="&#x62c;" horiz-adv-x="424" arabic-form="medial" 
d="M424 115v67h-24c-11 3 -32 18 -64 46c-40 37 -69 62 -88 75c-36 26 -67 39 -93 39c-27 0 -50 -9 -68 -26c-13 -11 -22 -27 -29 -46c13 2 26 3 40 3c21 0 43 -4 64 -12c19 -6 39 -16 62 -31c19 -11 41 -27 67 -48h-319v-67h452zM225 29l-62 34l-31 -57l64 -33z" />
    <glyph glyph-name="afii57421" unicode="&#x62d;" horiz-adv-x="451" arabic-form="isolated" 
d="M189 272c-37 -24 -60 -40 -69 -47c-29 -24 -52 -49 -68 -76c-21 -35 -31 -74 -31 -118c0 -51 13 -93 39 -124c23 -28 56 -48 101 -61c37 -11 84 -16 140 -16h23l88 62l-2 5h-71c-85 0 -153 12 -204 36c-59 29 -88 71 -88 127c0 43 20 80 60 112c32 26 77 48 134 65
c39 12 85 23 140 32l15 66c-15 0 -51 -5 -66 -5c-18 0 -39 2 -64 5c-53 7 -89 11 -106 11c-46 0 -79 -10 -99 -30c-9 -9 -18 -27 -29 -56c24 5 43 8 56 9c21 3 39 5 56 5c11 0 34 -2 45 -2z" />
    <glyph glyph-name="afii62776" unicode="&#x62d;" horiz-adv-x="420" arabic-form="final" 
d="M420 115v67h-53c-19 0 -33 2 -41 7c-13 7 -19 22 -19 43v22c15 3 27 5 35 6c14 3 26 5 37 6l16 66c-28 -3 -52 -6 -79 -6c-20 0 -45 2 -75 7c-29 5 -56 8 -81 8c-46 0 -80 -11 -102 -33c-9 -10 -19 -28 -28 -53c29 7 47 10 52 11c17 2 38 3 64 3c19 0 44 -1 64 -4
c-44 -24 -71 -39 -80 -45c-33 -22 -59 -46 -76 -72c-22 -33 -33 -72 -33 -117c0 -51 13 -93 39 -124c23 -28 56 -48 101 -61c37 -11 84 -16 140 -16h23l88 62l-2 5h-71c-85 0 -153 12 -204 36c-59 29 -88 71 -88 127c0 36 15 68 44 96c23 22 55 42 97 60c22 9 55 21 100 35
c-2 -10 -3 -18 -4 -23c-3 -15 -4 -28 -4 -38c0 -55 24 -75 87 -75h53z" />
    <glyph glyph-name="afii62774" unicode="&#x62d;" horiz-adv-x="424" arabic-form="initial" 
d="M424 115v67h-24c-11 3 -32 18 -64 46c-40 37 -69 62 -88 75c-36 26 -67 39 -93 39c-27 0 -50 -9 -68 -26c-13 -11 -22 -27 -29 -46c13 2 26 3 40 3c21 0 43 -4 64 -12c19 -6 39 -16 62 -31c19 -11 41 -27 67 -48h-319v-67h452z" />
    <glyph glyph-name="afii62775" unicode="&#x62d;" horiz-adv-x="424" arabic-form="medial" 
d="M424 115v67h-24c-11 3 -32 18 -64 46c-40 37 -69 62 -88 75c-36 26 -67 39 -93 39c-27 0 -50 -9 -68 -26c-13 -11 -22 -27 -29 -46c13 2 26 3 40 3c21 0 43 -4 64 -12c19 -6 39 -16 62 -31c19 -11 41 -27 67 -48h-319v-67h452z" />
    <glyph glyph-name="afii57422" unicode="&#x62e;" horiz-adv-x="451" arabic-form="isolated" 
d="M264 478l-64 33l-29 -57l63 -33zM189 272c-37 -24 -60 -40 -69 -47c-29 -24 -52 -49 -68 -76c-21 -35 -31 -74 -31 -118c0 -51 13 -93 39 -124c23 -28 56 -48 101 -61c37 -11 84 -16 140 -16h23l88 62l-2 5h-71c-85 0 -153 12 -204 36c-59 29 -88 71 -88 127
c0 43 20 80 60 112c32 26 77 48 134 65c39 12 85 23 140 32l15 66c-15 0 -51 -5 -66 -5c-18 0 -39 2 -64 5c-53 7 -89 11 -106 11c-46 0 -79 -10 -99 -30c-9 -9 -18 -27 -29 -56c24 5 43 8 56 9c21 3 39 5 56 5c11 0 34 -2 45 -2z" />
    <glyph glyph-name="afii62779" unicode="&#x62e;" horiz-adv-x="420" arabic-form="final" 
d="M266 478l-64 33l-30 -57l64 -33zM420 115v67h-53c-19 0 -33 2 -41 7c-13 7 -19 22 -19 43v22c15 3 27 5 35 6c14 3 26 5 37 6l16 66c-28 -3 -52 -6 -79 -6c-20 0 -45 2 -75 7c-29 5 -56 8 -81 8c-46 0 -80 -11 -102 -33c-9 -10 -19 -28 -28 -53c29 7 47 10 52 11
c17 2 38 3 64 3c19 0 44 -1 64 -4c-44 -24 -71 -39 -80 -45c-33 -22 -59 -46 -76 -72c-22 -33 -33 -72 -33 -117c0 -51 13 -93 39 -124c23 -28 56 -48 101 -61c37 -11 84 -16 140 -16h23l88 62l-2 5h-71c-85 0 -153 12 -204 36c-59 29 -88 71 -88 127c0 36 15 68 44 96
c23 22 55 42 97 60c22 9 55 21 100 35c-2 -10 -3 -18 -4 -23c-3 -15 -4 -28 -4 -38c0 -55 24 -75 87 -75h53z" />
    <glyph glyph-name="afii62777" unicode="&#x62e;" horiz-adv-x="424" arabic-form="initial" 
d="M236 478l-64 33l-28 -57l63 -33zM424 115v67h-24c-11 3 -32 18 -64 46c-40 37 -69 62 -88 75c-36 26 -67 39 -93 39c-27 0 -50 -9 -68 -26c-13 -11 -22 -27 -29 -46c13 2 26 3 40 3c21 0 43 -4 64 -12c19 -6 39 -16 62 -31c19 -11 41 -27 67 -48h-319v-67h452z" />
    <glyph glyph-name="afii62778" unicode="&#x62e;" horiz-adv-x="424" arabic-form="medial" 
d="M236 478l-64 33l-28 -57l63 -33zM424 115v67h-24c-11 3 -32 18 -64 46c-40 37 -69 62 -88 75c-36 26 -67 39 -93 39c-27 0 -50 -9 -68 -26c-13 -11 -22 -27 -29 -46c13 2 26 3 40 3c21 0 43 -4 64 -12c19 -6 39 -16 62 -31c19 -11 41 -27 67 -48h-319v-67h452z" />
    <glyph glyph-name="afii57423" unicode="&#x62f;" horiz-adv-x="270" arabic-form="isolated" 
d="M270 115v67c0 63 -8 114 -23 153c-18 49 -50 84 -95 107l-6 -77c38 -11 65 -35 81 -70c13 -29 19 -66 19 -113h-151c-11 0 -20 2 -26 6c-7 5 -13 13 -16 24h-9c-5 -21 -7 -35 -7 -54c0 -24 29 -43 58 -43h175z" />
    <glyph glyph-name="afii62780" unicode="&#x62f;" horiz-adv-x="270" arabic-form="final" 
d="M270 115v67c0 63 -8 114 -23 153c-18 49 -50 84 -95 107l-6 -77c38 -11 65 -35 81 -70c13 -29 19 -66 19 -113h-151c-11 0 -20 2 -26 6c-7 5 -13 13 -16 24h-9c-5 -21 -7 -35 -7 -54c0 -24 29 -43 58 -43h175z" />
    <glyph glyph-name="afii57424" unicode="&#x630;" horiz-adv-x="270" arabic-form="isolated" 
d="M166 574l-65 33l-28 -56l62 -34zM270 115v67c0 63 -8 114 -23 153c-18 49 -50 84 -95 107l-6 -77c38 -11 65 -35 81 -70c13 -29 19 -66 19 -113h-151c-11 0 -20 2 -26 6c-7 5 -13 13 -16 24h-9c-5 -21 -7 -35 -7 -54c0 -24 29 -43 58 -43h175z" />
    <glyph glyph-name="afii62781" unicode="&#x630;" horiz-adv-x="270" arabic-form="final" 
d="M166 574l-65 33l-28 -56l62 -34zM270 115v67c0 63 -8 114 -23 153c-18 49 -50 84 -95 107l-6 -77c38 -11 65 -35 81 -70c13 -29 19 -66 19 -113h-151c-11 0 -20 2 -26 6c-7 5 -13 13 -16 24h-9c-5 -21 -7 -35 -7 -54c0 -24 29 -43 58 -43h175z" />
    <glyph glyph-name="afii57425" unicode="&#x631;" horiz-adv-x="391" arabic-form="isolated" 
d="M391 115v95c0 27 -6 52 -17 74c-11 20 -27 40 -48 60l-22 -61c18 -20 32 -39 41 -57c12 -23 18 -44 18 -65c0 -24 -12 -51 -35 -81c-23 -29 -51 -54 -84 -74c-36 -21 -71 -32 -104 -32c-31 0 -71 9 -104 16l-7 -16c19 -7 37 -13 55 -20c23 -9 42 -15 58 -19
c21 -5 40 -8 58 -8c19 0 44 10 75 29c32 19 59 43 80 70c24 30 36 60 36 89z" />
    <glyph glyph-name="afii62782" unicode="&#x631;" horiz-adv-x="391" arabic-form="final" 
d="M391 115v95c0 27 -6 52 -17 74c-11 20 -27 40 -48 60l-22 -61c18 -20 32 -39 41 -57c12 -23 18 -44 18 -65c0 -24 -12 -51 -35 -81c-23 -29 -51 -54 -84 -74c-36 -21 -71 -32 -104 -32c-31 0 -71 9 -104 16l-7 -16c19 -7 37 -13 55 -20c23 -9 42 -15 58 -19
c21 -5 40 -8 58 -8c19 0 44 10 75 29c32 19 59 43 80 70c24 30 36 60 36 89z" />
    <glyph glyph-name="afii57426" unicode="&#x632;" horiz-adv-x="391" arabic-form="isolated" 
d="M332 478l-64 33l-29 -57l63 -33zM391 115v95c0 27 -6 52 -17 74c-11 20 -27 40 -48 60l-22 -61c18 -20 32 -39 41 -57c12 -23 18 -44 18 -65c0 -24 -12 -51 -35 -81c-23 -29 -51 -54 -84 -74c-36 -21 -71 -32 -104 -32c-31 0 -71 9 -104 16l-7 -16c19 -7 37 -13 55 -20
c23 -9 42 -15 58 -19c21 -5 40 -8 58 -8c19 0 44 10 75 29c32 19 59 43 80 70c24 30 36 60 36 89z" />
    <glyph glyph-name="afii62783" unicode="&#x632;" horiz-adv-x="391" arabic-form="final" 
d="M332 478l-64 33l-29 -57l63 -33zM391 115v95c0 27 -6 52 -17 74c-11 20 -27 40 -48 60l-22 -61c18 -20 32 -39 41 -57c12 -23 18 -44 18 -65c0 -24 -12 -51 -35 -81c-23 -29 -51 -54 -84 -74c-36 -21 -71 -32 -104 -32c-31 0 -71 9 -104 16l-7 -16c19 -7 37 -13 55 -20
c23 -9 42 -15 58 -19c21 -5 40 -8 58 -8c19 0 44 10 75 29c32 19 59 43 80 70c24 30 36 60 36 89z" />
    <glyph glyph-name="afii57427" unicode="&#x633;" horiz-adv-x="657" arabic-form="isolated" 
d="M657 115v93c0 31 -3 55 -9 72c-3 7 -10 21 -22 41l-26 -43c10 -11 18 -22 24 -33c8 -15 12 -28 12 -41c0 -12 -7 -20 -19 -20c-19 0 -34 6 -45 19c-10 11 -18 30 -24 55l-6 37l-15 -23c4 -19 5 -32 5 -48c0 -13 -4 -23 -13 -30c-11 -8 -28 -12 -53 -12h-48
c0 41 -3 72 -10 95c-5 17 -14 36 -27 57l-32 -80c14 -17 25 -35 32 -53c10 -24 15 -49 15 -75c0 -39 -24 -69 -73 -90c-40 -17 -85 -26 -135 -26c-85 0 -133 34 -133 98c0 36 9 73 45 149l-16 7c-14 -29 -24 -51 -29 -65c-19 -47 -31 -93 -31 -138c0 -41 15 -71 45 -91
c28 -19 68 -28 120 -28c58 0 106 11 143 32c31 17 54 41 69 70c11 23 17 46 17 71h48c23 0 41 2 53 7c9 3 18 9 29 19c25 -19 47 -26 78 -26h31z" />
    <glyph glyph-name="afii62786" unicode="&#x633;" horiz-adv-x="657" arabic-form="final" 
d="M657 115v93c0 31 -3 55 -9 72c-3 7 -10 21 -22 41l-26 -43c10 -11 18 -22 24 -33c8 -15 12 -28 12 -41c0 -12 -7 -20 -19 -20c-19 0 -34 6 -45 19c-10 11 -18 30 -24 55l-6 37l-15 -23c4 -19 5 -32 5 -48c0 -13 -4 -23 -13 -30c-11 -8 -28 -12 -53 -12h-48
c0 41 -3 72 -10 95c-5 17 -14 36 -27 57l-32 -80c14 -17 25 -35 32 -53c10 -24 15 -49 15 -75c0 -39 -24 -69 -73 -90c-40 -17 -85 -26 -135 -26c-85 0 -133 34 -133 98c0 36 9 73 45 149l-16 7c-14 -29 -24 -51 -29 -65c-19 -47 -31 -93 -31 -138c0 -41 15 -71 45 -91
c28 -19 68 -28 120 -28c58 0 106 11 143 32c31 17 54 41 69 70c11 23 17 46 17 71h48c23 0 41 2 53 7c9 3 18 9 29 19c25 -19 47 -26 78 -26h31z" />
    <glyph glyph-name="afii62784" unicode="&#x633;" horiz-adv-x="425" arabic-form="initial" 
d="M425 115v93c0 29 -3 53 -9 71c-4 12 -11 26 -22 42l-25 -43c11 -14 17 -23 19 -26c11 -16 16 -31 16 -46c0 -13 -9 -22 -24 -22s-26 5 -35 14c-11 11 -19 32 -26 61l-9 36l-16 -23c4 -17 6 -32 6 -48c0 -15 -5 -26 -16 -33c-9 -6 -24 -9 -43 -9h-26c-17 0 -31 6 -43 18
c-10 9 -19 24 -27 43c-5 11 -11 29 -19 52l-16 -23c5 -19 6 -32 6 -48c0 -19 -8 -31 -23 -36c-9 -4 -24 -6 -45 -6h-76v-67h76c48 0 61 5 85 24c13 -8 24 -13 33 -16c14 -5 27 -8 40 -8h26c23 0 42 2 55 7c9 3 19 9 32 18c19 -16 43 -25 76 -25h30z" />
    <glyph glyph-name="afii62785" unicode="&#x633;" horiz-adv-x="425" arabic-form="medial" 
d="M425 115v93c0 29 -3 53 -9 71c-4 12 -11 26 -22 42l-25 -43c11 -14 17 -23 19 -26c11 -16 16 -31 16 -46c0 -13 -9 -22 -24 -22s-26 5 -35 14c-11 11 -19 32 -26 61l-9 36l-16 -23c4 -17 6 -32 6 -48c0 -15 -5 -26 -16 -33c-9 -6 -24 -9 -43 -9h-26c-17 0 -31 6 -43 18
c-10 9 -19 24 -27 43c-5 11 -11 29 -19 52l-16 -23c5 -19 6 -32 6 -48c0 -19 -8 -31 -23 -36c-9 -4 -24 -6 -45 -6h-76v-67h76c48 0 61 5 85 24c13 -8 24 -13 33 -16c14 -5 27 -8 40 -8h26c23 0 42 2 55 7c9 3 19 9 32 18c19 -16 43 -25 76 -25h30z" />
    <glyph glyph-name="afii57428" unicode="&#x634;" horiz-adv-x="657" arabic-form="isolated" 
d="M549 539l-64 33l-28 -56l62 -34zM626 469l-64 33l-30 -56l64 -33zM536 434l-64 33l-28 -57l63 -32zM657 115v93c0 31 -3 55 -9 72c-3 7 -10 21 -22 41l-26 -43c10 -11 18 -22 24 -33c8 -15 12 -28 12 -41c0 -12 -7 -20 -19 -20c-19 0 -34 6 -45 19c-10 11 -18 30 -24 55
l-6 37l-15 -23c4 -19 5 -32 5 -48c0 -13 -4 -23 -13 -30c-11 -8 -28 -12 -53 -12h-48c0 41 -3 72 -10 95c-5 17 -14 36 -27 57l-32 -80c14 -17 25 -35 32 -53c10 -24 15 -49 15 -75c0 -39 -24 -69 -73 -90c-40 -17 -85 -26 -135 -26c-85 0 -133 34 -133 98c0 36 9 73 45 149
l-16 7c-14 -29 -24 -51 -29 -65c-19 -47 -31 -93 -31 -138c0 -41 15 -71 45 -91c28 -19 68 -28 120 -28c58 0 106 11 143 32c31 17 54 41 69 70c11 23 17 46 17 71h48c23 0 41 2 53 7c9 3 18 9 29 19c25 -19 47 -26 78 -26h31z" />
    <glyph glyph-name="afii62789" unicode="&#x634;" horiz-adv-x="657" arabic-form="final" 
d="M549 539l-64 33l-28 -56l62 -34zM626 469l-64 33l-30 -56l64 -33zM536 434l-64 33l-28 -57l63 -32zM657 115v93c0 31 -3 55 -9 72c-3 7 -10 21 -22 41l-26 -43c10 -11 18 -22 24 -33c8 -15 12 -28 12 -41c0 -12 -7 -20 -19 -20c-19 0 -34 6 -45 19c-10 11 -18 30 -24 55
l-6 37l-15 -23c4 -19 5 -32 5 -48c0 -13 -4 -23 -13 -30c-11 -8 -28 -12 -53 -12h-48c0 41 -3 72 -10 95c-5 17 -14 36 -27 57l-32 -80c14 -17 25 -35 32 -53c10 -24 15 -49 15 -75c0 -39 -24 -69 -73 -90c-40 -17 -85 -26 -135 -26c-85 0 -133 34 -133 98c0 36 9 73 45 149
l-16 7c-14 -29 -24 -51 -29 -65c-19 -47 -31 -93 -31 -138c0 -41 15 -71 45 -91c28 -19 68 -28 120 -28c58 0 106 11 143 32c31 17 54 41 69 70c11 23 17 46 17 71h48c23 0 41 2 53 7c9 3 18 9 29 19c25 -19 47 -26 78 -26h31z" />
    <glyph glyph-name="afii62787" unicode="&#x634;" horiz-adv-x="425" arabic-form="initial" 
d="M313 539l-64 33l-29 -56l63 -34zM390 469l-65 33l-29 -56l63 -33zM300 434l-64 33l-29 -57l63 -32zM425 115v93c0 29 -3 53 -9 71c-4 12 -11 26 -22 42l-25 -43c11 -14 17 -23 19 -26c11 -16 16 -31 16 -46c0 -13 -9 -22 -24 -22s-26 5 -35 14c-11 11 -19 32 -26 61
l-9 36l-16 -23c4 -17 6 -32 6 -48c0 -15 -5 -26 -16 -33c-9 -6 -24 -9 -43 -9h-26c-17 0 -31 6 -43 18c-10 9 -19 24 -27 43c-5 11 -11 29 -19 52l-16 -23c5 -19 6 -32 6 -48c0 -19 -8 -31 -23 -36c-9 -4 -24 -6 -45 -6h-76v-67h76c48 0 61 5 85 24c13 -8 24 -13 33 -16
c14 -5 27 -8 40 -8h26c23 0 42 2 55 7c9 3 19 9 32 18c19 -16 43 -25 76 -25h30z" />
    <glyph glyph-name="afii62788" unicode="&#x634;" horiz-adv-x="425" arabic-form="medial" 
d="M313 539l-64 33l-29 -56l63 -34zM390 469l-65 33l-29 -56l63 -33zM300 434l-64 33l-29 -57l63 -32zM425 115v93c0 29 -3 53 -9 71c-4 12 -11 26 -22 42l-25 -43c11 -14 17 -23 19 -26c11 -16 16 -31 16 -46c0 -13 -9 -22 -24 -22s-26 5 -35 14c-11 11 -19 32 -26 61
l-9 36l-16 -23c4 -17 6 -32 6 -48c0 -15 -5 -26 -16 -33c-9 -6 -24 -9 -43 -9h-26c-17 0 -31 6 -43 18c-10 9 -19 24 -27 43c-5 11 -11 29 -19 52l-16 -23c5 -19 6 -32 6 -48c0 -19 -8 -31 -23 -36c-9 -4 -24 -6 -45 -6h-76v-67h76c48 0 61 5 85 24c13 -8 24 -13 33 -16
c14 -5 27 -8 40 -8h26c23 0 42 2 55 7c9 3 19 9 32 18c19 -16 43 -25 76 -25h30z" />
    <glyph glyph-name="afii57429" unicode="&#x635;" horiz-adv-x="878" arabic-form="isolated" 
d="M878 115v98c0 35 -8 61 -24 80c-17 21 -44 31 -80 31c-23 0 -45 -3 -64 -9c-17 -6 -37 -16 -58 -30c-7 -5 -29 -20 -68 -47c-25 -19 -50 -32 -73 -41c-27 -10 -55 -15 -86 -15h-7c0 41 -3 72 -10 95c-5 17 -14 36 -27 57l-32 -80c14 -17 25 -35 32 -53
c10 -24 15 -49 15 -75c0 -39 -24 -69 -73 -90c-40 -17 -85 -26 -135 -26c-85 0 -133 34 -133 98c0 36 9 73 45 149l-16 7c-14 -29 -24 -51 -29 -65c-19 -47 -31 -93 -31 -138c0 -41 15 -71 45 -91c28 -19 68 -28 120 -28c76 0 132 17 169 51c30 27 49 67 56 122h464z
M815 212c0 -20 -31 -30 -82 -30h-180l57 30c25 13 46 23 62 29c23 8 44 12 63 12c43 0 80 -14 80 -41z" />
    <glyph glyph-name="afii62792" unicode="&#x635;" horiz-adv-x="878" arabic-form="final" 
d="M878 115v98c0 35 -8 61 -24 80c-17 21 -44 31 -80 31c-23 0 -45 -3 -64 -9c-17 -6 -37 -16 -58 -30c-7 -5 -29 -20 -68 -47c-25 -19 -50 -32 -73 -41c-27 -10 -55 -15 -86 -15h-7c0 41 -3 72 -10 95c-5 17 -14 36 -27 57l-32 -80c14 -17 25 -35 32 -53
c10 -24 15 -49 15 -75c0 -39 -24 -69 -73 -90c-40 -17 -85 -26 -135 -26c-85 0 -133 34 -133 98c0 36 9 73 45 149l-16 7c-14 -29 -24 -51 -29 -65c-19 -47 -31 -93 -31 -138c0 -41 15 -71 45 -91c28 -19 68 -28 120 -28c76 0 132 17 169 51c30 27 49 67 56 122h464z
M815 212c0 -20 -31 -30 -82 -30h-180l57 30c25 13 46 23 62 29c23 8 44 12 63 12c43 0 80 -14 80 -41z" />
    <glyph glyph-name="afii62790" unicode="&#x635;" horiz-adv-x="677" arabic-form="initial" 
d="M677 115v98c0 35 -8 61 -25 80c-18 21 -45 31 -80 31c-23 0 -44 -3 -64 -9c-17 -6 -35 -16 -56 -30c-9 -5 -32 -21 -69 -47c-23 -17 -51 -30 -83 -41c-29 -10 -54 -15 -76 -15c-23 0 -43 10 -60 31c-16 19 -29 47 -38 82l-16 -23c4 -19 6 -32 6 -48c0 -19 -8 -31 -23 -36
c-9 -4 -24 -6 -45 -6h-76v-67h76c48 0 62 5 85 24c13 -8 25 -14 34 -17c13 -5 27 -7 40 -7h470zM613 212c0 -20 -25 -30 -81 -30h-180l87 45c37 17 69 26 95 26c41 0 79 -14 79 -41z" />
    <glyph glyph-name="afii62791" unicode="&#x635;" horiz-adv-x="677" arabic-form="medial" 
d="M677 115v98c0 35 -8 61 -25 80c-18 21 -45 31 -80 31c-23 0 -44 -3 -64 -9c-17 -6 -35 -16 -56 -30c-9 -5 -32 -21 -69 -47c-23 -17 -51 -30 -83 -41c-29 -10 -54 -15 -76 -15c-23 0 -43 10 -60 31c-16 19 -29 47 -38 82l-16 -23c4 -19 6 -32 6 -48c0 -19 -8 -31 -23 -36
c-9 -4 -24 -6 -45 -6h-76v-67h76c48 0 62 5 85 24c13 -8 25 -14 34 -17c13 -5 27 -7 40 -7h470zM613 212c0 -20 -25 -30 -81 -30h-180l87 45c37 17 69 26 95 26c41 0 79 -14 79 -41z" />
    <glyph glyph-name="afii57430" unicode="&#x636;" horiz-adv-x="878" arabic-form="isolated" 
d="M619 439l-64 33l-30 -57l63 -33zM878 115v98c0 35 -8 61 -24 80c-17 21 -44 31 -80 31c-23 0 -45 -3 -64 -9c-17 -6 -37 -16 -58 -30c-7 -5 -29 -20 -68 -47c-25 -19 -50 -32 -73 -41c-27 -10 -55 -15 -86 -15h-7c0 41 -3 72 -10 95c-5 17 -14 36 -27 57l-32 -80
c14 -17 25 -35 32 -53c10 -24 15 -49 15 -75c0 -39 -24 -69 -73 -90c-40 -17 -85 -26 -135 -26c-85 0 -133 34 -133 98c0 36 9 73 45 149l-16 7c-14 -29 -24 -51 -29 -65c-19 -47 -31 -93 -31 -138c0 -41 15 -71 45 -91c28 -19 68 -28 120 -28c76 0 132 17 169 51
c30 27 49 67 56 122h464zM815 212c0 -20 -31 -30 -82 -30h-180l57 30c25 13 46 23 62 29c23 8 44 12 63 12c43 0 80 -14 80 -41z" />
    <glyph glyph-name="afii62795" unicode="&#x636;" horiz-adv-x="878" arabic-form="final" 
d="M619 439l-64 33l-30 -57l63 -33zM878 115v98c0 35 -8 61 -24 80c-17 21 -44 31 -80 31c-23 0 -45 -3 -64 -9c-17 -6 -37 -16 -58 -30c-7 -5 -29 -20 -68 -47c-25 -19 -50 -32 -73 -41c-27 -10 -55 -15 -86 -15h-7c0 41 -3 72 -10 95c-5 17 -14 36 -27 57l-32 -80
c14 -17 25 -35 32 -53c10 -24 15 -49 15 -75c0 -39 -24 -69 -73 -90c-40 -17 -85 -26 -135 -26c-85 0 -133 34 -133 98c0 36 9 73 45 149l-16 7c-14 -29 -24 -51 -29 -65c-19 -47 -31 -93 -31 -138c0 -41 15 -71 45 -91c28 -19 68 -28 120 -28c76 0 132 17 169 51
c30 27 49 67 56 122h464zM815 212c0 -20 -31 -30 -82 -30h-180l57 30c25 13 46 23 62 29c23 8 44 12 63 12c43 0 80 -14 80 -41z" />
    <glyph glyph-name="afii62793" unicode="&#x636;" horiz-adv-x="677" arabic-form="initial" 
d="M428 439l-64 33l-29 -57l64 -33zM677 115v98c0 35 -8 61 -25 80c-18 21 -45 31 -80 31c-23 0 -44 -3 -64 -9c-17 -6 -35 -16 -56 -30c-9 -5 -32 -21 -69 -47c-23 -17 -51 -30 -83 -41c-29 -10 -54 -15 -76 -15c-23 0 -43 10 -60 31c-16 19 -29 47 -38 82l-16 -23
c4 -19 6 -32 6 -48c0 -19 -8 -31 -23 -36c-9 -4 -24 -6 -45 -6h-76v-67h76c48 0 62 5 85 24c13 -8 25 -14 34 -17c13 -5 27 -7 40 -7h470zM613 212c0 -20 -25 -30 -81 -30h-180l87 45c37 17 69 26 95 26c41 0 79 -14 79 -41z" />
    <glyph glyph-name="afii62794" unicode="&#x636;" horiz-adv-x="677" arabic-form="medial" 
d="M428 439l-64 33l-29 -57l64 -33zM677 115v98c0 35 -8 61 -25 80c-18 21 -45 31 -80 31c-23 0 -44 -3 -64 -9c-17 -6 -35 -16 -56 -30c-9 -5 -32 -21 -69 -47c-23 -17 -51 -30 -83 -41c-29 -10 -54 -15 -76 -15c-23 0 -43 10 -60 31c-16 19 -29 47 -38 82l-16 -23
c4 -19 6 -32 6 -48c0 -19 -8 -31 -23 -36c-9 -4 -24 -6 -45 -6h-76v-67h76c48 0 62 5 85 24c13 -8 25 -14 34 -17c13 -5 27 -7 40 -7h470zM613 212c0 -20 -25 -30 -81 -30h-180l87 45c37 17 69 26 95 26c41 0 79 -14 79 -41z" />
    <glyph glyph-name="afii57431" unicode="&#x637;" horiz-adv-x="465" arabic-form="isolated" 
d="M465 115v98c0 35 -8 61 -23 80c-18 21 -44 31 -79 31c-28 0 -61 -9 -100 -27c-13 -6 -42 -22 -87 -49c3 17 5 30 7 38c3 23 5 43 5 62c0 43 -12 114 -31 175l5 -2c8 -3 13 -4 15 -4c3 11 6 20 7 27s3 25 6 52c-19 1 -35 5 -47 10c-15 7 -24 16 -28 29
c-13 -28 -20 -56 -23 -87l24 -13c7 -25 12 -46 16 -63c8 -33 14 -62 18 -86c5 -34 8 -65 8 -93c0 -23 -7 -51 -16 -74c-23 -14 -43 -24 -60 -29c-15 -5 -32 -7 -50 -7l-60 -1v-67h493zM404 212c0 -20 -31 -30 -93 -30h-170c18 11 36 21 53 30c23 12 44 22 65 29
c25 8 46 12 65 12c52 0 80 -14 80 -41z" />
    <glyph glyph-name="afii62798" unicode="&#x637;" horiz-adv-x="465" arabic-form="final" 
d="M465 115v98c0 35 -8 61 -23 80c-18 21 -44 31 -79 31c-28 0 -61 -9 -100 -27c-13 -6 -42 -22 -87 -49c3 17 5 30 7 38c3 23 5 43 5 62c0 43 -12 114 -31 175l5 -2c8 -3 13 -4 15 -4c3 11 6 20 7 27s3 25 6 52c-19 1 -35 5 -47 10c-15 7 -24 16 -28 29
c-13 -28 -20 -56 -23 -87l24 -13c7 -25 12 -46 16 -63c8 -33 14 -62 18 -86c5 -34 8 -65 8 -93c0 -23 -7 -51 -16 -74c-23 -14 -43 -24 -60 -29c-15 -5 -32 -7 -50 -7l-60 -1v-67h493zM404 212c0 -20 -31 -30 -93 -30h-170c18 11 36 21 53 30c23 12 44 22 65 29
c25 8 46 12 65 12c52 0 80 -14 80 -41z" />
    <glyph glyph-name="afii62796" unicode="&#x637;" horiz-adv-x="465" arabic-form="initial" 
d="M465 115v98c0 35 -8 61 -23 80c-18 21 -44 31 -79 31c-28 0 -61 -9 -100 -27c-13 -6 -42 -22 -87 -49c3 17 5 30 7 38c3 23 5 43 5 62c0 43 -12 114 -31 175l5 -2c8 -3 13 -4 15 -4c3 11 6 20 7 27s3 25 6 52c-19 1 -35 5 -47 10c-15 7 -24 16 -28 29
c-13 -28 -20 -56 -23 -87l24 -13c7 -25 12 -46 16 -63c8 -33 14 -62 18 -86c5 -34 8 -65 8 -93c0 -23 -7 -51 -16 -74c-23 -14 -43 -24 -60 -29c-15 -5 -32 -7 -50 -7l-60 -1v-67h493zM404 212c0 -20 -31 -30 -93 -30h-170c18 11 36 21 53 30c23 12 44 22 65 29
c25 8 46 12 65 12c52 0 80 -14 80 -41z" />
    <glyph glyph-name="afii62797" unicode="&#x637;" horiz-adv-x="465" arabic-form="medial" 
d="M465 115v98c0 35 -8 61 -23 80c-18 21 -44 31 -79 31c-28 0 -61 -9 -100 -27c-13 -6 -42 -22 -87 -49c3 17 5 30 7 38c3 23 5 43 5 62c0 43 -12 114 -31 175l5 -2c8 -3 13 -4 15 -4c3 11 6 20 7 27s3 25 6 52c-19 1 -35 5 -47 10c-15 7 -24 16 -28 29
c-13 -28 -20 -56 -23 -87l24 -13c7 -25 12 -46 16 -63c8 -33 14 -62 18 -86c5 -34 8 -65 8 -93c0 -23 -7 -51 -16 -74c-23 -14 -43 -24 -60 -29c-15 -5 -32 -7 -50 -7l-60 -1v-67h493zM404 212c0 -20 -31 -30 -93 -30h-170c18 11 36 21 53 30c23 12 44 22 65 29
c25 8 46 12 65 12c52 0 80 -14 80 -41z" />
    <glyph glyph-name="afii57432" unicode="&#x638;" horiz-adv-x="465" arabic-form="isolated" 
d="M359 478l-65 33l-28 -57l63 -33zM465 115v98c0 35 -8 61 -23 80c-18 21 -44 31 -79 31c-28 0 -61 -9 -100 -27c-13 -6 -42 -22 -87 -49c3 17 5 30 7 38c3 23 5 43 5 62c0 43 -12 114 -31 175l5 -2c8 -3 13 -4 15 -4c3 11 6 20 7 27s3 25 6 52c-19 1 -35 5 -47 10
c-15 7 -24 16 -28 29c-13 -28 -20 -56 -23 -87l24 -13c7 -25 12 -46 16 -63c8 -33 14 -62 18 -86c5 -34 8 -65 8 -93c0 -23 -7 -51 -16 -74c-23 -14 -43 -24 -60 -29c-15 -5 -32 -7 -50 -7l-60 -1v-67h493zM404 212c0 -20 -31 -30 -93 -30h-170c18 11 36 21 53 30
c23 12 44 22 65 29c25 8 46 12 65 12c52 0 80 -14 80 -41z" />
    <glyph glyph-name="afii62801" unicode="&#x638;" horiz-adv-x="465" arabic-form="final" 
d="M359 478l-65 33l-28 -57l63 -33zM465 115v98c0 35 -8 61 -23 80c-18 21 -44 31 -79 31c-28 0 -61 -9 -100 -27c-13 -6 -42 -22 -87 -49c3 17 5 30 7 38c3 23 5 43 5 62c0 43 -12 114 -31 175l5 -2c8 -3 13 -4 15 -4c3 11 6 20 7 27s3 25 6 52c-19 1 -35 5 -47 10
c-15 7 -24 16 -28 29c-13 -28 -20 -56 -23 -87l24 -13c7 -25 12 -46 16 -63c8 -33 14 -62 18 -86c5 -34 8 -65 8 -93c0 -23 -7 -51 -16 -74c-23 -14 -43 -24 -60 -29c-15 -5 -32 -7 -50 -7l-60 -1v-67h493zM404 212c0 -20 -31 -30 -93 -30h-170c18 11 36 21 53 30
c23 12 44 22 65 29c25 8 46 12 65 12c52 0 80 -14 80 -41z" />
    <glyph glyph-name="afii62799" unicode="&#x638;" horiz-adv-x="465" arabic-form="initial" 
d="M359 478l-65 33l-28 -57l63 -33zM465 115v98c0 35 -8 61 -23 80c-18 21 -44 31 -79 31c-28 0 -61 -9 -100 -27c-13 -6 -42 -22 -87 -49c3 17 5 30 7 38c3 23 5 43 5 62c0 43 -12 114 -31 175l5 -2c8 -3 13 -4 15 -4c3 11 6 20 7 27s3 25 6 52c-19 1 -35 5 -47 10
c-15 7 -24 16 -28 29c-13 -28 -20 -56 -23 -87l24 -13c7 -25 12 -46 16 -63c8 -33 14 -62 18 -86c5 -34 8 -65 8 -93c0 -23 -7 -51 -16 -74c-23 -14 -43 -24 -60 -29c-15 -5 -32 -7 -50 -7l-60 -1v-67h493zM404 212c0 -20 -31 -30 -93 -30h-170c18 11 36 21 53 30
c23 12 44 22 65 29c25 8 46 12 65 12c52 0 80 -14 80 -41z" />
    <glyph glyph-name="afii62800" unicode="&#x638;" horiz-adv-x="465" arabic-form="medial" 
d="M359 478l-65 33l-28 -57l63 -33zM465 115v98c0 35 -8 61 -23 80c-18 21 -44 31 -79 31c-28 0 -61 -9 -100 -27c-13 -6 -42 -22 -87 -49c3 17 5 30 7 38c3 23 5 43 5 62c0 43 -12 114 -31 175l5 -2c8 -3 13 -4 15 -4c3 11 6 20 7 27s3 25 6 52c-19 1 -35 5 -47 10
c-15 7 -24 16 -28 29c-13 -28 -20 -56 -23 -87l24 -13c7 -25 12 -46 16 -63c8 -33 14 -62 18 -86c5 -34 8 -65 8 -93c0 -23 -7 -51 -16 -74c-23 -14 -43 -24 -60 -29c-15 -5 -32 -7 -50 -7l-60 -1v-67h493zM404 212c0 -20 -31 -30 -93 -30h-170c18 11 36 21 53 30
c23 12 44 22 65 29c25 8 46 12 65 12c52 0 80 -14 80 -41z" />
    <glyph glyph-name="afii57433" unicode="&#x639;" horiz-adv-x="436" arabic-form="isolated" 
d="M412 -104v4c-24 -1 -49 -2 -73 -2c-57 0 -105 3 -142 9c-46 7 -81 20 -105 39c-27 21 -41 50 -41 86c0 35 16 69 49 100c26 23 63 47 112 70c23 11 62 27 117 48l16 61c-30 -7 -59 -16 -86 -27c-25 -11 -50 -23 -76 -36c-32 5 -61 13 -86 25c-30 14 -45 29 -45 45
c0 15 13 27 39 38c21 8 49 14 84 19c27 3 53 5 78 5c-19 15 -35 26 -48 32c-19 11 -36 16 -53 16c-38 0 -70 -16 -97 -47c-23 -26 -35 -53 -35 -81c0 -31 11 -56 32 -76c10 -9 27 -19 52 -32c-18 -19 -31 -32 -38 -40c-15 -19 -26 -39 -35 -60c-10 -26 -15 -55 -15 -88
c0 -53 18 -93 53 -121c28 -23 68 -39 119 -46c29 -5 71 -7 126 -7z" />
    <glyph glyph-name="afii62804" unicode="&#x639;" horiz-adv-x="360" arabic-form="final" 
d="M388 -107l-1 3c-53 0 -95 2 -126 5c-59 7 -105 19 -138 38c-45 24 -67 58 -67 102c0 19 7 40 22 61c12 17 28 34 49 52c15 13 33 25 52 38c25 -56 66 -77 145 -77h36v67h-36c-40 0 -63 13 -92 48c6 5 13 11 22 18c10 9 15 20 15 33c0 19 -9 35 -27 48
c-16 11 -35 16 -58 16c-33 0 -57 -12 -71 -37c-7 -11 -13 -30 -18 -57h7c7 9 13 14 20 14c11 0 22 -9 26 -26c-27 -26 -46 -45 -57 -57c-22 -25 -38 -49 -49 -73c-14 -31 -21 -64 -21 -99c0 -54 18 -96 55 -126c29 -23 68 -39 119 -47c27 -5 65 -7 114 -7z" />
    <glyph glyph-name="afii62802" unicode="&#x639;" horiz-adv-x="420" arabic-form="initial" 
d="M376 236c-49 -15 -88 -25 -115 -31s-62 -12 -105 -18c-40 23 -69 59 -69 84c0 27 43 44 116 44c31 0 56 -6 92 -15l8 7c-21 25 -36 41 -45 48c-21 15 -47 23 -79 23c-81 0 -138 -46 -138 -109c0 -29 10 -62 26 -87h-95v-67h98c43 0 91 5 143 14c52 10 97 22 136 36z" />
    <glyph glyph-name="afii62803" unicode="&#x639;" horiz-adv-x="316" arabic-form="medial" 
d="M316 115v67h-58c-17 0 -46 10 -54 22c19 16 32 28 39 37c9 12 14 24 14 35c0 21 -12 37 -37 47c-18 7 -42 11 -72 11c-33 0 -57 -5 -71 -14c-15 -11 -23 -30 -23 -59v-23h8c9 11 16 14 25 14c11 0 20 -5 29 -16l16 -20c-21 -13 -43 -22 -64 -27c-18 -5 -38 -7 -60 -7h-36
v-67h36c35 0 66 5 93 16c23 8 43 20 60 36c9 -17 24 -31 45 -41c17 -7 35 -11 52 -11h58z" />
    <glyph glyph-name="afii57434" unicode="&#x63a;" horiz-adv-x="436" arabic-form="isolated" 
d="M195 556l-62 33l-31 -57l61 -32zM412 -104v4c-24 -1 -49 -2 -73 -2c-57 0 -105 3 -142 9c-46 7 -81 20 -105 39c-27 21 -41 50 -41 86c0 35 16 69 49 100c26 23 63 47 112 70c23 11 62 27 117 48l16 61c-30 -7 -59 -16 -86 -27c-25 -11 -50 -23 -76 -36
c-32 5 -61 13 -86 25c-30 14 -45 29 -45 45c0 15 13 27 39 38c21 8 49 14 84 19c27 3 53 5 78 5c-19 15 -35 26 -48 32c-19 11 -36 16 -53 16c-38 0 -70 -16 -97 -47c-23 -26 -35 -53 -35 -81c0 -31 11 -56 32 -76c10 -9 27 -19 52 -32c-18 -19 -31 -32 -38 -40
c-15 -19 -26 -39 -35 -60c-10 -26 -15 -55 -15 -88c0 -53 18 -93 53 -121c28 -23 68 -39 119 -46c29 -5 71 -7 126 -7z" />
    <glyph glyph-name="afii62807" unicode="&#x63a;" horiz-adv-x="360" arabic-form="final" 
d="M234 478l-63 33l-30 -57l63 -33zM388 -107l-1 3c-53 0 -95 2 -126 5c-59 7 -105 19 -138 38c-45 24 -67 58 -67 102c0 19 7 40 22 61c12 17 28 34 49 52c15 13 33 25 52 38c25 -56 66 -77 145 -77h36v67h-36c-40 0 -63 13 -92 48c6 5 13 11 22 18c10 9 15 20 15 33
c0 19 -9 35 -27 48c-16 11 -35 16 -58 16c-33 0 -57 -12 -71 -37c-7 -11 -13 -30 -18 -57h7c7 9 13 14 20 14c11 0 22 -9 26 -26c-27 -26 -46 -45 -57 -57c-22 -25 -38 -49 -49 -73c-14 -31 -21 -64 -21 -99c0 -54 18 -96 55 -126c29 -23 68 -39 119 -47c27 -5 65 -7 114 -7
z" />
    <glyph glyph-name="afii62805" unicode="&#x63a;" horiz-adv-x="420" arabic-form="initial" 
d="M212 478l-64 33l-29 -57l64 -33zM376 236c-49 -15 -88 -25 -115 -31s-62 -12 -105 -18c-40 23 -69 59 -69 84c0 27 43 44 116 44c31 0 56 -6 92 -15l8 7c-21 25 -36 41 -45 48c-21 15 -47 23 -79 23c-81 0 -138 -46 -138 -109c0 -29 10 -62 26 -87h-95v-67h98
c43 0 91 5 143 14c52 10 97 22 136 36z" />
    <glyph glyph-name="afii62806" unicode="&#x63a;" horiz-adv-x="316" arabic-form="medial" 
d="M182 478l-64 33l-29 -57l63 -33zM316 115v67h-58c-17 0 -46 10 -54 22c19 16 32 28 39 37c9 12 14 24 14 35c0 21 -12 37 -37 47c-18 7 -42 11 -72 11c-33 0 -57 -5 -71 -14c-15 -11 -23 -30 -23 -59v-23h8c9 11 16 14 25 14c11 0 20 -5 29 -16l16 -20
c-21 -13 -43 -22 -64 -27c-18 -5 -38 -7 -60 -7h-36v-67h36c35 0 66 5 93 16c23 8 43 20 60 36c9 -17 24 -31 45 -41c17 -7 35 -11 52 -11h58z" />
    <glyph glyph-name="afii57441" unicode="&#x641;" horiz-adv-x="631" arabic-form="isolated" 
d="M553 511l-62 34l-33 -57l63 -35zM631 115v113c0 47 -5 83 -15 108c-11 31 -30 46 -55 46c-23 0 -43 -16 -61 -47c-16 -27 -24 -53 -24 -77c0 -19 8 -34 24 -46c15 -11 37 -21 68 -30h-288c-164 0 -236 33 -236 102c0 19 5 38 28 83l-15 9c-5 -10 -12 -26 -21 -47
c-14 -31 -21 -58 -21 -81c0 -35 11 -63 34 -84c21 -18 51 -31 91 -40c33 -6 78 -9 133 -9h358zM590 233c-22 5 -37 10 -45 15c-11 7 -16 16 -16 28c0 20 8 31 27 31c12 0 21 -7 27 -22c5 -12 7 -29 7 -52z" />
    <glyph glyph-name="afii62810" unicode="&#x641;" horiz-adv-x="631" arabic-form="final" 
d="M553 511l-62 34l-33 -57l63 -35zM631 115v113c0 47 -5 83 -15 108c-11 31 -30 46 -55 46c-23 0 -43 -16 -61 -47c-16 -27 -24 -53 -24 -77c0 -19 8 -34 24 -46c15 -11 37 -21 68 -30h-288c-164 0 -236 33 -236 102c0 19 5 38 28 83l-15 9c-5 -10 -12 -26 -21 -47
c-14 -31 -21 -58 -21 -81c0 -35 11 -63 34 -84c21 -18 51 -31 91 -40c33 -6 78 -9 133 -9h358zM590 233c-22 5 -37 10 -45 15c-11 7 -16 16 -16 28c0 20 8 31 27 31c12 0 21 -7 27 -22c5 -12 7 -29 7 -52z" />
    <glyph glyph-name="afii62808" unicode="&#x641;" horiz-adv-x="214" arabic-form="initial" 
d="M162 548l-64 32l-29 -56l63 -33zM214 115v101c0 56 -7 104 -21 145c-17 50 -42 75 -74 75c-23 0 -42 -15 -57 -46c-13 -27 -19 -59 -19 -95c0 -20 7 -36 20 -47c12 -9 27 -14 46 -14c10 0 21 1 32 4c7 2 18 5 31 10c5 -21 8 -43 8 -66h-208v-67h242zM150 317
c-12 -7 -26 -12 -38 -12c-23 0 -35 10 -35 31c0 16 11 29 24 29c10 0 20 -6 31 -19c9 -9 15 -19 18 -29z" />
    <glyph glyph-name="afii62809" unicode="&#x641;" horiz-adv-x="210" arabic-form="medial" 
d="M176 529l-57 36l-32 -55l55 -37zM210 115v134c0 37 -5 68 -16 95c-14 34 -34 51 -61 51c-23 0 -42 -14 -59 -41c-15 -25 -22 -51 -22 -78c0 -31 15 -53 46 -66c13 -5 42 -11 87 -18c-28 -8 -46 -10 -78 -10h-135v-67h238zM175 251c-27 2 -44 4 -51 7c-21 7 -32 20 -32 40
c0 15 12 28 27 28s28 -10 39 -29c5 -10 11 -25 17 -46z" />
    <glyph glyph-name="afii57442" unicode="&#x642;" horiz-adv-x="465" arabic-form="isolated" 
d="M420 513l-65 34l-29 -56l63 -34zM330 478l-64 33l-30 -57l64 -33zM465 94v77c0 46 -7 87 -22 122c-18 42 -42 63 -72 63c-24 0 -44 -15 -61 -46c-15 -27 -23 -55 -23 -84c0 -25 9 -44 27 -56c14 -11 33 -16 56 -16c20 0 40 6 59 15c5 -12 7 -21 7 -46
c0 -37 -24 -65 -72 -86c-42 -18 -91 -27 -146 -27c-52 0 -91 7 -118 22c-28 16 -42 41 -42 75c0 17 2 34 5 51c3 14 8 30 15 49c5 14 12 30 20 49l-17 7c-17 -31 -30 -63 -39 -94c-9 -34 -14 -66 -14 -97c0 -45 17 -78 51 -100c31 -21 76 -32 134 -32c74 0 133 12 178 37
c49 27 74 66 74 117zM404 239c-19 -7 -29 -11 -42 -11c-19 0 -37 10 -37 26c0 19 11 31 36 31c11 0 20 -5 27 -16c3 -3 9 -13 16 -30z" />
    <glyph glyph-name="afii62813" unicode="&#x642;" horiz-adv-x="465" arabic-form="final" 
d="M420 513l-65 34l-29 -56l63 -34zM330 478l-64 33l-30 -57l64 -33zM465 94v77c0 46 -7 87 -22 122c-18 42 -42 63 -72 63c-24 0 -44 -15 -61 -46c-15 -27 -23 -55 -23 -84c0 -25 9 -44 27 -56c14 -11 33 -16 56 -16c20 0 40 6 59 15c5 -12 7 -21 7 -46
c0 -37 -24 -65 -72 -86c-42 -18 -91 -27 -146 -27c-52 0 -91 7 -118 22c-28 16 -42 41 -42 75c0 17 2 34 5 51c3 14 8 30 15 49c5 14 12 30 20 49l-17 7c-17 -31 -30 -63 -39 -94c-9 -34 -14 -66 -14 -97c0 -45 17 -78 51 -100c31 -21 76 -32 134 -32c74 0 133 12 178 37
c49 27 74 66 74 117zM404 239c-19 -7 -29 -11 -42 -11c-19 0 -37 10 -37 26c0 19 11 31 36 31c11 0 20 -5 27 -16c3 -3 9 -13 16 -30z" />
    <glyph glyph-name="afii62811" unicode="&#x642;" horiz-adv-x="214" arabic-form="initial" 
d="M202 559l-65 33l-29 -56l63 -33zM112 524l-64 32l-29 -56l63 -32zM214 115v101c0 56 -7 104 -21 145c-17 50 -42 75 -74 75c-23 0 -42 -15 -57 -46c-13 -27 -19 -59 -19 -95c0 -20 7 -36 20 -47c12 -9 27 -14 46 -14c10 0 21 1 32 4c7 2 18 5 31 10c5 -21 8 -43 8 -66
h-208v-67h242zM150 317c-12 -7 -26 -12 -38 -12c-23 0 -35 10 -35 31c0 16 11 29 24 29c10 0 20 -6 31 -19c9 -9 15 -19 18 -29z" />
    <glyph glyph-name="afii62812" unicode="&#x642;" horiz-adv-x="210" arabic-form="medial" 
d="M194 549l-49 32l-34 -52l49 -32zM104 526l-46 31l-33 -52l48 -32zM210 115v134c0 37 -5 68 -16 95c-14 34 -34 51 -61 51c-23 0 -42 -14 -59 -41c-15 -25 -22 -51 -22 -78c0 -31 15 -53 46 -66c13 -5 42 -11 87 -18c-28 -8 -46 -10 -78 -10h-135v-67h238zM175 251
c-27 2 -44 4 -51 7c-21 7 -32 20 -32 40c0 15 12 28 27 28s28 -10 39 -29c5 -10 11 -25 17 -46z" />
    <glyph glyph-name="afii57443" unicode="&#x643;" horiz-adv-x="481" arabic-form="isolated" 
d="M338 353c0 36 -9 48 -37 48l-21 -3c-3 -1 -7 -1 -12 -1c-11 0 -21 5 -21 13c0 13 8 24 23 33c9 6 23 11 42 16l7 50c-25 -8 -49 -27 -72 -58c-23 -30 -34 -56 -34 -78c0 -16 11 -22 23 -22l28 2h16c12 0 22 -9 22 -20c0 -23 -50 -44 -109 -44c-5 0 -18 1 -38 3
c-9 1 -17 1 -23 1l-7 -9c23 -7 40 -11 52 -14c19 -4 36 -6 52 -6c69 0 109 32 109 89zM481 115v76l-46 306l18 -6c7 16 15 51 15 75l-43 15c-19 8 -29 20 -29 35l-5 4c-13 -31 -19 -61 -19 -96l21 -10l49 -332h-249c-43 0 -76 5 -99 14c-30 11 -45 30 -45 59
c0 20 5 38 22 78l-13 8c-11 -22 -19 -37 -22 -45c-12 -29 -18 -55 -18 -78c0 -38 14 -65 42 -81c27 -15 71 -22 133 -22h288z" />
    <glyph glyph-name="afii62816" unicode="&#x643;" horiz-adv-x="481" arabic-form="final" 
d="M338 353c0 36 -9 48 -37 48l-21 -3c-3 -1 -7 -1 -12 -1c-11 0 -21 5 -21 13c0 13 8 24 23 33c9 6 23 11 42 16l7 50c-25 -8 -49 -27 -72 -58c-23 -30 -34 -56 -34 -78c0 -16 11 -22 23 -22l28 2h16c12 0 22 -9 22 -20c0 -23 -50 -44 -109 -44c-5 0 -18 1 -38 3
c-9 1 -17 1 -23 1l-7 -9c23 -7 40 -11 52 -14c19 -4 36 -6 52 -6c69 0 109 32 109 89zM481 115v76l-46 306l18 -6c7 16 15 51 15 75l-43 15c-19 8 -29 20 -29 35l-5 4c-13 -31 -19 -61 -19 -96l21 -10l49 -332h-249c-43 0 -76 5 -99 14c-30 11 -45 30 -45 59
c0 20 5 38 22 78l-13 8c-11 -22 -19 -37 -22 -45c-12 -29 -18 -55 -18 -78c0 -38 14 -65 42 -81c27 -15 71 -22 133 -22h288z" />
    <glyph glyph-name="afii57410" unicode="&#x643;" horiz-adv-x="316" arabic-form="initial" 
d="M316 115v67c-20 38 -46 75 -77 110c-29 33 -64 64 -104 94c-11 7 -21 15 -32 24c-17 12 -25 21 -25 27s13 15 38 26c21 9 47 18 80 29l81 27v68l-110 -43c-50 -19 -85 -40 -105 -63c-22 -25 -33 -61 -33 -106c0 -7 8 -18 24 -31l47 -36l13 13c79 -48 121 -83 157 -139
h-298v-67h344z" />
    <glyph glyph-name="afii62815" unicode="&#x643;" horiz-adv-x="316" arabic-form="medial" 
d="M316 115v67c-20 38 -46 75 -77 110c-29 33 -64 64 -104 94c-11 7 -21 15 -32 24c-17 12 -25 21 -25 27s13 15 38 26c21 9 47 18 80 29l81 27v68l-110 -43c-50 -19 -85 -40 -105 -63c-22 -25 -33 -61 -33 -106c0 -7 8 -18 24 -31l47 -36l13 13c79 -48 121 -83 157 -139
h-298v-67h344z" />
    <glyph glyph-name="afii57444" unicode="&#x644;" horiz-adv-x="405" arabic-form="isolated" 
d="M405 163c0 29 -3 70 -9 124c-4 34 -10 78 -18 133c-7 47 -11 73 -12 78l22 -7c9 31 10 39 10 75c-5 3 -11 6 -18 9c-10 5 -19 9 -26 12c-12 4 -16 13 -19 33h-6c-15 -29 -22 -61 -22 -96l18 -8l13 -77c9 -57 17 -108 23 -155c8 -60 12 -103 12 -128
c0 -23 -21 -43 -62 -60c-37 -15 -78 -23 -122 -23c-83 0 -132 34 -132 98c0 17 3 34 8 51c4 15 10 31 19 49c6 14 14 30 24 47l-13 8c-13 -25 -24 -47 -33 -65c-11 -24 -20 -46 -25 -67c-6 -24 -9 -47 -9 -70c0 -40 15 -70 45 -91c28 -19 67 -28 117 -28c44 0 80 4 109 12
c33 9 59 25 77 47c19 24 29 57 29 99z" />
    <glyph glyph-name="afii62819" unicode="&#x644;" horiz-adv-x="405" arabic-form="final" 
d="M405 163c0 29 -3 70 -9 124c-4 34 -10 78 -18 133c-7 47 -11 73 -12 78l22 -7c9 31 10 39 10 75c-5 3 -11 6 -18 9c-10 5 -19 9 -26 12c-12 4 -16 13 -19 33h-6c-15 -29 -22 -61 -22 -96l18 -8l13 -77c9 -57 17 -108 23 -155c8 -60 12 -103 12 -128
c0 -23 -21 -43 -62 -60c-37 -15 -78 -23 -122 -23c-83 0 -132 34 -132 98c0 17 3 34 8 51c4 15 10 31 19 49c6 14 14 30 24 47l-13 8c-13 -25 -24 -47 -33 -65c-11 -24 -20 -46 -25 -67c-6 -24 -9 -47 -9 -70c0 -40 15 -70 45 -91c28 -19 67 -28 117 -28c44 0 80 4 109 12
c33 9 59 25 77 47c19 24 29 57 29 99z" />
    <glyph glyph-name="afii62817" unicode="&#x644;" horiz-adv-x="165" arabic-form="initial" 
d="M165 115v76l-46 306l20 -6c4 15 9 50 9 75l-39 15c-17 8 -25 20 -25 35l-6 4c-13 -31 -18 -61 -18 -96l20 -10l46 -332h-154v-67h193z" />
    <glyph glyph-name="afii62818" unicode="&#x644;" horiz-adv-x="165" arabic-form="medial" 
d="M165 115v76l-46 306l20 -6c4 15 9 50 9 75l-39 15c-17 8 -25 20 -25 35l-6 4c-13 -31 -18 -61 -18 -96l20 -10l46 -332h-154v-67h193z" />
    <glyph glyph-name="afii57445" unicode="&#x645;" horiz-adv-x="270" arabic-form="isolated" 
d="M270 115v67c-13 21 -23 35 -30 44c-13 17 -27 31 -40 42c-17 11 -33 17 -49 17c-23 0 -42 -9 -58 -28c-10 -12 -19 -28 -26 -47l17 -12c9 10 17 17 23 22c8 5 16 8 25 8c13 0 27 -5 40 -16c4 -3 14 -13 31 -30c-47 -5 -81 -10 -104 -17c-59 -17 -86 -49 -86 -116
c0 -7 5 -27 15 -61c5 -21 14 -52 27 -93c7 -21 14 -43 21 -65c7 27 9 39 9 59c0 50 -36 119 -36 170c0 19 20 33 61 43c33 9 71 13 114 13h46z" />
    <glyph glyph-name="afii62822" unicode="&#x645;" horiz-adv-x="270" arabic-form="final" 
d="M270 115v67c-13 21 -23 35 -30 44c-13 17 -27 31 -40 42c-17 11 -33 17 -49 17c-23 0 -42 -9 -58 -28c-10 -12 -19 -28 -26 -47l17 -12c9 10 17 17 23 22c8 5 16 8 25 8c13 0 27 -5 40 -16c4 -3 14 -13 31 -30c-47 -5 -81 -10 -104 -17c-59 -17 -86 -49 -86 -116
c0 -7 5 -27 15 -61c5 -21 14 -52 27 -93c7 -21 14 -43 21 -65c7 27 9 39 9 59c0 50 -36 119 -36 170c0 19 20 33 61 43c33 9 71 13 114 13h46z" />
    <glyph glyph-name="afii62820" unicode="&#x645;" horiz-adv-x="316" arabic-form="initial" 
d="M316 115v67c0 19 -8 43 -23 73c-11 21 -25 46 -42 74c-17 -4 -36 -14 -57 -29c-24 -17 -44 -37 -59 -60c-12 -17 -25 -31 -39 -40c-19 -12 -40 -18 -64 -18h-60v-67h62c60 0 85 12 114 49c20 -16 43 -29 68 -38c21 -7 41 -11 59 -11h41zM270 191l-3 -4
c-31 3 -69 21 -88 41c7 13 14 23 20 28c9 9 19 15 32 18c9 -13 17 -26 24 -38c7 -15 12 -30 15 -45z" />
    <glyph glyph-name="afii62821" unicode="&#x645;" horiz-adv-x="316" arabic-form="medial" 
d="M316 115v67c0 19 -8 43 -23 73c-11 21 -25 46 -42 74c-17 -4 -36 -14 -57 -29c-24 -17 -44 -37 -59 -60c-12 -17 -25 -31 -39 -40c-19 -12 -40 -18 -64 -18h-60v-67h62c60 0 85 12 114 49c20 -16 43 -29 68 -38c21 -7 41 -11 59 -11h41zM270 191l-3 -4
c-31 3 -69 21 -88 41c7 13 14 23 20 28c9 9 19 15 32 18c9 -13 17 -26 24 -38c7 -15 12 -30 15 -45z" />
    <glyph glyph-name="afii57446" unicode="&#x646;" horiz-adv-x="420" arabic-form="isolated" 
d="M276 414l-63 32l-28 -54l61 -34zM420 115v67c0 72 -8 109 -36 152l-32 -80c13 -15 22 -33 28 -53c9 -23 13 -48 13 -75c0 -39 -24 -69 -71 -90c-38 -17 -82 -26 -131 -26c-85 0 -133 34 -133 98c0 36 9 73 45 149l-16 7c-14 -29 -24 -51 -29 -65
c-19 -47 -31 -93 -31 -138c0 -41 15 -71 45 -91c28 -19 68 -28 120 -28c82 0 141 15 178 45c33 27 50 70 50 128z" />
    <glyph glyph-name="afii62825" unicode="&#x646;" horiz-adv-x="420" arabic-form="final" 
d="M276 414l-63 32l-28 -54l61 -34zM420 115v67c0 72 -8 109 -36 152l-32 -80c13 -15 22 -33 28 -53c9 -23 13 -48 13 -75c0 -39 -24 -69 -71 -90c-38 -17 -82 -26 -131 -26c-85 0 -133 34 -133 98c0 36 9 73 45 149l-16 7c-14 -29 -24 -51 -29 -65
c-19 -47 -31 -93 -31 -138c0 -41 15 -71 45 -91c28 -19 68 -28 120 -28c82 0 141 15 178 45c33 27 50 70 50 128z" />
    <glyph glyph-name="afii62823" unicode="&#x646;" horiz-adv-x="196" arabic-form="initial" 
d="M164 476l-64 32l-29 -56l63 -32zM196 115v95c0 46 -4 79 -11 99c-5 13 -17 32 -36 55l-30 -63c19 -21 32 -38 37 -49c7 -16 11 -39 11 -70h-195v-67h224z" />
    <glyph glyph-name="afii62824" unicode="&#x646;" horiz-adv-x="196" arabic-form="medial" 
d="M164 476l-64 32l-29 -56l63 -32zM196 115v95c0 46 -4 79 -11 99c-5 13 -17 32 -36 55l-30 -63c19 -21 32 -38 37 -49c7 -16 11 -39 11 -70h-195v-67h224z" />
    <glyph glyph-name="afii57447" unicode="&#x647;" horiz-adv-x="226" arabic-form="isolated" 
d="M210 229c0 24 -16 47 -47 68c-10 7 -38 22 -85 47l-24 -66l6 -2c-9 -21 -17 -41 -25 -61c-9 -23 -14 -44 -14 -63c0 -16 7 -28 22 -36c12 -8 28 -12 47 -12c49 0 83 14 101 43c13 18 19 45 19 82zM175 199c0 -7 -9 -14 -26 -23c-17 -8 -32 -12 -47 -12
c-24 0 -41 17 -41 42c0 9 4 19 11 30c3 3 10 11 21 24c14 -7 27 -14 39 -21c29 -17 43 -30 43 -40z" />
    <glyph glyph-name="afii62828" unicode="&#x6be;" horiz-adv-x="300" arabic-form="final" 
d="M300 115v67h-56c-9 0 -17 14 -24 41c-5 18 -11 45 -18 82l-12 67c-8 32 -13 62 -18 94c-8 -9 -14 -18 -19 -27c-6 -11 -9 -21 -9 -30c0 -4 4 -28 5 -33c-43 -20 -80 -44 -109 -71s-44 -52 -44 -75c0 -12 45 -21 105 -21c27 0 52 17 68 46c7 -38 15 -69 26 -92
c14 -32 30 -48 49 -48h56zM164 289c-15 -16 -30 -24 -45 -24c-25 0 -38 2 -49 7c19 28 42 43 86 60z" />
    <glyph glyph-name="afii57470" unicode="&#x647;" horiz-adv-x="360" arabic-form="initial" 
d="M308 180c0 22 -12 53 -37 93c-18 29 -43 63 -75 101c-26 31 -47 54 -64 70c-8 -15 -14 -25 -17 -32c-12 -22 -18 -36 -18 -41s9 -13 27 -26c-15 -4 -21 -8 -32 -28l-39 -67c-5 -11 -5 -11 -5 -22c0 -5 4 -11 11 -18c6 -5 13 -11 20 -16c-35 -8 -50 -12 -71 -12h-36v-67
h36c24 0 44 3 61 9c15 5 37 16 66 33c19 -12 42 -24 69 -37c29 -13 48 -20 59 -20c10 0 20 10 30 30c10 19 15 35 15 50zM171 265c0 -8 -3 -16 -10 -23c-6 -7 -15 -14 -26 -22c-31 18 -47 32 -47 43c0 23 25 40 49 40c12 0 21 -4 27 -11c5 -7 7 -16 7 -27zM265 176
c0 -7 -5 -12 -12 -12c-5 0 -14 3 -27 8c-16 8 -32 16 -47 24c19 12 30 35 30 62c13 -15 25 -28 34 -39c15 -20 22 -34 22 -43z" />
    <glyph glyph-name="afii62827" unicode="&#x6be;" horiz-adv-x="316" arabic-form="medial" 
d="M316 115v67h-173c35 18 56 31 63 39c13 15 19 33 19 56c0 32 -15 66 -31 66c-15 0 -32 -9 -49 -28c-15 -17 -29 -38 -44 -65c-11 -21 -21 -43 -30 -68h-99v-67h87l-1 -29c0 -43 16 -77 47 -103c26 -21 55 -32 86 -32c17 0 29 8 37 23c6 12 9 28 9 48c0 21 -7 41 -22 59
c-12 15 -26 26 -43 34h144zM186 248c0 -11 -9 -22 -28 -33c-17 -10 -37 -18 -60 -25c14 27 25 47 32 59c16 24 30 36 41 36c10 0 15 -12 15 -37zM202 29c0 -11 -11 -16 -23 -16c-33 0 -58 11 -75 34c-13 19 -20 42 -20 71c23 -4 47 -14 72 -30c31 -19 46 -38 46 -59z" />
    <glyph glyph-name="afii57448" unicode="&#x648;" horiz-adv-x="346" arabic-form="isolated" 
d="M346 138v44c0 37 -4 65 -12 86c-10 27 -26 40 -49 40c-22 0 -41 -13 -56 -40c-12 -23 -18 -47 -18 -74c0 -30 10 -51 30 -63c17 -11 43 -17 78 -17c-20 -28 -36 -48 -47 -60c-22 -24 -44 -43 -67 -56c-28 -16 -58 -24 -89 -24c-27 0 -61 11 -90 16l-6 -13
c17 -6 33 -12 50 -18c21 -7 39 -12 53 -14c17 -4 35 -6 52 -6c47 0 88 24 123 71c32 43 48 85 48 128zM321 180c-52 0 -73 13 -73 40c0 13 12 25 27 25c10 0 18 -4 25 -13c9 -9 16 -27 21 -52z" />
    <glyph glyph-name="afii62829" unicode="&#x648;" horiz-adv-x="346" arabic-form="final" 
d="M346 138v44c0 37 -4 65 -12 86c-10 27 -26 40 -49 40c-22 0 -41 -13 -56 -40c-12 -23 -18 -47 -18 -74c0 -30 10 -51 30 -63c17 -11 43 -17 78 -17c-20 -28 -36 -48 -47 -60c-22 -24 -44 -43 -67 -56c-28 -16 -58 -24 -89 -24c-27 0 -61 11 -90 16l-6 -13
c17 -6 33 -12 50 -18c21 -7 39 -12 53 -14c17 -4 35 -6 52 -6c47 0 88 24 123 71c32 43 48 85 48 128zM321 180c-52 0 -73 13 -73 40c0 13 12 25 27 25c10 0 18 -4 25 -13c9 -9 16 -27 21 -52z" />
    <glyph glyph-name="afii57449" unicode="&#x649;" horiz-adv-x="510" arabic-form="isolated" 
d="M484 313c0 35 -20 57 -55 57c-27 0 -53 -13 -80 -40c-22 -22 -41 -49 -57 -82c-14 -29 -21 -53 -21 -70c0 -27 20 -44 43 -44h91c15 0 21 -3 21 -12c0 -7 -14 -18 -43 -33s-61 -27 -96 -38c-41 -13 -77 -19 -108 -19c-83 0 -127 32 -127 95c0 39 17 92 50 149l-17 8
l-24 -48c-12 -24 -21 -48 -28 -71c-9 -29 -13 -57 -13 -84c0 -40 13 -70 40 -89c24 -18 59 -27 105 -27c90 0 161 16 213 47c57 34 86 84 86 149c0 17 -6 27 -19 29s-24 3 -33 3c-9 1 -22 1 -41 1h-31c-28 0 -38 6 -38 15c0 14 12 33 35 58c25 27 48 40 71 40
c27 0 54 -15 71 -39c1 8 5 28 5 45z" />
    <glyph glyph-name="afii62830" unicode="&#x649;" horiz-adv-x="471" arabic-form="final" 
d="M471 115v67h-68c-22 0 -43 -3 -63 -9c-27 -8 -48 -20 -63 -37c-19 -20 -29 -46 -29 -79c0 -17 13 -26 46 -26c9 0 49 -3 62 -3c20 0 26 -6 26 -14c0 -12 -17 -22 -52 -29c-29 -5 -62 -8 -99 -8c-55 0 -99 8 -131 23c-33 17 -49 42 -49 74c0 17 7 41 22 70
c9 17 19 33 29 50l-16 8c-25 -40 -41 -66 -47 -78c-17 -34 -25 -66 -25 -96c0 -38 18 -67 53 -88c33 -19 77 -28 133 -28c81 0 138 12 173 36c32 22 48 58 48 107c0 9 -4 16 -11 20c-4 2 -13 4 -26 6c-21 2 -34 3 -41 4c-6 1 -14 1 -25 1c-24 0 -36 4 -36 13
c0 12 40 16 121 16h68z" />
    <glyph glyph-name="afii57450" unicode="&#x64a;" horiz-adv-x="510" arabic-form="isolated" 
d="M484 313c0 35 -20 57 -55 57c-27 0 -53 -13 -80 -40c-22 -22 -41 -49 -57 -82c-14 -29 -21 -53 -21 -70c0 -27 20 -44 43 -44h91c15 0 21 -3 21 -12c0 -7 -14 -18 -43 -33s-61 -27 -96 -38c-41 -13 -77 -19 -108 -19c-83 0 -127 32 -127 95c0 39 17 92 50 149l-17 8
l-24 -48c-12 -24 -21 -48 -28 -71c-9 -29 -13 -57 -13 -84c0 -40 13 -70 40 -89c24 -18 59 -27 105 -27c90 0 161 16 213 47c57 34 86 84 86 149c0 17 -6 27 -19 29s-24 3 -33 3c-9 1 -22 1 -41 1h-31c-28 0 -38 6 -38 15c0 14 12 33 35 58c25 27 48 40 71 40
c27 0 54 -15 71 -39c1 8 5 28 5 45zM338 -75l-65 33l-29 -55l63 -34zM248 -109l-64 32l-29 -56l63 -33z" />
    <glyph glyph-name="afii62833" unicode="&#x64a;" horiz-adv-x="471" arabic-form="final" 
d="M471 115v67h-68c-22 0 -43 -3 -63 -9c-27 -8 -48 -20 -63 -37c-19 -20 -29 -46 -29 -79c0 -17 13 -26 46 -26c9 0 49 -3 62 -3c20 0 26 -6 26 -14c0 -12 -17 -22 -52 -29c-29 -5 -62 -8 -99 -8c-55 0 -99 8 -131 23c-33 17 -49 42 -49 74c0 17 7 41 22 70
c9 17 19 33 29 50l-16 8c-25 -40 -41 -66 -47 -78c-17 -34 -25 -66 -25 -96c0 -38 18 -67 53 -88c33 -19 77 -28 133 -28c81 0 138 12 173 36c32 22 48 58 48 107c0 9 -4 16 -11 20c-4 2 -13 4 -26 6c-21 2 -34 3 -41 4c-6 1 -14 1 -25 1c-24 0 -36 4 -36 13
c0 12 40 16 121 16h68zM309 -136l-45 31l-35 -37l44 -28zM228 -136l-44 31l-36 -37l45 -28z" />
    <glyph glyph-name="afii62831" unicode="&#x6cc;" horiz-adv-x="196" arabic-form="initial" 
d="M196 115v95c0 46 -4 79 -11 99c-5 13 -17 32 -36 55l-30 -63c19 -21 32 -38 37 -49c7 -16 11 -39 11 -70h-195v-67h224zM194 36l-65 33l-29 -56l63 -33zM103 1l-64 33l-28 -56l63 -33z" />
    <glyph glyph-name="afii62832" unicode="&#x6cc;" horiz-adv-x="196" arabic-form="medial" 
d="M196 115v95c0 46 -4 79 -11 99c-5 13 -17 32 -36 55l-30 -63c19 -21 32 -38 37 -49c7 -16 11 -39 11 -70h-195v-67h224zM194 36l-65 33l-29 -56l63 -33zM103 1l-64 33l-28 -56l63 -33z" />
    <glyph glyph-name="glyph1321" unicode="&#x66e;" horiz-adv-x="196" 
d="M196 115v95c0 46 -4 79 -11 99c-5 13 -17 32 -36 55l-30 -63c19 -21 32 -38 37 -49c7 -16 11 -39 11 -70h-195v-67h224z" />
    <glyph glyph-name="glyph1322" unicode="&#x66f;" horiz-adv-x="214" 
d="M214 115v101c0 56 -7 104 -21 145c-17 50 -42 75 -74 75c-23 0 -42 -15 -57 -46c-13 -27 -19 -59 -19 -95c0 -20 7 -36 20 -47c12 -9 27 -14 46 -14c10 0 21 1 32 4c7 2 18 5 31 10c5 -21 8 -43 8 -66h-208v-67h242zM150 317c-12 -7 -26 -12 -38 -12c-23 0 -35 10 -35 31
c0 16 11 29 24 29c10 0 20 -6 31 -19c9 -9 15 -19 18 -29z" />
    <glyph glyph-name="glyph1323" unicode="&#x66f;" horiz-adv-x="210" 
d="M210 115v134c0 37 -5 68 -16 95c-14 34 -34 51 -61 51c-23 0 -42 -14 -59 -41c-15 -25 -22 -51 -22 -78c0 -31 15 -53 46 -66c13 -5 42 -11 87 -18c-28 -8 -46 -10 -78 -10h-135v-67h238zM175 251c-27 2 -44 4 -51 7c-21 7 -32 20 -32 40c0 15 12 28 27 28s28 -10 39 -29
c5 -10 11 -25 17 -46z" />
    <glyph glyph-name="uni0671" unicode="&#x671;" horiz-adv-x="165" arabic-form="isolated" 
d="M132 214c0 26 -2 65 -7 117c-4 41 -9 88 -16 139c-6 52 -11 93 -15 122c-12 -24 -27 -51 -36 -75c4 -33 8 -65 11 -97c12 -107 23 -211 23 -266c0 -8 -1 -31 -4 -46l7 -4c13 23 22 39 26 50c7 19 11 39 11 60zM168 674c0 26 -11 39 -32 39c-30 0 -60 -21 -91 -62h-9
c-20 0 -30 -9 -30 -26c0 -14 6 -27 19 -39v7c-1 3 -1 5 -1 7c0 11 4 17 12 17h65c19 0 35 6 48 19c13 11 19 24 19 38zM133 674c0 -15 -12 -23 -35 -23h-32c23 25 41 38 55 38c8 0 12 -5 12 -15z" />
    <glyph glyph-name="uniFB51" unicode="&#x671;" horiz-adv-x="184" arabic-form="final" 
d="M184 115v67h-55c-9 0 -17 6 -24 17c-9 13 -16 43 -21 89c-2 101 -4 165 -7 192c-4 43 -11 81 -22 112l-48 -76c10 -9 18 -20 24 -32c9 -21 14 -48 18 -111c2 -31 4 -60 5 -89c5 -73 13 -123 32 -148c11 -14 25 -21 43 -21h55zM137 674c0 26 -11 39 -32 39
c-30 0 -60 -21 -91 -62h-9c-20 0 -30 -9 -30 -26c0 -14 6 -27 19 -39v7c-1 3 -1 5 -1 7c0 11 4 17 12 17h65c19 0 35 6 48 19c13 11 19 24 19 38zM102 674c0 -15 -12 -23 -35 -23h-32c23 25 41 38 55 38c8 0 12 -5 12 -15z" />
    <glyph glyph-name="glyph1343" unicode="&#x672;" horiz-adv-x="184" 
d="M184 115v67h-55c-9 0 -17 6 -24 17c-9 13 -16 43 -21 89c-2 101 -4 165 -7 192c-4 43 -11 81 -22 112l-48 -76c10 -9 18 -20 24 -32c9 -21 14 -48 18 -111c2 -31 4 -60 5 -89c5 -73 13 -123 32 -148c11 -14 25 -21 43 -21h55zM127 648c-10 -4 -19 -6 -27 -6
c-7 0 -16 3 -29 9c-14 6 -21 12 -21 17c0 8 9 12 26 12c9 0 18 -4 25 -12c6 11 9 19 9 24c0 13 -6 20 -18 20s-26 -8 -41 -25c-14 -14 -21 -25 -21 -34s9 -18 27 -27c-5 -4 -10 -6 -16 -6c-9 0 -23 9 -34 9c-7 0 -16 -9 -27 -27l4 -6c7 10 12 15 17 15s25 -9 33 -9
c2 0 4 0 6 1c13 4 30 10 51 17c24 8 36 17 36 28z" />
    <glyph glyph-name="glyph1345" unicode="&#x673;" horiz-adv-x="184" 
d="M184 115v67h-55c-9 0 -17 6 -24 17c-9 13 -16 43 -21 89c-2 101 -4 165 -7 192c-4 43 -11 81 -22 112l-48 -76c10 -9 18 -20 24 -32c9 -21 14 -48 18 -111c2 -31 4 -60 5 -89c5 -73 13 -123 32 -148c11 -14 25 -21 43 -21h55zM143 -16c-10 -4 -19 -6 -27 -6
c-7 0 -16 3 -29 9c-14 6 -21 12 -21 17c0 8 9 12 26 12c9 0 18 -4 25 -12c6 11 9 19 9 24c0 13 -6 20 -18 20s-26 -8 -41 -25c-14 -14 -21 -25 -21 -34s9 -18 27 -27c-5 -4 -10 -6 -16 -6c-9 0 -23 9 -34 9c-7 0 -16 -9 -27 -27l4 -6c7 10 12 15 17 15s25 -9 33 -9
c2 0 4 0 6 1c13 4 30 10 51 17c24 8 36 17 36 28z" />
    <glyph glyph-name="glyph47" unicode="&#x675;" horiz-adv-x="184" 
d="M184 115v67h-55c-9 0 -17 6 -24 17c-9 13 -16 43 -21 89c-2 101 -4 165 -7 192c-4 43 -11 81 -22 112l-48 -76c10 -9 18 -20 24 -32c9 -21 14 -48 18 -111c2 -31 4 -60 5 -89c5 -73 13 -123 32 -148c11 -14 25 -21 43 -21h55zM221 523c-15 -5 -16 -6 -27 -6
c-9 0 -20 3 -32 10s-18 12 -18 16c0 7 14 12 26 12c9 0 18 -4 25 -11c7 9 9 16 9 23c0 12 -7 20 -18 20c-12 0 -26 -8 -41 -24c-14 -15 -21 -26 -21 -35c0 -5 3 -10 8 -15c4 -4 10 -8 19 -12c-26 -9 -39 -20 -39 -31l73 25c11 3 19 7 24 10c8 5 12 11 12 18z" />
    <glyph glyph-name="glyph1349" unicode="&#x676;" horiz-adv-x="346" 
d="M346 138v44c0 37 -4 65 -12 86c-10 27 -26 40 -49 40c-22 0 -41 -13 -56 -40c-12 -23 -18 -47 -18 -74c0 -30 10 -51 30 -63c17 -11 43 -17 78 -17c-20 -28 -36 -48 -47 -60c-22 -24 -44 -43 -67 -56c-28 -16 -58 -24 -89 -24c-27 0 -61 11 -90 16l-6 -13
c17 -6 33 -12 50 -18c21 -7 39 -12 53 -14c17 -4 35 -6 52 -6c47 0 88 24 123 71c32 43 48 85 48 128zM321 180c-52 0 -73 13 -73 40c0 13 12 25 27 25c10 0 18 -4 25 -13c9 -9 16 -27 21 -52zM409 413c-15 -5 -16 -6 -27 -6c-9 0 -20 3 -32 10s-18 12 -18 16
c0 7 14 12 26 12c9 0 18 -4 25 -11c7 9 9 16 9 23c0 12 -7 20 -18 20c-12 0 -26 -8 -41 -24c-14 -15 -21 -26 -21 -35c0 -5 3 -10 8 -15c4 -4 10 -8 19 -12c-26 -9 -39 -20 -39 -31l73 25c11 3 19 7 24 10c8 5 12 11 12 18z" />
    <glyph glyph-name="uni0677" unicode="&#x677;" horiz-adv-x="346" arabic-form="isolated" 
d="M346 138v44c0 37 -4 65 -12 86c-10 27 -26 40 -49 40c-22 0 -41 -13 -56 -40c-12 -23 -18 -47 -18 -74c0 -30 10 -51 30 -63c17 -11 43 -17 78 -17c-20 -28 -36 -48 -47 -60c-22 -24 -44 -43 -67 -56c-28 -16 -58 -24 -89 -24c-27 0 -61 11 -90 16l-6 -13
c17 -6 33 -12 50 -18c21 -7 39 -12 53 -14c17 -4 35 -6 52 -6c47 0 88 24 123 71c32 43 48 85 48 128zM321 180c-52 0 -73 13 -73 40c0 13 12 25 27 25c10 0 18 -4 25 -13c9 -9 16 -27 21 -52zM409 413c-15 -5 -16 -6 -27 -6c-9 0 -20 3 -32 10s-18 12 -18 16
c0 7 14 12 26 12c9 0 18 -4 25 -11c7 9 9 16 9 23c0 12 -7 20 -18 20c-12 0 -26 -8 -41 -24c-14 -15 -21 -26 -21 -35c0 -5 3 -10 8 -15c4 -4 10 -8 19 -12c-26 -9 -39 -20 -39 -31l73 25c11 3 19 7 24 10c8 5 12 11 12 18zM246 387c0 5 -1 10 -4 13c-5 3 -10 7 -14 11
c11 28 13 35 13 44c0 21 -14 38 -27 38c-24 0 -48 -31 -48 -66c0 -7 3 -15 8 -22c4 -5 10 -10 19 -15c-9 -11 -22 -22 -39 -35c-18 -15 -34 -26 -48 -32h29c13 0 29 9 48 28c5 5 14 14 27 28l32 -19c1 9 4 19 4 27zM217 432c0 -2 -1 -6 -4 -11l-17 14c-7 5 -10 11 -10 17
c0 4 4 8 8 8c11 0 23 -13 23 -28z" />
    <glyph glyph-name="glyph" unicode="&#x678;" horiz-adv-x="471" 
d="M471 115v67h-68c-22 0 -43 -3 -63 -9c-27 -8 -48 -20 -63 -37c-19 -20 -29 -46 -29 -79c0 -17 13 -26 46 -26c9 0 49 -3 62 -3c20 0 26 -6 26 -14c0 -12 -17 -22 -52 -29c-29 -5 -62 -8 -99 -8c-55 0 -99 8 -131 23c-33 17 -49 42 -49 74c0 17 7 41 22 70
c9 17 19 33 29 50l-16 8c-25 -40 -41 -66 -47 -78c-17 -34 -25 -66 -25 -96c0 -38 18 -67 53 -88c33 -19 77 -28 133 -28c81 0 138 12 173 36c32 22 48 58 48 107c0 9 -4 16 -11 20c-4 2 -13 4 -26 6c-21 2 -34 3 -41 4c-6 1 -14 1 -25 1c-24 0 -36 4 -36 13
c0 12 40 16 121 16h68zM456 288c-15 -5 -16 -6 -27 -6c-9 0 -20 3 -32 10s-18 12 -18 16c0 7 14 12 26 12c9 0 18 -4 25 -11c7 9 9 16 9 23c0 12 -7 20 -18 20c-12 0 -26 -8 -41 -24c-14 -15 -21 -26 -21 -35c0 -5 3 -10 8 -15c4 -4 10 -8 19 -12c-26 -9 -39 -20 -39 -31
l73 25c11 3 19 7 24 10c8 5 12 11 12 18z" />
    <glyph glyph-name="uni0679" unicode="&#x679;" horiz-adv-x="571" arabic-form="isolated" 
d="M571 115v105c0 56 -9 99 -27 128c-3 4 -9 13 -20 27l-31 -64c35 -25 47 -61 47 -118v-11h-331c-45 0 -81 8 -109 23c-33 17 -49 40 -49 71c0 15 4 32 11 50c5 12 11 24 17 36l-11 8c-15 -25 -25 -43 -29 -53c-11 -25 -17 -49 -17 -73c0 -47 19 -82 56 -104
c30 -17 70 -25 120 -25h373zM411 415v46c0 36 -16 54 -49 54c-12 0 -28 -5 -47 -14c-7 -3 -21 -10 -42 -23c2 9 3 16 4 19c2 11 3 20 3 29c0 22 -5 50 -16 83l3 -1c3 -1 5 -1 6 -2c5 17 7 30 7 38c-9 1 -15 2 -20 4c-8 3 -13 8 -16 14c-5 -11 -8 -25 -11 -42l12 -5
c3 -13 6 -23 8 -30c3 -14 5 -28 8 -41c2 -17 3 -31 3 -44c0 -11 -2 -23 -7 -35c-18 -12 -35 -18 -52 -18h-29v-32h235zM382 461c0 -9 -15 -14 -44 -14h-81c7 4 15 9 25 14c25 13 46 20 62 20c25 0 38 -7 38 -20z" />
    <glyph glyph-name="uniFB67" unicode="&#x679;" horiz-adv-x="571" arabic-form="final" 
d="M571 115v105c0 56 -9 99 -27 128c-3 4 -9 13 -20 27l-31 -64c35 -25 47 -61 47 -118v-11h-331c-45 0 -81 8 -109 23c-33 17 -49 40 -49 71c0 15 4 32 11 50c5 12 11 24 17 36l-11 8c-15 -25 -25 -43 -29 -53c-11 -25 -17 -49 -17 -73c0 -47 19 -82 56 -104
c30 -17 70 -25 120 -25h373zM411 415v46c0 36 -16 54 -49 54c-12 0 -28 -5 -47 -14c-7 -3 -21 -10 -42 -23c2 9 3 16 4 19c2 11 3 20 3 29c0 22 -5 50 -16 83l3 -1c3 -1 5 -1 6 -2c5 17 7 30 7 38c-9 1 -15 2 -20 4c-8 3 -13 8 -16 14c-5 -11 -8 -25 -11 -42l12 -5
c3 -13 6 -23 8 -30c3 -14 5 -28 8 -41c2 -17 3 -31 3 -44c0 -11 -2 -23 -7 -35c-18 -12 -35 -18 -52 -18h-29v-32h235zM382 461c0 -9 -15 -14 -44 -14h-81c7 4 15 9 25 14c25 13 46 20 62 20c25 0 38 -7 38 -20z" />
    <glyph glyph-name="uniFB68" unicode="&#x679;" horiz-adv-x="196" arabic-form="initial" 
d="M196 115v95c0 46 -4 79 -11 99c-5 13 -17 32 -36 55l-30 -63c19 -21 32 -38 37 -49c7 -16 11 -39 11 -70h-195v-67h224zM215 415v46c0 36 -16 54 -49 54c-12 0 -28 -5 -47 -14c-7 -3 -21 -10 -42 -23c2 9 3 16 4 19c2 11 3 20 3 29c0 22 -5 50 -16 83l3 -1
c3 -1 5 -1 6 -2c5 17 7 30 7 38c-9 1 -15 2 -20 4c-8 3 -13 8 -16 14c-5 -11 -8 -25 -11 -42l12 -5c3 -13 6 -23 8 -30c3 -14 5 -28 8 -41c2 -17 3 -31 3 -44c0 -11 -2 -23 -7 -35c-18 -12 -35 -18 -52 -18h-29v-32h235zM186 461c0 -9 -15 -14 -44 -14h-81c7 4 15 9 25 14
c25 13 46 20 62 20c25 0 38 -7 38 -20z" />
    <glyph glyph-name="uniFB69" unicode="&#x679;" horiz-adv-x="196" arabic-form="medial" 
d="M196 115v95c0 46 -4 79 -11 99c-5 13 -17 32 -36 55l-30 -63c19 -21 32 -38 37 -49c7 -16 11 -39 11 -70h-195v-67h224zM215 415v46c0 36 -16 54 -49 54c-12 0 -28 -5 -47 -14c-7 -3 -21 -10 -42 -23c2 9 3 16 4 19c2 11 3 20 3 29c0 22 -5 50 -16 83l3 -1
c3 -1 5 -1 6 -2c5 17 7 30 7 38c-9 1 -15 2 -20 4c-8 3 -13 8 -16 14c-5 -11 -8 -25 -11 -42l12 -5c3 -13 6 -23 8 -30c3 -14 5 -28 8 -41c2 -17 3 -31 3 -44c0 -11 -2 -23 -7 -35c-18 -12 -35 -18 -52 -18h-29v-32h235zM186 461c0 -9 -15 -14 -44 -14h-81c7 4 15 9 25 14
c25 13 46 20 62 20c25 0 38 -7 38 -20z" />
    <glyph glyph-name="uni067A" unicode="&#x67a;" horiz-adv-x="571" arabic-form="isolated" 
d="M571 115v105c0 56 -9 99 -27 128c-3 4 -9 13 -20 27l-31 -64c35 -25 47 -61 47 -118v-11h-331c-45 0 -81 8 -109 23c-33 17 -49 40 -49 71c0 15 4 32 11 50c5 12 11 24 17 36l-11 8c-15 -25 -25 -43 -29 -53c-11 -25 -17 -49 -17 -73c0 -47 19 -82 56 -104
c30 -17 70 -25 120 -25h373zM331 569l-64 33l-29 -57l64 -33zM349 471l-62 34l-31 -58l64 -32z" />
    <glyph glyph-name="uniFB5F" unicode="&#x67a;" horiz-adv-x="571" arabic-form="final" 
d="M571 115v105c0 56 -9 99 -27 128c-3 4 -9 13 -20 27l-31 -64c35 -25 47 -61 47 -118v-11h-331c-45 0 -81 8 -109 23c-33 17 -49 40 -49 71c0 15 4 32 11 50c5 12 11 24 17 36l-11 8c-15 -25 -25 -43 -29 -53c-11 -25 -17 -49 -17 -73c0 -47 19 -82 56 -104
c30 -17 70 -25 120 -25h373zM331 569l-64 33l-29 -57l64 -33zM349 471l-62 34l-31 -58l64 -32z" />
    <glyph glyph-name="uniFB60" unicode="&#x67a;" horiz-adv-x="196" arabic-form="initial" 
d="M196 115v95c0 46 -4 79 -11 99c-5 13 -17 32 -36 55l-30 -63c19 -21 32 -38 37 -49c7 -16 11 -39 11 -70h-195v-67h224zM119 569l-64 33l-29 -57l64 -33zM137 471l-62 34l-31 -58l64 -32z" />
    <glyph glyph-name="uniFB61" unicode="&#x67a;" horiz-adv-x="196" arabic-form="medial" 
d="M196 115v95c0 46 -4 79 -11 99c-5 13 -17 32 -36 55l-30 -63c19 -21 32 -38 37 -49c7 -16 11 -39 11 -70h-195v-67h224zM119 569l-64 33l-29 -57l64 -33zM137 471l-62 34l-31 -58l64 -32z" />
    <glyph glyph-name="uni067B" unicode="&#x67b;" horiz-adv-x="571" arabic-form="isolated" 
d="M571 115v105c0 56 -9 99 -27 128c-3 4 -9 13 -20 27l-31 -64c35 -25 47 -61 47 -118v-11h-331c-45 0 -81 8 -109 23c-33 17 -49 40 -49 71c0 15 4 32 11 50c5 12 11 24 17 36l-11 8c-15 -25 -25 -43 -29 -53c-11 -25 -17 -49 -17 -73c0 -47 19 -82 56 -104
c30 -17 70 -25 120 -25h373zM354 22l-64 33l-29 -57l64 -33zM372 -76l-62 34l-31 -58l64 -32z" />
    <glyph glyph-name="uniFB53" unicode="&#x67b;" horiz-adv-x="571" arabic-form="final" 
d="M571 115v105c0 56 -9 99 -27 128c-3 4 -9 13 -20 27l-31 -64c35 -25 47 -61 47 -118v-11h-331c-45 0 -81 8 -109 23c-33 17 -49 40 -49 71c0 15 4 32 11 50c5 12 11 24 17 36l-11 8c-15 -25 -25 -43 -29 -53c-11 -25 -17 -49 -17 -73c0 -47 19 -82 56 -104
c30 -17 70 -25 120 -25h373zM354 22l-64 33l-29 -57l64 -33zM372 -76l-62 34l-31 -58l64 -32z" />
    <glyph glyph-name="uniFB54" unicode="&#x67b;" horiz-adv-x="196" arabic-form="initial" 
d="M196 115v95c0 46 -4 79 -11 99c-5 13 -17 32 -36 55l-30 -63c19 -21 32 -38 37 -49c7 -16 11 -39 11 -70h-195v-67h224zM135 22l-64 33l-29 -57l64 -33zM153 -76l-62 34l-31 -58l64 -32z" />
    <glyph glyph-name="uniFB55" unicode="&#x67b;" horiz-adv-x="196" arabic-form="medial" 
d="M196 115v95c0 46 -4 79 -11 99c-5 13 -17 32 -36 55l-30 -63c19 -21 32 -38 37 -49c7 -16 11 -39 11 -70h-195v-67h224zM135 22l-64 33l-29 -57l64 -33zM153 -76l-62 34l-31 -58l64 -32z" />
    <glyph glyph-name="glyph1368" unicode="&#x67c;" horiz-adv-x="196" 
d="M194 500l-65 33l-29 -56l63 -33zM103 465l-64 33l-28 -56l63 -33zM196 115v95c0 46 -4 79 -11 99c-5 13 -17 32 -36 55l-30 -63c19 -21 32 -38 37 -49c7 -16 11 -39 11 -70h-195v-67h224zM148 88c0 31 -22 58 -50 58c-31 0 -54 -37 -54 -76c0 -28 13 -45 41 -45
c36 0 63 31 63 63zM124 77c0 -9 -10 -13 -23 -13s-22 1 -29 4c-9 3 -13 10 -13 20c0 12 10 26 25 26c6 0 14 -4 24 -13c11 -9 16 -17 16 -24z" />
    <glyph glyph-name="glyph1369" unicode="&#x67c;" horiz-adv-x="196" 
d="M194 500l-65 33l-29 -56l63 -33zM103 465l-64 33l-28 -56l63 -33zM196 115v95c0 46 -4 79 -11 99c-5 13 -17 32 -36 55l-30 -63c19 -21 32 -38 37 -49c7 -16 11 -39 11 -70h-195v-67h224zM148 88c0 31 -22 58 -50 58c-31 0 -54 -37 -54 -76c0 -28 13 -45 41 -45
c36 0 63 31 63 63zM124 77c0 -9 -10 -13 -23 -13s-22 1 -29 4c-9 3 -13 10 -13 20c0 12 10 26 25 26c6 0 14 -4 24 -13c11 -9 16 -17 16 -24z" />
    <glyph glyph-name="glyph1367" unicode="&#x67c;" horiz-adv-x="571" 
d="M387 469l-64 33l-30 -56l63 -33zM297 434l-64 33l-29 -57l64 -32zM571 115v105c0 56 -9 99 -27 128c-3 4 -9 13 -20 27l-31 -64c35 -25 47 -61 47 -118v-11h-331c-45 0 -81 8 -109 23c-33 17 -49 40 -49 71c0 15 4 32 11 50c5 12 11 24 17 36l-11 8
c-15 -25 -25 -43 -29 -53c-11 -25 -17 -49 -17 -73c0 -47 19 -82 56 -104c30 -17 70 -25 120 -25h373zM367 88c0 31 -22 58 -50 58c-31 0 -54 -37 -54 -76c0 -28 13 -45 41 -45c36 0 63 31 63 63zM343 77c0 -9 -10 -13 -23 -13s-22 1 -29 4c-9 3 -13 10 -13 20
c0 12 10 26 25 26c6 0 14 -4 24 -13c11 -9 16 -17 16 -24z" />
    <glyph glyph-name="glyph1372" unicode="&#x67d;" horiz-adv-x="196" 
d="M196 115v95c0 46 -4 79 -11 99c-5 13 -17 32 -36 55l-30 -63c19 -21 32 -38 37 -49c7 -16 11 -39 11 -70h-195v-67h224zM173 569l-63 33l-30 -57l64 -33zM160 463l-63 34l-29 -57l63 -33zM84 533l-64 34l-30 -57l65 -33z" />
    <glyph glyph-name="glyph1373" unicode="&#x67d;" horiz-adv-x="196" 
d="M196 115v95c0 46 -4 79 -11 99c-5 13 -17 32 -36 55l-30 -63c19 -21 32 -38 37 -49c7 -16 11 -39 11 -70h-195v-67h224zM173 569l-63 33l-30 -57l64 -33zM160 463l-63 34l-29 -57l63 -33zM84 533l-64 34l-30 -57l65 -33z" />
    <glyph glyph-name="glyph1371" unicode="&#x67d;" horiz-adv-x="571" 
d="M571 115v105c0 56 -9 99 -27 128c-3 4 -9 13 -20 27l-31 -64c35 -25 47 -61 47 -118v-11h-331c-45 0 -81 8 -109 23c-33 17 -49 40 -49 71c0 15 4 32 11 50c5 12 11 24 17 36l-11 8c-15 -25 -25 -43 -29 -53c-11 -25 -17 -49 -17 -73c0 -47 19 -82 56 -104
c30 -17 70 -25 120 -25h373zM385 569l-63 33l-30 -57l64 -33zM372 463l-63 34l-29 -57l63 -33zM296 533l-64 34l-30 -57l65 -33z" />
    <glyph glyph-name="uni067F" unicode="&#x67f;" horiz-adv-x="571" arabic-form="isolated" 
d="M571 115v105c0 56 -9 99 -27 128c-3 4 -9 13 -20 27l-31 -64c35 -25 47 -61 47 -118v-11h-331c-45 0 -81 8 -109 23c-33 17 -49 40 -49 71c0 15 4 32 11 50c5 12 11 24 17 36l-11 8c-15 -25 -25 -43 -29 -53c-11 -25 -17 -49 -17 -73c0 -47 19 -82 56 -104
c30 -17 70 -25 120 -25h373zM376 568l-64 34l-29 -58l62 -33zM394 471l-65 32l-29 -56l64 -32zM304 435l-64 33l-29 -56l63 -33zM256 476l30 56l-65 35l-28 -56z" />
    <glyph glyph-name="uniFB63" unicode="&#x67f;" horiz-adv-x="571" arabic-form="final" 
d="M571 115v105c0 56 -9 99 -27 128c-3 4 -9 13 -20 27l-31 -64c35 -25 47 -61 47 -118v-11h-331c-45 0 -81 8 -109 23c-33 17 -49 40 -49 71c0 15 4 32 11 50c5 12 11 24 17 36l-11 8c-15 -25 -25 -43 -29 -53c-11 -25 -17 -49 -17 -73c0 -47 19 -82 56 -104
c30 -17 70 -25 120 -25h373zM376 568l-64 34l-29 -58l62 -33zM394 471l-65 32l-29 -56l64 -32zM304 435l-64 33l-29 -56l63 -33zM256 476l30 56l-65 35l-28 -56z" />
    <glyph glyph-name="uniFB64" unicode="&#x67f;" horiz-adv-x="196" arabic-form="initial" 
d="M196 115v95c0 46 -4 79 -11 99c-5 13 -17 32 -36 55l-30 -63c19 -21 32 -38 37 -49c7 -16 11 -39 11 -70h-195v-67h224zM164 568l-64 34l-29 -58l62 -33zM182 471l-65 32l-29 -56l64 -32zM92 435l-64 33l-29 -56l63 -33zM44 476l30 56l-65 35l-28 -56z" />
    <glyph glyph-name="uniFB65" unicode="&#x67f;" horiz-adv-x="196" arabic-form="medial" 
d="M196 115v95c0 46 -4 79 -11 99c-5 13 -17 32 -36 55l-30 -63c19 -21 32 -38 37 -49c7 -16 11 -39 11 -70h-195v-67h224zM164 568l-64 34l-29 -58l62 -33zM182 471l-65 32l-29 -56l64 -32zM92 435l-64 33l-29 -56l63 -33zM44 476l30 56l-65 35l-28 -56z" />
    <glyph glyph-name="uni0680" unicode="&#x680;" horiz-adv-x="571" arabic-form="isolated" 
d="M571 115v105c0 56 -9 99 -27 128c-3 4 -9 13 -20 27l-31 -64c35 -25 47 -61 47 -118v-11h-331c-45 0 -81 8 -109 23c-33 17 -49 40 -49 71c0 15 4 32 11 50c5 12 11 24 17 36l-11 8c-15 -25 -25 -43 -29 -53c-11 -25 -17 -49 -17 -73c0 -47 19 -82 56 -104
c30 -17 70 -25 120 -25h373zM391 21l-64 34l-29 -58l62 -33zM409 -76l-65 32l-29 -56l64 -32zM319 -112l-64 33l-29 -56l63 -33zM271 -71l30 56l-65 35l-28 -56z" />
    <glyph glyph-name="uniFB5B" unicode="&#x680;" horiz-adv-x="571" arabic-form="final" 
d="M571 115v105c0 56 -9 99 -27 128c-3 4 -9 13 -20 27l-31 -64c35 -25 47 -61 47 -118v-11h-331c-45 0 -81 8 -109 23c-33 17 -49 40 -49 71c0 15 4 32 11 50c5 12 11 24 17 36l-11 8c-15 -25 -25 -43 -29 -53c-11 -25 -17 -49 -17 -73c0 -47 19 -82 56 -104
c30 -17 70 -25 120 -25h373zM391 21l-64 34l-29 -58l62 -33zM409 -76l-65 32l-29 -56l64 -32zM319 -112l-64 33l-29 -56l63 -33zM271 -71l30 56l-65 35l-28 -56z" />
    <glyph glyph-name="uniFB5C" unicode="&#x680;" horiz-adv-x="196" arabic-form="initial" 
d="M196 115v95c0 46 -4 79 -11 99c-5 13 -17 32 -36 55l-30 -63c19 -21 32 -38 37 -49c7 -16 11 -39 11 -70h-195v-67h224zM180 21l-64 34l-29 -58l62 -33zM198 -76l-65 32l-29 -56l64 -32zM108 -112l-64 33l-29 -56l63 -33zM60 -71l30 56l-65 35l-28 -56z" />
    <glyph glyph-name="uniFB5D" unicode="&#x680;" horiz-adv-x="196" arabic-form="medial" 
d="M196 115v95c0 46 -4 79 -11 99c-5 13 -17 32 -36 55l-30 -63c19 -21 32 -38 37 -49c7 -16 11 -39 11 -70h-195v-67h224zM180 21l-64 34l-29 -58l62 -33zM198 -76l-65 32l-29 -56l64 -32zM108 -112l-64 33l-29 -56l63 -33zM60 -71l30 56l-65 35l-28 -56z" />
    <glyph glyph-name="glyph1384" unicode="&#x681;" horiz-adv-x="424" 
d="M424 115v67h-24c-11 3 -32 18 -64 46c-40 37 -69 62 -88 75c-36 26 -67 39 -93 39c-27 0 -50 -9 -68 -26c-13 -11 -22 -27 -29 -46c13 2 26 3 40 3c21 0 43 -4 64 -12c19 -6 39 -16 62 -31c19 -11 41 -27 67 -48h-319v-67h452zM260 484c-15 -5 -16 -6 -27 -6
c-9 0 -20 3 -32 10s-18 12 -18 16c0 7 14 12 26 12c9 0 18 -4 25 -11c7 9 9 16 9 23c0 12 -7 20 -18 20c-12 0 -26 -8 -41 -24c-14 -15 -21 -26 -21 -35c0 -5 3 -10 8 -15c4 -4 10 -8 19 -12c-26 -9 -39 -20 -39 -31l73 25c11 3 19 7 24 10c8 5 12 11 12 18z" />
    <glyph glyph-name="glyph1385" unicode="&#x681;" horiz-adv-x="424" 
d="M424 115v67h-24c-11 3 -32 18 -64 46c-40 37 -69 62 -88 75c-36 26 -67 39 -93 39c-27 0 -50 -9 -68 -26c-13 -11 -22 -27 -29 -46c13 2 26 3 40 3c21 0 43 -4 64 -12c19 -6 39 -16 62 -31c19 -11 41 -27 67 -48h-319v-67h452zM260 484c-15 -5 -16 -6 -27 -6
c-9 0 -20 3 -32 10s-18 12 -18 16c0 7 14 12 26 12c9 0 18 -4 25 -11c7 9 9 16 9 23c0 12 -7 20 -18 20c-12 0 -26 -8 -41 -24c-14 -15 -21 -26 -21 -35c0 -5 3 -10 8 -15c4 -4 10 -8 19 -12c-26 -9 -39 -20 -39 -31l73 25c11 3 19 7 24 10c8 5 12 11 12 18z" />
    <glyph glyph-name="glyph1383" unicode="&#x681;" horiz-adv-x="420" 
d="M420 115v67h-53c-19 0 -33 2 -41 7c-13 7 -19 22 -19 43v22c15 3 27 5 35 6c14 3 26 5 37 6l16 66c-28 -3 -52 -6 -79 -6c-20 0 -45 2 -75 7c-29 5 -56 8 -81 8c-46 0 -80 -11 -102 -33c-9 -10 -19 -28 -28 -53c29 7 47 10 52 11c17 2 38 3 64 3c19 0 44 -1 64 -4
c-44 -24 -71 -39 -80 -45c-33 -22 -59 -46 -76 -72c-22 -33 -33 -72 -33 -117c0 -51 13 -93 39 -124c23 -28 56 -48 101 -61c37 -11 84 -16 140 -16h23l88 62l-2 5h-71c-85 0 -153 12 -204 36c-59 29 -88 71 -88 127c0 36 15 68 44 96c23 22 55 42 97 60c22 9 55 21 100 35
c-2 -10 -3 -18 -4 -23c-3 -15 -4 -28 -4 -38c0 -55 24 -75 87 -75h53zM299 484c-15 -5 -16 -6 -27 -6c-9 0 -20 3 -32 10s-18 12 -18 16c0 7 14 12 26 12c9 0 18 -4 25 -11c7 9 9 16 9 23c0 12 -7 20 -18 20c-12 0 -26 -8 -41 -24c-14 -15 -21 -26 -21 -35c0 -5 3 -10 8 -15
c4 -4 10 -8 19 -12c-26 -9 -39 -20 -39 -31l73 25c11 3 19 7 24 10c8 5 12 11 12 18z" />
    <glyph glyph-name="glyph1388" unicode="&#x682;" horiz-adv-x="424" 
d="M424 115v67h-24c-11 3 -32 18 -64 46c-40 37 -69 62 -88 75c-36 26 -67 39 -93 39c-27 0 -50 -9 -68 -26c-13 -11 -22 -27 -29 -46c13 2 26 3 40 3c21 0 43 -4 64 -12c19 -6 39 -16 62 -31c19 -11 41 -27 67 -48h-319v-67h452zM213 569l-64 33l-29 -57l64 -33zM231 471
l-62 34l-31 -58l64 -32z" />
    <glyph glyph-name="glyph1389" unicode="&#x682;" horiz-adv-x="424" 
d="M424 115v67h-24c-11 3 -32 18 -64 46c-40 37 -69 62 -88 75c-36 26 -67 39 -93 39c-27 0 -50 -9 -68 -26c-13 -11 -22 -27 -29 -46c13 2 26 3 40 3c21 0 43 -4 64 -12c19 -6 39 -16 62 -31c19 -11 41 -27 67 -48h-319v-67h452zM213 569l-64 33l-29 -57l64 -33zM231 471
l-62 34l-31 -58l64 -32z" />
    <glyph glyph-name="glyph1387" unicode="&#x682;" horiz-adv-x="420" 
d="M420 115v67h-53c-19 0 -33 2 -41 7c-13 7 -19 22 -19 43v22c15 3 27 5 35 6c14 3 26 5 37 6l16 66c-28 -3 -52 -6 -79 -6c-20 0 -45 2 -75 7c-29 5 -56 8 -81 8c-46 0 -80 -11 -102 -33c-9 -10 -19 -28 -28 -53c29 7 47 10 52 11c17 2 38 3 64 3c19 0 44 -1 64 -4
c-44 -24 -71 -39 -80 -45c-33 -22 -59 -46 -76 -72c-22 -33 -33 -72 -33 -117c0 -51 13 -93 39 -124c23 -28 56 -48 101 -61c37 -11 84 -16 140 -16h23l88 62l-2 5h-71c-85 0 -153 12 -204 36c-59 29 -88 71 -88 127c0 36 15 68 44 96c23 22 55 42 97 60c22 9 55 21 100 35
c-2 -10 -3 -18 -4 -23c-3 -15 -4 -28 -4 -38c0 -55 24 -75 87 -75h53zM252 569l-64 33l-29 -57l64 -33zM270 471l-62 34l-31 -58l64 -32z" />
    <glyph glyph-name="uni0683" unicode="&#x683;" horiz-adv-x="451" arabic-form="isolated" 
d="M189 272c-37 -24 -60 -40 -69 -47c-29 -24 -52 -49 -68 -76c-21 -35 -31 -74 -31 -118c0 -51 13 -93 39 -124c23 -28 56 -48 101 -61c37 -11 84 -16 140 -16h23l88 62l-2 5h-71c-85 0 -153 12 -204 36c-59 29 -88 71 -88 127c0 43 20 80 60 112c32 26 77 48 134 65
c39 12 85 23 140 32l15 66c-15 0 -51 -5 -66 -5c-18 0 -39 2 -64 5c-53 7 -89 11 -106 11c-46 0 -79 -10 -99 -30c-9 -9 -18 -27 -29 -56c24 5 43 8 56 9c21 3 39 5 56 5c11 0 34 -2 45 -2zM337 100l-63 33l-30 -57l64 -33zM248 64l-64 34l-30 -57l65 -33z" />
    <glyph glyph-name="uniFB77" unicode="&#x683;" horiz-adv-x="420" arabic-form="final" 
d="M420 115v67h-53c-19 0 -33 2 -41 7c-13 7 -19 22 -19 43v22c15 3 27 5 35 6c14 3 26 5 37 6l16 66c-28 -3 -52 -6 -79 -6c-20 0 -45 2 -75 7c-29 5 -56 8 -81 8c-46 0 -80 -11 -102 -33c-9 -10 -19 -28 -28 -53c29 7 47 10 52 11c17 2 38 3 64 3c19 0 44 -1 64 -4
c-44 -24 -71 -39 -80 -45c-33 -22 -59 -46 -76 -72c-22 -33 -33 -72 -33 -117c0 -51 13 -93 39 -124c23 -28 56 -48 101 -61c37 -11 84 -16 140 -16h23l88 62l-2 5h-71c-85 0 -153 12 -204 36c-59 29 -88 71 -88 127c0 36 15 68 44 96c23 22 55 42 97 60c22 9 55 21 100 35
c-2 -10 -3 -18 -4 -23c-3 -15 -4 -28 -4 -38c0 -55 24 -75 87 -75h53zM282 92l-63 33l-30 -57l64 -33zM193 56l-64 34l-30 -57l65 -33z" />
    <glyph glyph-name="uniFB78" unicode="&#x683;" horiz-adv-x="424" arabic-form="initial" 
d="M424 115v67h-24c-11 3 -32 18 -64 46c-40 37 -69 62 -88 75c-36 26 -67 39 -93 39c-27 0 -50 -9 -68 -26c-13 -11 -22 -27 -29 -46c13 2 26 3 40 3c21 0 43 -4 64 -12c19 -6 39 -16 62 -31c19 -11 41 -27 67 -48h-319v-67h452zM290 22l-63 33l-30 -57l64 -33zM201 -14
l-64 34l-30 -57l65 -33z" />
    <glyph glyph-name="uniFB79" unicode="&#x683;" horiz-adv-x="424" arabic-form="medial" 
d="M424 115v67h-24c-11 3 -32 18 -64 46c-40 37 -69 62 -88 75c-36 26 -67 39 -93 39c-27 0 -50 -9 -68 -26c-13 -11 -22 -27 -29 -46c13 2 26 3 40 3c21 0 43 -4 64 -12c19 -6 39 -16 62 -31c19 -11 41 -27 67 -48h-319v-67h452zM290 22l-63 33l-30 -57l64 -33zM201 -14
l-64 34l-30 -57l65 -33z" />
    <glyph glyph-name="uni0684" unicode="&#x684;" horiz-adv-x="451" arabic-form="isolated" 
d="M189 272c-37 -24 -60 -40 -69 -47c-29 -24 -52 -49 -68 -76c-21 -35 -31 -74 -31 -118c0 -51 13 -93 39 -124c23 -28 56 -48 101 -61c37 -11 84 -16 140 -16h23l88 62l-2 5h-71c-85 0 -153 12 -204 36c-59 29 -88 71 -88 127c0 43 20 80 60 112c32 26 77 48 134 65
c39 12 85 23 140 32l15 66c-15 0 -51 -5 -66 -5c-18 0 -39 2 -64 5c-53 7 -89 11 -106 11c-46 0 -79 -10 -99 -30c-9 -9 -18 -27 -29 -56c24 5 43 8 56 9c21 3 39 5 56 5c11 0 34 -2 45 -2zM283 123l-64 33l-29 -57l64 -33zM301 25l-62 34l-31 -58l64 -32z" />
    <glyph glyph-name="uniFB73" unicode="&#x684;" horiz-adv-x="420" arabic-form="final" 
d="M420 115v67h-53c-19 0 -33 2 -41 7c-13 7 -19 22 -19 43v22c15 3 27 5 35 6c14 3 26 5 37 6l16 66c-28 -3 -52 -6 -79 -6c-20 0 -45 2 -75 7c-29 5 -56 8 -81 8c-46 0 -80 -11 -102 -33c-9 -10 -19 -28 -28 -53c29 7 47 10 52 11c17 2 38 3 64 3c19 0 44 -1 64 -4
c-44 -24 -71 -39 -80 -45c-33 -22 -59 -46 -76 -72c-22 -33 -33 -72 -33 -117c0 -51 13 -93 39 -124c23 -28 56 -48 101 -61c37 -11 84 -16 140 -16h23l88 62l-2 5h-71c-85 0 -153 12 -204 36c-59 29 -88 71 -88 127c0 36 15 68 44 96c23 22 55 42 97 60c22 9 55 21 100 35
c-2 -10 -3 -18 -4 -23c-3 -15 -4 -28 -4 -38c0 -55 24 -75 87 -75h53zM244 115l-64 33l-29 -57l64 -33zM262 17l-62 34l-31 -58l64 -32z" />
    <glyph glyph-name="uniFB74" unicode="&#x684;" horiz-adv-x="424" arabic-form="initial" 
d="M424 115v67h-24c-11 3 -32 18 -64 46c-40 37 -69 62 -88 75c-36 26 -67 39 -93 39c-27 0 -50 -9 -68 -26c-13 -11 -22 -27 -29 -46c13 2 26 3 40 3c21 0 43 -4 64 -12c19 -6 39 -16 62 -31c19 -11 41 -27 67 -48h-319v-67h452zM236 22l-64 33l-29 -57l64 -33zM254 -76
l-62 34l-31 -58l64 -32z" />
    <glyph glyph-name="uniFB75" unicode="&#x684;" horiz-adv-x="424" arabic-form="medial" 
d="M424 115v67h-24c-11 3 -32 18 -64 46c-40 37 -69 62 -88 75c-36 26 -67 39 -93 39c-27 0 -50 -9 -68 -26c-13 -11 -22 -27 -29 -46c13 2 26 3 40 3c21 0 43 -4 64 -12c19 -6 39 -16 62 -31c19 -11 41 -27 67 -48h-319v-67h452zM236 22l-64 33l-29 -57l64 -33zM254 -76
l-62 34l-31 -58l64 -32z" />
    <glyph glyph-name="glyph1400" unicode="&#x685;" horiz-adv-x="424" 
d="M424 115v67h-24c-11 3 -32 18 -64 46c-40 37 -69 62 -88 75c-36 26 -67 39 -93 39c-27 0 -50 -9 -68 -26c-13 -11 -22 -27 -29 -46c13 2 26 3 40 3c21 0 43 -4 64 -12c19 -6 39 -16 62 -31c19 -11 41 -27 67 -48h-319v-67h452zM225 568l-64 34l-28 -58l62 -33zM303 499
l-65 33l-29 -56l63 -34zM212 463l-64 33l-28 -57l63 -32z" />
    <glyph glyph-name="glyph1401" unicode="&#x685;" horiz-adv-x="424" 
d="M424 115v67h-24c-11 3 -32 18 -64 46c-40 37 -69 62 -88 75c-36 26 -67 39 -93 39c-27 0 -50 -9 -68 -26c-13 -11 -22 -27 -29 -46c13 2 26 3 40 3c21 0 43 -4 64 -12c19 -6 39 -16 62 -31c19 -11 41 -27 67 -48h-319v-67h452zM225 568l-64 34l-28 -58l62 -33zM303 499
l-65 33l-29 -56l63 -34zM212 463l-64 33l-28 -57l63 -32z" />
    <glyph glyph-name="glyph1399" unicode="&#x685;" horiz-adv-x="420" 
d="M420 115v67h-53c-19 0 -33 2 -41 7c-13 7 -19 22 -19 43v22c15 3 27 5 35 6c14 3 26 5 37 6l16 66c-28 -3 -52 -6 -79 -6c-20 0 -45 2 -75 7c-29 5 -56 8 -81 8c-46 0 -80 -11 -102 -33c-9 -10 -19 -28 -28 -53c29 7 47 10 52 11c17 2 38 3 64 3c19 0 44 -1 64 -4
c-44 -24 -71 -39 -80 -45c-33 -22 -59 -46 -76 -72c-22 -33 -33 -72 -33 -117c0 -51 13 -93 39 -124c23 -28 56 -48 101 -61c37 -11 84 -16 140 -16h23l88 62l-2 5h-71c-85 0 -153 12 -204 36c-59 29 -88 71 -88 127c0 36 15 68 44 96c23 22 55 42 97 60c22 9 55 21 100 35
c-2 -10 -3 -18 -4 -23c-3 -15 -4 -28 -4 -38c0 -55 24 -75 87 -75h53zM248 568l-64 34l-28 -58l62 -33zM326 499l-65 33l-29 -56l63 -34zM235 463l-64 33l-28 -57l63 -32z" />
    <glyph glyph-name="uni0687" unicode="&#x687;" horiz-adv-x="451" arabic-form="isolated" 
d="M189 272c-37 -24 -60 -40 -69 -47c-29 -24 -52 -49 -68 -76c-21 -35 -31 -74 -31 -118c0 -51 13 -93 39 -124c23 -28 56 -48 101 -61c37 -11 84 -16 140 -16h23l88 62l-2 5h-71c-85 0 -153 12 -204 36c-59 29 -88 71 -88 127c0 43 20 80 60 112c32 26 77 48 134 65
c39 12 85 23 140 32l15 66c-15 0 -51 -5 -66 -5c-18 0 -39 2 -64 5c-53 7 -89 11 -106 11c-46 0 -79 -10 -99 -30c-9 -9 -18 -27 -29 -56c24 5 43 8 56 9c21 3 39 5 56 5c11 0 34 -2 45 -2zM344 153l-64 34l-29 -58l62 -33zM362 56l-65 32l-29 -56l64 -32zM272 20l-64 33
l-29 -56l63 -33zM224 61l30 56l-65 35l-28 -56z" />
    <glyph glyph-name="uniFB7f" unicode="&#x687;" horiz-adv-x="420" arabic-form="final" 
d="M420 115v67h-53c-19 0 -33 2 -41 7c-13 7 -19 22 -19 43v22c15 3 27 5 35 6c14 3 26 5 37 6l16 66c-28 -3 -52 -6 -79 -6c-20 0 -45 2 -75 7c-29 5 -56 8 -81 8c-46 0 -80 -11 -102 -33c-9 -10 -19 -28 -28 -53c29 7 47 10 52 11c17 2 38 3 64 3c19 0 44 -1 64 -4
c-44 -24 -71 -39 -80 -45c-33 -22 -59 -46 -76 -72c-22 -33 -33 -72 -33 -117c0 -51 13 -93 39 -124c23 -28 56 -48 101 -61c37 -11 84 -16 140 -16h23l88 62l-2 5h-71c-85 0 -153 12 -204 36c-59 29 -88 71 -88 127c0 36 15 68 44 96c23 22 55 42 97 60c22 9 55 21 100 35
c-2 -10 -3 -18 -4 -23c-3 -15 -4 -28 -4 -38c0 -55 24 -75 87 -75h53zM286 134l-64 34l-29 -58l62 -33zM304 37l-65 32l-29 -56l64 -32zM214 1l-64 33l-29 -56l63 -33zM166 42l30 56l-65 35l-28 -56z" />
    <glyph glyph-name="uniFB80" unicode="&#x687;" horiz-adv-x="424" arabic-form="initial" 
d="M424 115v67h-24c-11 3 -32 18 -64 46c-40 37 -69 62 -88 75c-36 26 -67 39 -93 39c-27 0 -50 -9 -68 -26c-13 -11 -22 -27 -29 -46c13 2 26 3 40 3c21 0 43 -4 64 -12c19 -6 39 -16 62 -31c19 -11 41 -27 67 -48h-319v-67h452zM289 21l-64 34l-29 -58l62 -33zM307 -76
l-65 32l-29 -56l64 -32zM217 -112l-64 33l-29 -56l63 -33zM169 -71l30 56l-65 35l-28 -56z" />
    <glyph glyph-name="uniFB81" unicode="&#x687;" horiz-adv-x="424" arabic-form="medial" 
d="M424 115v67h-24c-11 3 -32 18 -64 46c-40 37 -69 62 -88 75c-36 26 -67 39 -93 39c-27 0 -50 -9 -68 -26c-13 -11 -22 -27 -29 -46c13 2 26 3 40 3c21 0 43 -4 64 -12c19 -6 39 -16 62 -31c19 -11 41 -27 67 -48h-319v-67h452zM289 21l-64 34l-29 -58l62 -33zM307 -76
l-65 32l-29 -56l64 -32zM217 -112l-64 33l-29 -56l63 -33zM169 -71l30 56l-65 35l-28 -56z" />
    <glyph glyph-name="uni0688" unicode="&#x688;" horiz-adv-x="270" arabic-form="isolated" 
d="M270 115v67c0 63 -8 114 -23 153c-18 49 -50 84 -95 107l-6 -77c38 -11 65 -35 81 -70c13 -29 19 -66 19 -113h-151c-11 0 -20 2 -26 6c-7 5 -13 13 -16 24h-9c-5 -21 -7 -35 -7 -54c0 -24 29 -43 58 -43h175zM254 466v46c0 36 -16 54 -49 54c-12 0 -28 -5 -47 -14
c-7 -3 -21 -10 -42 -23c2 9 3 16 4 19c2 11 3 20 3 29c0 22 -5 50 -16 83l3 -1c3 -1 5 -1 6 -2c5 17 7 30 7 38c-9 1 -15 2 -20 4c-8 3 -13 8 -16 14c-5 -11 -8 -25 -11 -42l12 -5c3 -13 6 -23 8 -30c3 -14 5 -28 8 -41c2 -17 3 -31 3 -44c0 -11 -2 -23 -7 -35
c-18 -12 -35 -18 -52 -18h-29v-32h235zM225 512c0 -9 -15 -14 -44 -14h-81c7 4 15 9 25 14c25 13 46 20 62 20c25 0 38 -7 38 -20z" />
    <glyph glyph-name="uniFB89" unicode="&#x688;" horiz-adv-x="270" arabic-form="final" 
d="M270 115v67c0 63 -8 114 -23 153c-18 49 -50 84 -95 107l-6 -77c38 -11 65 -35 81 -70c13 -29 19 -66 19 -113h-151c-11 0 -20 2 -26 6c-7 5 -13 13 -16 24h-9c-5 -21 -7 -35 -7 -54c0 -24 29 -43 58 -43h175zM254 466v46c0 36 -16 54 -49 54c-12 0 -28 -5 -47 -14
c-7 -3 -21 -10 -42 -23c2 9 3 16 4 19c2 11 3 20 3 29c0 22 -5 50 -16 83l3 -1c3 -1 5 -1 6 -2c5 17 7 30 7 38c-9 1 -15 2 -20 4c-8 3 -13 8 -16 14c-5 -11 -8 -25 -11 -42l12 -5c3 -13 6 -23 8 -30c3 -14 5 -28 8 -41c2 -17 3 -31 3 -44c0 -11 -2 -23 -7 -35
c-18 -12 -35 -18 -52 -18h-29v-32h235zM225 512c0 -9 -15 -14 -44 -14h-81c7 4 15 9 25 14c25 13 46 20 62 20c25 0 38 -7 38 -20z" />
    <glyph glyph-name="glyph1409" unicode="&#x689;" horiz-adv-x="270" 
d="M270 115v67c0 63 -8 114 -23 153c-18 49 -50 84 -95 107l-6 -77c38 -11 65 -35 81 -70c13 -29 19 -66 19 -113h-151c-11 0 -20 2 -26 6c-7 5 -13 13 -16 24h-9c-5 -21 -7 -35 -7 -54c0 -24 29 -43 58 -43h175zM218 88c0 31 -22 58 -50 58c-31 0 -54 -37 -54 -76
c0 -28 13 -45 41 -45c36 0 63 31 63 63zM194 77c0 -9 -10 -13 -23 -13s-22 1 -29 4c-9 3 -13 10 -13 20c0 12 10 26 25 26c6 0 14 -4 24 -13c11 -9 16 -17 16 -24z" />
    <glyph glyph-name="glyph1411" unicode="&#x68a;" horiz-adv-x="270" 
d="M270 115v67c0 63 -8 114 -23 153c-18 49 -50 84 -95 107l-6 -77c38 -11 65 -35 81 -70c13 -29 19 -66 19 -113h-151c-11 0 -20 2 -26 6c-7 5 -13 13 -16 24h-9c-5 -21 -7 -35 -7 -54c0 -24 29 -43 58 -43h175zM211 20l-65 32l-30 -56l64 -33z" />
    <glyph glyph-name="glyph1413" unicode="&#x68b;" horiz-adv-x="270" 
d="M270 115v67c0 63 -8 114 -23 153c-18 49 -50 84 -95 107l-6 -77c38 -11 65 -35 81 -70c13 -29 19 -66 19 -113h-151c-11 0 -20 2 -26 6c-7 5 -13 13 -16 24h-9c-5 -21 -7 -35 -7 -54c0 -24 29 -43 58 -43h175zM254 466v46c0 36 -16 54 -49 54c-12 0 -28 -5 -47 -14
c-7 -3 -21 -10 -42 -23c2 9 3 16 4 19c2 11 3 20 3 29c0 22 -5 50 -16 83l3 -1c3 -1 5 -1 6 -2c5 17 7 30 7 38c-9 1 -15 2 -20 4c-8 3 -13 8 -16 14c-5 -11 -8 -25 -11 -42l12 -5c3 -13 6 -23 8 -30c3 -14 5 -28 8 -41c2 -17 3 -31 3 -44c0 -11 -2 -23 -7 -35
c-18 -12 -35 -18 -52 -18h-29v-32h235zM225 512c0 -9 -15 -14 -44 -14h-81c7 4 15 9 25 14c25 13 46 20 62 20c25 0 38 -7 38 -20zM211 20l-65 32l-30 -56l64 -33z" />
    <glyph glyph-name="uni068C" unicode="&#x68c;" horiz-adv-x="270" arabic-form="isolated" 
d="M270 115v67c0 63 -8 114 -23 153c-18 49 -50 84 -95 107l-6 -77c38 -11 65 -35 81 -70c13 -29 19 -66 19 -113h-151c-11 0 -20 2 -26 6c-7 5 -13 13 -16 24h-9c-5 -21 -7 -35 -7 -54c0 -24 29 -43 58 -43h175zM220 569l-63 33l-30 -57l64 -33zM131 533l-64 34l-30 -57
l65 -33z" />
    <glyph glyph-name="uniFB85" unicode="&#x68c;" horiz-adv-x="270" arabic-form="final" 
d="M270 115v67c0 63 -8 114 -23 153c-18 49 -50 84 -95 107l-6 -77c38 -11 65 -35 81 -70c13 -29 19 -66 19 -113h-151c-11 0 -20 2 -26 6c-7 5 -13 13 -16 24h-9c-5 -21 -7 -35 -7 -54c0 -24 29 -43 58 -43h175zM220 569l-63 33l-30 -57l64 -33zM131 533l-64 34l-30 -57
l65 -33z" />
    <glyph glyph-name="uni068D" unicode="&#x68d;" horiz-adv-x="270" arabic-form="isolated" 
d="M270 115v67c0 63 -8 114 -23 153c-18 49 -50 84 -95 107l-6 -77c38 -11 65 -35 81 -70c13 -29 19 -66 19 -113h-151c-11 0 -20 2 -26 6c-7 5 -13 13 -16 24h-9c-5 -21 -7 -35 -7 -54c0 -24 29 -43 58 -43h175zM244 22l-63 33l-30 -57l64 -33zM155 -14l-64 34l-30 -57
l65 -33z" />
    <glyph glyph-name="uniFB83" unicode="&#x68d;" horiz-adv-x="270" arabic-form="final" 
d="M270 115v67c0 63 -8 114 -23 153c-18 49 -50 84 -95 107l-6 -77c38 -11 65 -35 81 -70c13 -29 19 -66 19 -113h-151c-11 0 -20 2 -26 6c-7 5 -13 13 -16 24h-9c-5 -21 -7 -35 -7 -54c0 -24 29 -43 58 -43h175zM244 22l-63 33l-30 -57l64 -33zM155 -14l-64 34l-30 -57
l65 -33z" />
    <glyph glyph-name="uni068E" unicode="&#x68e;" horiz-adv-x="270" arabic-form="isolated" 
d="M270 115v67c0 63 -8 114 -23 153c-18 49 -50 84 -95 107l-6 -77c38 -11 65 -35 81 -70c13 -29 19 -66 19 -113h-151c-11 0 -20 2 -26 6c-7 5 -13 13 -16 24h-9c-5 -21 -7 -35 -7 -54c0 -24 29 -43 58 -43h175zM155 646l-64 34l-28 -58l62 -33zM233 577l-65 33l-29 -56
l63 -34zM142 541l-64 33l-28 -57l63 -32z" />
    <glyph glyph-name="uniFB87" unicode="&#x68e;" horiz-adv-x="270" arabic-form="final" 
d="M270 115v67c0 63 -8 114 -23 153c-18 49 -50 84 -95 107l-6 -77c38 -11 65 -35 81 -70c13 -29 19 -66 19 -113h-151c-11 0 -20 2 -26 6c-7 5 -13 13 -16 24h-9c-5 -21 -7 -35 -7 -54c0 -24 29 -43 58 -43h175zM155 646l-64 34l-28 -58l62 -33zM233 577l-65 33l-29 -56
l63 -34zM142 541l-64 33l-28 -57l63 -32z" />
    <glyph glyph-name="glyph1421" unicode="&#x68f;" horiz-adv-x="270" 
d="M270 115v67c0 63 -8 114 -23 153c-18 49 -50 84 -95 107l-6 -77c38 -11 65 -35 81 -70c13 -29 19 -66 19 -113h-151c-11 0 -20 2 -26 6c-7 5 -13 13 -16 24h-9c-5 -21 -7 -35 -7 -54c0 -24 29 -43 58 -43h175zM205 647l-63 33l-30 -57l64 -33zM192 541l-63 34l-29 -57
l63 -33zM116 611l-64 34l-30 -57l65 -33z" />
    <glyph glyph-name="glyph1423" unicode="&#x690;" horiz-adv-x="270" 
d="M270 115v67c0 63 -8 114 -23 153c-18 49 -50 84 -95 107l-6 -77c38 -11 65 -35 81 -70c13 -29 19 -66 19 -113h-151c-11 0 -20 2 -26 6c-7 5 -13 13 -16 24h-9c-5 -21 -7 -35 -7 -54c0 -24 29 -43 58 -43h175zM211 646l-64 34l-29 -58l62 -33zM229 549l-65 32l-29 -56
l64 -32zM139 513l-64 33l-29 -56l63 -33zM91 554l30 56l-65 35l-28 -56z" />
    <glyph glyph-name="uni0691" unicode="&#x691;" horiz-adv-x="391" arabic-form="isolated" 
d="M391 115v95c0 27 -6 52 -17 74c-11 20 -27 40 -48 60l-22 -61c18 -20 32 -39 41 -57c12 -23 18 -44 18 -65c0 -24 -12 -51 -35 -81c-23 -29 -51 -54 -84 -74c-36 -21 -71 -32 -104 -32c-31 0 -71 9 -104 16l-7 -16c19 -7 37 -13 55 -20c23 -9 42 -15 58 -19
c21 -5 40 -8 58 -8c19 0 44 10 75 29c32 19 59 43 80 70c24 30 36 60 36 89zM371 415v46c0 36 -16 54 -49 54c-12 0 -28 -5 -47 -14c-7 -3 -21 -10 -42 -23c2 9 3 16 4 19c2 11 3 20 3 29c0 22 -5 50 -16 83l3 -1c3 -1 5 -1 6 -2c5 17 7 30 7 38c-9 1 -15 2 -20 4
c-8 3 -13 8 -16 14c-5 -11 -8 -25 -11 -42l12 -5c3 -13 6 -23 8 -30c3 -14 5 -28 8 -41c2 -17 3 -31 3 -44c0 -11 -2 -23 -7 -35c-18 -12 -35 -18 -52 -18h-29v-32h235zM342 461c0 -9 -15 -14 -44 -14h-81c7 4 15 9 25 14c25 13 46 20 62 20c25 0 38 -7 38 -20z" />
    <glyph glyph-name="uniFB8D" unicode="&#x691;" horiz-adv-x="391" arabic-form="final" 
d="M391 115v95c0 27 -6 52 -17 74c-11 20 -27 40 -48 60l-22 -61c18 -20 32 -39 41 -57c12 -23 18 -44 18 -65c0 -24 -12 -51 -35 -81c-23 -29 -51 -54 -84 -74c-36 -21 -71 -32 -104 -32c-31 0 -71 9 -104 16l-7 -16c19 -7 37 -13 55 -20c23 -9 42 -15 58 -19
c21 -5 40 -8 58 -8c19 0 44 10 75 29c32 19 59 43 80 70c24 30 36 60 36 89zM371 415v46c0 36 -16 54 -49 54c-12 0 -28 -5 -47 -14c-7 -3 -21 -10 -42 -23c2 9 3 16 4 19c2 11 3 20 3 29c0 22 -5 50 -16 83l3 -1c3 -1 5 -1 6 -2c5 17 7 30 7 38c-9 1 -15 2 -20 4
c-8 3 -13 8 -16 14c-5 -11 -8 -25 -11 -42l12 -5c3 -13 6 -23 8 -30c3 -14 5 -28 8 -41c2 -17 3 -31 3 -44c0 -11 -2 -23 -7 -35c-18 -12 -35 -18 -52 -18h-29v-32h235zM342 461c0 -9 -15 -14 -44 -14h-81c7 4 15 9 25 14c25 13 46 20 62 20c25 0 38 -7 38 -20z" />
    <glyph glyph-name="glyph1426" unicode="&#x692;" horiz-adv-x="391" 
d="M391 115v95c0 27 -6 52 -17 74c-11 20 -27 40 -48 60l-22 -61c18 -20 32 -39 41 -57c12 -23 18 -44 18 -65c0 -24 -12 -51 -35 -81c-23 -29 -51 -54 -84 -74c-36 -21 -71 -32 -104 -32c-31 0 -71 9 -104 16l-7 -16c19 -7 37 -13 55 -20c23 -9 42 -15 58 -19
c21 -5 40 -8 58 -8c19 0 44 10 75 29c32 19 59 43 80 70c24 30 36 60 36 89zM348 507h-34l-30 -55l-30 55h-34l53 -90h22z" />
    <glyph glyph-name="glyph1429" unicode="&#x693;" horiz-adv-x="391" 
d="M391 115v95c0 27 -6 52 -17 74c-11 20 -27 40 -48 60l-22 -61c18 -20 32 -39 41 -57c12 -23 18 -44 18 -65c0 -24 -12 -51 -35 -81c-23 -29 -51 -54 -84 -74c-36 -21 -71 -32 -104 -32c-31 0 -71 9 -104 16l-7 -16c19 -7 37 -13 55 -20c23 -9 42 -15 58 -19
c21 -5 40 -8 58 -8c19 0 44 10 75 29c32 19 59 43 80 70c24 30 36 60 36 89zM390 -39c0 31 -22 58 -50 58c-31 0 -54 -37 -54 -76c0 -28 13 -45 41 -45c36 0 63 31 63 63zM366 -50c0 -9 -10 -13 -23 -13s-22 1 -29 4c-9 3 -13 10 -13 20c0 12 10 26 25 26c6 0 14 -4 24 -13
c11 -9 16 -17 16 -24z" />
    <glyph glyph-name="glyph1431" unicode="&#x694;" horiz-adv-x="391" 
d="M391 115v95c0 27 -6 52 -17 74c-11 20 -27 40 -48 60l-22 -61c18 -20 32 -39 41 -57c12 -23 18 -44 18 -65c0 -24 -12 -51 -35 -81c-23 -29 -51 -54 -84 -74c-36 -21 -71 -32 -104 -32c-31 0 -71 9 -104 16l-7 -16c19 -7 37 -13 55 -20c23 -9 42 -15 58 -19
c21 -5 40 -8 58 -8c19 0 44 10 75 29c32 19 59 43 80 70c24 30 36 60 36 89zM406 -58l-65 32l-30 -56l64 -33z" />
    <glyph glyph-name="glyph1433" unicode="&#x695;" horiz-adv-x="391" 
d="M391 115v95c0 27 -6 52 -17 74c-11 20 -27 40 -48 60l-22 -61c18 -20 32 -39 41 -57c12 -23 18 -44 18 -65c0 -24 -12 -51 -35 -81c-23 -29 -51 -54 -84 -74c-36 -21 -71 -32 -104 -32c-31 0 -71 9 -104 16l-7 -16c19 -7 37 -13 55 -20c23 -9 42 -15 58 -19
c21 -5 40 -8 58 -8c19 0 44 10 75 29c32 19 59 43 80 70c24 30 36 60 36 89zM388 -67h-34l-30 -55l-30 55h-34l53 -90h22z" />
    <glyph glyph-name="glyph1435" unicode="&#x696;" horiz-adv-x="391" 
d="M391 115v95c0 27 -6 52 -17 74c-11 20 -27 40 -48 60l-22 -61c18 -20 32 -39 41 -57c12 -23 18 -44 18 -65c0 -24 -12 -51 -35 -81c-23 -29 -51 -54 -84 -74c-36 -21 -71 -32 -104 -32c-31 0 -71 9 -104 16l-7 -16c19 -7 37 -13 55 -20c23 -9 42 -15 58 -19
c21 -5 40 -8 58 -8c19 0 44 10 75 29c32 19 59 43 80 70c24 30 36 60 36 89zM406 -58l-65 32l-30 -56l64 -33zM234 137l-65 32l-30 -56l64 -33z" />
    <glyph glyph-name="glyph1437" unicode="&#x697;" horiz-adv-x="391" 
d="M391 115v95c0 27 -6 52 -17 74c-11 20 -27 40 -48 60l-22 -61c18 -20 32 -39 41 -57c12 -23 18 -44 18 -65c0 -24 -12 -51 -35 -81c-23 -29 -51 -54 -84 -74c-36 -21 -71 -32 -104 -32c-31 0 -71 9 -104 16l-7 -16c19 -7 37 -13 55 -20c23 -9 42 -15 58 -19
c21 -5 40 -8 58 -8c19 0 44 10 75 29c32 19 59 43 80 70c24 30 36 60 36 89zM345 476l-63 33l-30 -57l64 -33zM256 440l-64 34l-30 -57l65 -33z" />
    <glyph glyph-name="glyph1439" unicode="&#x699;" horiz-adv-x="391" 
d="M391 115v95c0 27 -6 52 -17 74c-11 20 -27 40 -48 60l-22 -61c18 -20 32 -39 41 -57c12 -23 18 -44 18 -65c0 -24 -12 -51 -35 -81c-23 -29 -51 -54 -84 -74c-36 -21 -71 -32 -104 -32c-31 0 -71 9 -104 16l-7 -16c19 -7 37 -13 55 -20c23 -9 42 -15 58 -19
c21 -5 40 -8 58 -8c19 0 44 10 75 29c32 19 59 43 80 70c24 30 36 60 36 89zM328 573l-64 34l-29 -58l62 -33zM346 476l-65 32l-29 -56l64 -32zM256 440l-64 33l-29 -56l63 -33zM208 481l30 56l-65 35l-28 -56z" />
    <glyph glyph-name="glyph1442" unicode="&#x69a;" horiz-adv-x="425" 
d="M425 115v93c0 29 -3 53 -9 71c-4 12 -11 26 -22 42l-25 -43c11 -14 17 -23 19 -26c11 -16 16 -31 16 -46c0 -13 -9 -22 -24 -22s-26 5 -35 14c-11 11 -19 32 -26 61l-9 36l-16 -23c4 -17 6 -32 6 -48c0 -15 -5 -26 -16 -33c-9 -6 -24 -9 -43 -9h-26c-17 0 -31 6 -43 18
c-10 9 -19 24 -27 43c-5 11 -11 29 -19 52l-16 -23c5 -19 6 -32 6 -48c0 -19 -8 -31 -23 -36c-9 -4 -24 -6 -45 -6h-76v-67h76c48 0 61 5 85 24c13 -8 24 -13 33 -16c14 -5 27 -8 40 -8h26c23 0 42 2 55 7c9 3 19 9 32 18c19 -16 43 -25 76 -25h30zM312 442l-65 32l-30 -56
l64 -33zM391 20l-65 32l-30 -56l64 -33z" />
    <glyph glyph-name="glyph1443" unicode="&#x69a;" horiz-adv-x="425" 
d="M425 115v93c0 29 -3 53 -9 71c-4 12 -11 26 -22 42l-25 -43c11 -14 17 -23 19 -26c11 -16 16 -31 16 -46c0 -13 -9 -22 -24 -22s-26 5 -35 14c-11 11 -19 32 -26 61l-9 36l-16 -23c4 -17 6 -32 6 -48c0 -15 -5 -26 -16 -33c-9 -6 -24 -9 -43 -9h-26c-17 0 -31 6 -43 18
c-10 9 -19 24 -27 43c-5 11 -11 29 -19 52l-16 -23c5 -19 6 -32 6 -48c0 -19 -8 -31 -23 -36c-9 -4 -24 -6 -45 -6h-76v-67h76c48 0 61 5 85 24c13 -8 24 -13 33 -16c14 -5 27 -8 40 -8h26c23 0 42 2 55 7c9 3 19 9 32 18c19 -16 43 -25 76 -25h30zM312 442l-65 32l-30 -56
l64 -33zM391 20l-65 32l-30 -56l64 -33z" />
    <glyph glyph-name="glyph1441" unicode="&#x69a;" horiz-adv-x="657" 
d="M657 115v93c0 31 -3 55 -9 72c-3 7 -10 21 -22 41l-26 -43c10 -11 18 -22 24 -33c8 -15 12 -28 12 -41c0 -12 -7 -20 -19 -20c-19 0 -34 6 -45 19c-10 11 -18 30 -24 55l-6 37l-15 -23c4 -19 5 -32 5 -48c0 -13 -4 -23 -13 -30c-11 -8 -28 -12 -53 -12h-48
c0 41 -3 72 -10 95c-5 17 -14 36 -27 57l-32 -80c14 -17 25 -35 32 -53c10 -24 15 -49 15 -75c0 -39 -24 -69 -73 -90c-40 -17 -85 -26 -135 -26c-85 0 -133 34 -133 98c0 36 9 73 45 149l-16 7c-14 -29 -24 -51 -29 -65c-19 -47 -31 -93 -31 -138c0 -41 15 -71 45 -91
c28 -19 68 -28 120 -28c58 0 106 11 143 32c31 17 54 41 69 70c11 23 17 46 17 71h48c23 0 41 2 53 7c9 3 18 9 29 19c25 -19 47 -26 78 -26h31zM546 442l-65 32l-30 -56l64 -33zM624 20l-65 32l-30 -56l64 -33z" />
    <glyph glyph-name="glyph1446" unicode="&#x69b;" horiz-adv-x="425" 
d="M425 115v93c0 29 -3 53 -9 71c-4 12 -11 26 -22 42l-25 -43c11 -14 17 -23 19 -26c11 -16 16 -31 16 -46c0 -13 -9 -22 -24 -22s-26 5 -35 14c-11 11 -19 32 -26 61l-9 36l-16 -23c4 -17 6 -32 6 -48c0 -15 -5 -26 -16 -33c-9 -6 -24 -9 -43 -9h-26c-17 0 -31 6 -43 18
c-10 9 -19 24 -27 43c-5 11 -11 29 -19 52l-16 -23c5 -19 6 -32 6 -48c0 -19 -8 -31 -23 -36c-9 -4 -24 -6 -45 -6h-76v-67h76c48 0 61 5 85 24c13 -8 24 -13 33 -16c14 -5 27 -8 40 -8h26c23 0 42 2 55 7c9 3 19 9 32 18c19 -16 43 -25 76 -25h30zM424 22l-63 33l-30 -57
l64 -33zM411 -84l-63 34l-29 -57l63 -33zM335 -14l-64 34l-30 -57l65 -33z" />
    <glyph glyph-name="glyph1447" unicode="&#x69b;" horiz-adv-x="425" 
d="M425 115v93c0 29 -3 53 -9 71c-4 12 -11 26 -22 42l-25 -43c11 -14 17 -23 19 -26c11 -16 16 -31 16 -46c0 -13 -9 -22 -24 -22s-26 5 -35 14c-11 11 -19 32 -26 61l-9 36l-16 -23c4 -17 6 -32 6 -48c0 -15 -5 -26 -16 -33c-9 -6 -24 -9 -43 -9h-26c-17 0 -31 6 -43 18
c-10 9 -19 24 -27 43c-5 11 -11 29 -19 52l-16 -23c5 -19 6 -32 6 -48c0 -19 -8 -31 -23 -36c-9 -4 -24 -6 -45 -6h-76v-67h76c48 0 61 5 85 24c13 -8 24 -13 33 -16c14 -5 27 -8 40 -8h26c23 0 42 2 55 7c9 3 19 9 32 18c19 -16 43 -25 76 -25h30zM424 22l-63 33l-30 -57
l64 -33zM411 -84l-63 34l-29 -57l63 -33zM335 -14l-64 34l-30 -57l65 -33z" />
    <glyph glyph-name="glyph1445" unicode="&#x69b;" horiz-adv-x="657" 
d="M657 115v93c0 31 -3 55 -9 72c-3 7 -10 21 -22 41l-26 -43c10 -11 18 -22 24 -33c8 -15 12 -28 12 -41c0 -12 -7 -20 -19 -20c-19 0 -34 6 -45 19c-10 11 -18 30 -24 55l-6 37l-15 -23c4 -19 5 -32 5 -48c0 -13 -4 -23 -13 -30c-11 -8 -28 -12 -53 -12h-48
c0 41 -3 72 -10 95c-5 17 -14 36 -27 57l-32 -80c14 -17 25 -35 32 -53c10 -24 15 -49 15 -75c0 -39 -24 -69 -73 -90c-40 -17 -85 -26 -135 -26c-85 0 -133 34 -133 98c0 36 9 73 45 149l-16 7c-14 -29 -24 -51 -29 -65c-19 -47 -31 -93 -31 -138c0 -41 15 -71 45 -91
c28 -19 68 -28 120 -28c58 0 106 11 143 32c31 17 54 41 69 70c11 23 17 46 17 71h48c23 0 41 2 53 7c9 3 18 9 29 19c25 -19 47 -26 78 -26h31zM657 22l-63 33l-30 -57l64 -33zM644 -84l-63 34l-29 -57l63 -33zM568 -14l-64 34l-30 -57l65 -33z" />
    <glyph glyph-name="glyph1450" unicode="&#x69c;" horiz-adv-x="425" 
d="M425 115v93c0 29 -3 53 -9 71c-4 12 -11 26 -22 42l-25 -43c11 -14 17 -23 19 -26c11 -16 16 -31 16 -46c0 -13 -9 -22 -24 -22s-26 5 -35 14c-11 11 -19 32 -26 61l-9 36l-16 -23c4 -17 6 -32 6 -48c0 -15 -5 -26 -16 -33c-9 -6 -24 -9 -43 -9h-26c-17 0 -31 6 -43 18
c-10 9 -19 24 -27 43c-5 11 -11 29 -19 52l-16 -23c5 -19 6 -32 6 -48c0 -19 -8 -31 -23 -36c-9 -4 -24 -6 -45 -6h-76v-67h76c48 0 61 5 85 24c13 -8 24 -13 33 -16c14 -5 27 -8 40 -8h26c23 0 42 2 55 7c9 3 19 9 32 18c19 -16 43 -25 76 -25h30zM424 22l-63 33l-30 -57
l64 -33zM411 -84l-63 34l-29 -57l63 -33zM335 -14l-64 34l-30 -57l65 -33zM272 545l-64 34l-28 -58l62 -33zM350 476l-65 33l-29 -56l63 -34zM259 440l-64 33l-28 -57l63 -32z" />
    <glyph glyph-name="glyph1451" unicode="&#x69c;" horiz-adv-x="425" 
d="M425 115v93c0 29 -3 53 -9 71c-4 12 -11 26 -22 42l-25 -43c11 -14 17 -23 19 -26c11 -16 16 -31 16 -46c0 -13 -9 -22 -24 -22s-26 5 -35 14c-11 11 -19 32 -26 61l-9 36l-16 -23c4 -17 6 -32 6 -48c0 -15 -5 -26 -16 -33c-9 -6 -24 -9 -43 -9h-26c-17 0 -31 6 -43 18
c-10 9 -19 24 -27 43c-5 11 -11 29 -19 52l-16 -23c5 -19 6 -32 6 -48c0 -19 -8 -31 -23 -36c-9 -4 -24 -6 -45 -6h-76v-67h76c48 0 61 5 85 24c13 -8 24 -13 33 -16c14 -5 27 -8 40 -8h26c23 0 42 2 55 7c9 3 19 9 32 18c19 -16 43 -25 76 -25h30zM424 22l-63 33l-30 -57
l64 -33zM411 -84l-63 34l-29 -57l63 -33zM335 -14l-64 34l-30 -57l65 -33zM272 545l-64 34l-28 -58l62 -33zM350 476l-65 33l-29 -56l63 -34zM259 440l-64 33l-28 -57l63 -32z" />
    <glyph glyph-name="glyph1449" unicode="&#x69c;" horiz-adv-x="657" 
d="M657 115v93c0 31 -3 55 -9 72c-3 7 -10 21 -22 41l-26 -43c10 -11 18 -22 24 -33c8 -15 12 -28 12 -41c0 -12 -7 -20 -19 -20c-19 0 -34 6 -45 19c-10 11 -18 30 -24 55l-6 37l-15 -23c4 -19 5 -32 5 -48c0 -13 -4 -23 -13 -30c-11 -8 -28 -12 -53 -12h-48
c0 41 -3 72 -10 95c-5 17 -14 36 -27 57l-32 -80c14 -17 25 -35 32 -53c10 -24 15 -49 15 -75c0 -39 -24 -69 -73 -90c-40 -17 -85 -26 -135 -26c-85 0 -133 34 -133 98c0 36 9 73 45 149l-16 7c-14 -29 -24 -51 -29 -65c-19 -47 -31 -93 -31 -138c0 -41 15 -71 45 -91
c28 -19 68 -28 120 -28c58 0 106 11 143 32c31 17 54 41 69 70c11 23 17 46 17 71h48c23 0 41 2 53 7c9 3 18 9 29 19c25 -19 47 -26 78 -26h31zM657 22l-63 33l-30 -57l64 -33zM644 -84l-63 34l-29 -57l63 -33zM568 -14l-64 34l-30 -57l65 -33zM506 545l-64 34l-28 -58
l62 -33zM584 476l-65 33l-29 -56l63 -34zM493 440l-64 33l-28 -57l63 -32z" />
    <glyph glyph-name="glyph1454" unicode="&#x69d;" horiz-adv-x="677" 
d="M677 115v98c0 35 -8 61 -25 80c-18 21 -45 31 -80 31c-23 0 -44 -3 -64 -9c-17 -6 -35 -16 -56 -30c-9 -5 -32 -21 -69 -47c-23 -17 -51 -30 -83 -41c-29 -10 -54 -15 -76 -15c-23 0 -43 10 -60 31c-16 19 -29 47 -38 82l-16 -23c4 -19 6 -32 6 -48c0 -19 -8 -31 -23 -36
c-9 -4 -24 -6 -45 -6h-76v-67h76c48 0 62 5 85 24c13 -8 25 -14 34 -17c13 -5 27 -7 40 -7h470zM613 212c0 -20 -25 -30 -81 -30h-180l87 45c37 17 69 26 95 26c41 0 79 -14 79 -41zM579 22l-63 33l-30 -57l64 -33zM490 -14l-64 34l-30 -57l65 -33z" />
    <glyph glyph-name="glyph1455" unicode="&#x69d;" horiz-adv-x="677" 
d="M677 115v98c0 35 -8 61 -25 80c-18 21 -45 31 -80 31c-23 0 -44 -3 -64 -9c-17 -6 -35 -16 -56 -30c-9 -5 -32 -21 -69 -47c-23 -17 -51 -30 -83 -41c-29 -10 -54 -15 -76 -15c-23 0 -43 10 -60 31c-16 19 -29 47 -38 82l-16 -23c4 -19 6 -32 6 -48c0 -19 -8 -31 -23 -36
c-9 -4 -24 -6 -45 -6h-76v-67h76c48 0 62 5 85 24c13 -8 25 -14 34 -17c13 -5 27 -7 40 -7h470zM613 212c0 -20 -25 -30 -81 -30h-180l87 45c37 17 69 26 95 26c41 0 79 -14 79 -41zM579 22l-63 33l-30 -57l64 -33zM490 -14l-64 34l-30 -57l65 -33z" />
    <glyph glyph-name="glyph1453" unicode="&#x69d;" horiz-adv-x="878" 
d="M878 115v98c0 35 -8 61 -24 80c-17 21 -44 31 -80 31c-23 0 -45 -3 -64 -9c-17 -6 -37 -16 -58 -30c-7 -5 -29 -20 -68 -47c-25 -19 -50 -32 -73 -41c-27 -10 -55 -15 -86 -15h-7c0 41 -3 72 -10 95c-5 17 -14 36 -27 57l-32 -80c14 -17 25 -35 32 -53
c10 -24 15 -49 15 -75c0 -39 -24 -69 -73 -90c-40 -17 -85 -26 -135 -26c-85 0 -133 34 -133 98c0 36 9 73 45 149l-16 7c-14 -29 -24 -51 -29 -65c-19 -47 -31 -93 -31 -138c0 -41 15 -71 45 -91c28 -19 68 -28 120 -28c76 0 132 17 169 51c30 27 49 67 56 122h464z
M815 212c0 -20 -31 -30 -82 -30h-180l57 30c25 13 46 23 62 29c23 8 44 12 63 12c43 0 80 -14 80 -41zM736 22l-63 33l-30 -57l64 -33zM647 -14l-64 34l-30 -57l65 -33z" />
    <glyph glyph-name="glyph1458" unicode="&#x69e;" horiz-adv-x="677" 
d="M677 115v98c0 35 -8 61 -25 80c-18 21 -45 31 -80 31c-23 0 -44 -3 -64 -9c-17 -6 -35 -16 -56 -30c-9 -5 -32 -21 -69 -47c-23 -17 -51 -30 -83 -41c-29 -10 -54 -15 -76 -15c-23 0 -43 10 -60 31c-16 19 -29 47 -38 82l-16 -23c4 -19 6 -32 6 -48c0 -19 -8 -31 -23 -36
c-9 -4 -24 -6 -45 -6h-76v-67h76c48 0 62 5 85 24c13 -8 25 -14 34 -17c13 -5 27 -7 40 -7h470zM613 212c0 -20 -25 -30 -81 -30h-180l87 45c37 17 69 26 95 26c41 0 79 -14 79 -41zM506 545l-64 34l-28 -58l62 -33zM584 476l-65 33l-29 -56l63 -34zM493 440l-64 33l-28 -57
l63 -32z" />
    <glyph glyph-name="glyph1459" unicode="&#x69e;" horiz-adv-x="677" 
d="M677 115v98c0 35 -8 61 -25 80c-18 21 -45 31 -80 31c-23 0 -44 -3 -64 -9c-17 -6 -35 -16 -56 -30c-9 -5 -32 -21 -69 -47c-23 -17 -51 -30 -83 -41c-29 -10 -54 -15 -76 -15c-23 0 -43 10 -60 31c-16 19 -29 47 -38 82l-16 -23c4 -19 6 -32 6 -48c0 -19 -8 -31 -23 -36
c-9 -4 -24 -6 -45 -6h-76v-67h76c48 0 62 5 85 24c13 -8 25 -14 34 -17c13 -5 27 -7 40 -7h470zM613 212c0 -20 -25 -30 -81 -30h-180l87 45c37 17 69 26 95 26c41 0 79 -14 79 -41zM506 545l-64 34l-28 -58l62 -33zM584 476l-65 33l-29 -56l63 -34zM493 440l-64 33l-28 -57
l63 -32z" />
    <glyph glyph-name="glyph1457" unicode="&#x69e;" horiz-adv-x="878" 
d="M878 115v98c0 35 -8 61 -24 80c-17 21 -44 31 -80 31c-23 0 -45 -3 -64 -9c-17 -6 -37 -16 -58 -30c-7 -5 -29 -20 -68 -47c-25 -19 -50 -32 -73 -41c-27 -10 -55 -15 -86 -15h-7c0 41 -3 72 -10 95c-5 17 -14 36 -27 57l-32 -80c14 -17 25 -35 32 -53
c10 -24 15 -49 15 -75c0 -39 -24 -69 -73 -90c-40 -17 -85 -26 -135 -26c-85 0 -133 34 -133 98c0 36 9 73 45 149l-16 7c-14 -29 -24 -51 -29 -65c-19 -47 -31 -93 -31 -138c0 -41 15 -71 45 -91c28 -19 68 -28 120 -28c76 0 132 17 169 51c30 27 49 67 56 122h464z
M815 212c0 -20 -31 -30 -82 -30h-180l57 30c25 13 46 23 62 29c23 8 44 12 63 12c43 0 80 -14 80 -41zM663 545l-64 34l-28 -58l62 -33zM741 476l-65 33l-29 -56l63 -34zM650 440l-64 33l-28 -57l63 -32z" />
    <glyph glyph-name="glyph1461" unicode="&#x69f;" horiz-adv-x="465" 
d="M465 115v98c0 35 -8 61 -23 80c-18 21 -44 31 -79 31c-28 0 -61 -9 -100 -27c-13 -6 -42 -22 -87 -49c3 17 5 30 7 38c3 23 5 43 5 62c0 43 -12 114 -31 175l5 -2c8 -3 13 -4 15 -4c3 11 6 20 7 27s3 25 6 52c-19 1 -35 5 -47 10c-15 7 -24 16 -28 29
c-13 -28 -20 -56 -23 -87l24 -13c7 -25 12 -46 16 -63c8 -33 14 -62 18 -86c5 -34 8 -65 8 -93c0 -23 -7 -51 -16 -74c-23 -14 -43 -24 -60 -29c-15 -5 -32 -7 -50 -7l-60 -1v-67h493zM404 212c0 -20 -31 -30 -93 -30h-170c18 11 36 21 53 30c23 12 44 22 65 29
c25 8 46 12 65 12c52 0 80 -14 80 -41zM351 545l-64 34l-28 -58l62 -33zM429 476l-65 33l-29 -56l63 -34zM338 440l-64 33l-28 -57l63 -32z" />
    <glyph glyph-name="glyph1464" unicode="&#x6a0;" horiz-adv-x="420" 
d="M376 236c-49 -15 -88 -25 -115 -31s-62 -12 -105 -18c-40 23 -69 59 -69 84c0 27 43 44 116 44c31 0 56 -6 92 -15l8 7c-21 25 -36 41 -45 48c-21 15 -47 23 -79 23c-81 0 -138 -46 -138 -109c0 -29 10 -62 26 -87h-95v-67h98c43 0 91 5 143 14c52 10 97 22 136 36z
M163 584l-64 34l-28 -58l62 -33zM241 515l-65 33l-29 -56l63 -34zM150 479l-64 33l-28 -57l63 -32z" />
    <glyph glyph-name="glyph1465" unicode="&#x6a0;" horiz-adv-x="316" 
d="M316 115v67h-58c-17 0 -46 10 -54 22c19 16 32 28 39 37c9 12 14 24 14 35c0 21 -12 37 -37 47c-18 7 -42 11 -72 11c-33 0 -57 -5 -71 -14c-15 -11 -23 -30 -23 -59v-23h8c9 11 16 14 25 14c11 0 20 -5 29 -16l16 -20c-21 -13 -43 -22 -64 -27c-18 -5 -38 -7 -60 -7h-36
v-67h36c35 0 66 5 93 16c23 8 43 20 60 36c9 -17 24 -31 45 -41c17 -7 35 -11 52 -11h58zM155 545l-64 34l-28 -58l62 -33zM233 476l-65 33l-29 -56l63 -34zM142 440l-64 33l-28 -57l63 -32z" />
    <glyph glyph-name="glyph1463" unicode="&#x6a0;" horiz-adv-x="360" 
d="M388 -107l-1 3c-53 0 -95 2 -126 5c-59 7 -105 19 -138 38c-45 24 -67 58 -67 102c0 19 7 40 22 61c12 17 28 34 49 52c15 13 33 25 52 38c25 -56 66 -77 145 -77h36v67h-36c-40 0 -63 13 -92 48c6 5 13 11 22 18c10 9 15 20 15 33c0 19 -9 35 -27 48
c-16 11 -35 16 -58 16c-33 0 -57 -12 -71 -37c-7 -11 -13 -30 -18 -57h7c7 9 13 14 20 14c11 0 22 -9 26 -26c-27 -26 -46 -45 -57 -57c-22 -25 -38 -49 -49 -73c-14 -31 -21 -64 -21 -99c0 -54 18 -96 55 -126c29 -23 68 -39 119 -47c27 -5 65 -7 114 -7zM178 545l-64 34
l-28 -58l62 -33zM256 476l-65 33l-29 -56l63 -34zM165 440l-64 33l-28 -57l63 -32z" />
    <glyph glyph-name="glyph1469" unicode="&#x6a2;" horiz-adv-x="214" 
d="M214 115v101c0 56 -7 104 -21 145c-17 50 -42 75 -74 75c-23 0 -42 -15 -57 -46c-13 -27 -19 -59 -19 -95c0 -20 7 -36 20 -47c12 -9 27 -14 46 -14c10 0 21 1 32 4c7 2 18 5 31 10c5 -21 8 -43 8 -66h-208v-67h242zM150 317c-12 -7 -26 -12 -38 -12c-23 0 -35 10 -35 31
c0 16 11 29 24 29c10 0 20 -6 31 -19c9 -9 15 -19 18 -29zM156 20l-65 32l-30 -56l64 -33z" />
    <glyph glyph-name="glyph1470" unicode="&#x6a2;" horiz-adv-x="210" 
d="M210 115v134c0 37 -5 68 -16 95c-14 34 -34 51 -61 51c-23 0 -42 -14 -59 -41c-15 -25 -22 -51 -22 -78c0 -31 15 -53 46 -66c13 -5 42 -11 87 -18c-28 -8 -46 -10 -78 -10h-135v-67h238zM175 251c-27 2 -44 4 -51 7c-21 7 -32 20 -32 40c0 15 12 28 27 28s28 -10 39 -29
c5 -10 11 -25 17 -46zM156 20l-65 32l-30 -56l64 -33z" />
    <glyph glyph-name="glyph1468" unicode="&#x6a2;" horiz-adv-x="631" 
d="M631 115v113c0 47 -5 83 -15 108c-11 31 -30 46 -55 46c-23 0 -43 -16 -61 -47c-16 -27 -24 -53 -24 -77c0 -19 8 -34 24 -46c15 -11 37 -21 68 -30h-288c-164 0 -236 33 -236 102c0 19 5 38 28 83l-15 9c-5 -10 -12 -26 -21 -47c-14 -31 -21 -58 -21 -81
c0 -35 11 -63 34 -84c21 -18 51 -31 91 -40c33 -6 78 -9 133 -9h358zM590 233c-22 5 -37 10 -45 15c-11 7 -16 16 -16 28c0 20 8 31 27 31c12 0 21 -7 27 -22c5 -12 7 -29 7 -52zM609 20l-65 32l-30 -56l64 -33z" />
    <glyph glyph-name="glyph1473" unicode="&#x6a3;" horiz-adv-x="214" 
d="M214 115v101c0 56 -7 104 -21 145c-17 50 -42 75 -74 75c-23 0 -42 -15 -57 -46c-13 -27 -19 -59 -19 -95c0 -20 7 -36 20 -47c12 -9 27 -14 46 -14c10 0 21 1 32 4c7 2 18 5 31 10c5 -21 8 -43 8 -66h-208v-67h242zM150 317c-12 -7 -26 -12 -38 -12c-23 0 -35 10 -35 31
c0 16 11 29 24 29c10 0 20 -6 31 -19c9 -9 15 -19 18 -29zM156 20l-65 32l-30 -56l64 -33zM133 520l-65 32l-30 -56l64 -33z" />
    <glyph glyph-name="glyph1474" unicode="&#x6a3;" horiz-adv-x="210" 
d="M210 115v134c0 37 -5 68 -16 95c-14 34 -34 51 -61 51c-23 0 -42 -14 -59 -41c-15 -25 -22 -51 -22 -78c0 -31 15 -53 46 -66c13 -5 42 -11 87 -18c-28 -8 -46 -10 -78 -10h-135v-67h238zM175 251c-27 2 -44 4 -51 7c-21 7 -32 20 -32 40c0 15 12 28 27 28s28 -10 39 -29
c5 -10 11 -25 17 -46zM156 20l-65 32l-30 -56l64 -33zM133 520l-65 32l-30 -56l64 -33z" />
    <glyph glyph-name="glyph1472" unicode="&#x6a3;" horiz-adv-x="631" 
d="M631 115v113c0 47 -5 83 -15 108c-11 31 -30 46 -55 46c-23 0 -43 -16 -61 -47c-16 -27 -24 -53 -24 -77c0 -19 8 -34 24 -46c15 -11 37 -21 68 -30h-288c-164 0 -236 33 -236 102c0 19 5 38 28 83l-15 9c-5 -10 -12 -26 -21 -47c-14 -31 -21 -58 -21 -81
c0 -35 11 -63 34 -84c21 -18 51 -31 91 -40c33 -6 78 -9 133 -9h358zM590 233c-22 5 -37 10 -45 15c-11 7 -16 16 -16 28c0 20 8 31 27 31c12 0 21 -7 27 -22c5 -12 7 -29 7 -52zM391 20l-65 32l-30 -56l64 -33zM585 481l-65 32l-30 -56l64 -33z" />
    <glyph glyph-name="uni06A4" unicode="&#x6a4;" horiz-adv-x="631" arabic-form="isolated" 
d="M631 115v113c0 47 -5 83 -15 108c-11 31 -30 46 -55 46c-23 0 -43 -16 -61 -47c-16 -27 -24 -53 -24 -77c0 -19 8 -34 24 -46c15 -11 37 -21 68 -30h-288c-164 0 -236 33 -236 102c0 19 5 38 28 83l-15 9c-5 -10 -12 -26 -21 -47c-14 -31 -21 -58 -21 -81
c0 -35 11 -63 34 -84c21 -18 51 -31 91 -40c33 -6 78 -9 133 -9h358zM590 233c-22 5 -37 10 -45 15c-11 7 -16 16 -16 28c0 20 8 31 27 31c12 0 21 -7 27 -22c5 -12 7 -29 7 -52zM545 584l-64 34l-28 -58l62 -33zM623 515l-65 33l-29 -56l63 -34zM532 479l-64 33l-28 -57
l63 -32z" />
    <glyph glyph-name="uniFB6B" unicode="&#x6a4;" horiz-adv-x="631" arabic-form="final" 
d="M631 115v113c0 47 -5 83 -15 108c-11 31 -30 46 -55 46c-23 0 -43 -16 -61 -47c-16 -27 -24 -53 -24 -77c0 -19 8 -34 24 -46c15 -11 37 -21 68 -30h-288c-164 0 -236 33 -236 102c0 19 5 38 28 83l-15 9c-5 -10 -12 -26 -21 -47c-14 -31 -21 -58 -21 -81
c0 -35 11 -63 34 -84c21 -18 51 -31 91 -40c33 -6 78 -9 133 -9h358zM590 233c-22 5 -37 10 -45 15c-11 7 -16 16 -16 28c0 20 8 31 27 31c12 0 21 -7 27 -22c5 -12 7 -29 7 -52zM545 584l-64 34l-28 -58l62 -33zM623 515l-65 33l-29 -56l63 -34zM532 479l-64 33l-28 -57
l63 -32z" />
    <glyph glyph-name="uniFB6C" unicode="&#x6a4;" horiz-adv-x="214" arabic-form="initial" 
d="M214 115v101c0 56 -7 104 -21 145c-17 50 -42 75 -74 75c-23 0 -42 -15 -57 -46c-13 -27 -19 -59 -19 -95c0 -20 7 -36 20 -47c12 -9 27 -14 46 -14c10 0 21 1 32 4c7 2 18 5 31 10c5 -21 8 -43 8 -66h-208v-67h242zM150 317c-12 -7 -26 -12 -38 -12c-23 0 -35 10 -35 31
c0 16 11 29 24 29c10 0 20 -6 31 -19c9 -9 15 -19 18 -29zM100 623l-64 34l-28 -58l62 -33zM178 554l-65 33l-29 -56l63 -34zM87 518l-64 33l-28 -57l63 -32z" />
    <glyph glyph-name="uniFB6D" unicode="&#x6a4;" horiz-adv-x="210" arabic-form="medial" 
d="M210 115v134c0 37 -5 68 -16 95c-14 34 -34 51 -61 51c-23 0 -42 -14 -59 -41c-15 -25 -22 -51 -22 -78c0 -31 15 -53 46 -66c13 -5 42 -11 87 -18c-28 -8 -46 -10 -78 -10h-135v-67h238zM175 251c-27 2 -44 4 -51 7c-21 7 -32 20 -32 40c0 15 12 28 27 28s28 -10 39 -29
c5 -10 11 -25 17 -46zM108 623l-64 34l-28 -58l62 -33zM186 554l-65 33l-29 -56l63 -34zM95 518l-64 33l-28 -57l63 -32z" />
    <glyph glyph-name="glyph1481" unicode="&#x6a5;" horiz-adv-x="214" 
d="M214 115v101c0 56 -7 104 -21 145c-17 50 -42 75 -74 75c-23 0 -42 -15 -57 -46c-13 -27 -19 -59 -19 -95c0 -20 7 -36 20 -47c12 -9 27 -14 46 -14c10 0 21 1 32 4c7 2 18 5 31 10c5 -21 8 -43 8 -66h-208v-67h242zM150 317c-12 -7 -26 -12 -38 -12c-23 0 -35 10 -35 31
c0 16 11 29 24 29c10 0 20 -6 31 -19c9 -9 15 -19 18 -29zM205 22l-63 33l-30 -57l64 -33zM192 -84l-63 34l-29 -57l63 -33zM116 -14l-64 34l-30 -57l65 -33z" />
    <glyph glyph-name="glyph1482" unicode="&#x6a5;" horiz-adv-x="210" 
d="M210 115v134c0 37 -5 68 -16 95c-14 34 -34 51 -61 51c-23 0 -42 -14 -59 -41c-15 -25 -22 -51 -22 -78c0 -31 15 -53 46 -66c13 -5 42 -11 87 -18c-28 -8 -46 -10 -78 -10h-135v-67h238zM175 251c-27 2 -44 4 -51 7c-21 7 -32 20 -32 40c0 15 12 28 27 28s28 -10 39 -29
c5 -10 11 -25 17 -46zM205 22l-63 33l-30 -57l64 -33zM192 -84l-63 34l-29 -57l63 -33zM116 -14l-64 34l-30 -57l65 -33z" />
    <glyph glyph-name="glyph1480" unicode="&#x6a5;" horiz-adv-x="631" 
d="M631 115v113c0 47 -5 83 -15 108c-11 31 -30 46 -55 46c-23 0 -43 -16 -61 -47c-16 -27 -24 -53 -24 -77c0 -19 8 -34 24 -46c15 -11 37 -21 68 -30h-288c-164 0 -236 33 -236 102c0 19 5 38 28 83l-15 9c-5 -10 -12 -26 -21 -47c-14 -31 -21 -58 -21 -81
c0 -35 11 -63 34 -84c21 -18 51 -31 91 -40c33 -6 78 -9 133 -9h358zM590 233c-22 5 -37 10 -45 15c-11 7 -16 16 -16 28c0 20 8 31 27 31c12 0 21 -7 27 -22c5 -12 7 -29 7 -52zM657 22l-63 33l-30 -57l64 -33zM644 -84l-63 34l-29 -57l63 -33zM568 -14l-64 34l-30 -57
l65 -33z" />
    <glyph glyph-name="uni06A6" unicode="&#x6a6;" horiz-adv-x="631" arabic-form="isolated" 
d="M631 115v113c0 47 -5 83 -15 108c-11 31 -30 46 -55 46c-23 0 -43 -16 -61 -47c-16 -27 -24 -53 -24 -77c0 -19 8 -34 24 -46c15 -11 37 -21 68 -30h-288c-164 0 -236 33 -236 102c0 19 5 38 28 83l-15 9c-5 -10 -12 -26 -21 -47c-14 -31 -21 -58 -21 -81
c0 -35 11 -63 34 -84c21 -18 51 -31 91 -40c33 -6 78 -9 133 -9h358zM590 233c-22 5 -37 10 -45 15c-11 7 -16 16 -16 28c0 20 8 31 27 31c12 0 21 -7 27 -22c5 -12 7 -29 7 -52zM609 607l-64 34l-29 -58l62 -33zM627 510l-65 32l-29 -56l64 -32zM537 474l-64 33l-29 -56
l63 -33zM489 515l30 56l-65 35l-28 -56z" />
    <glyph glyph-name="uniFB6F" unicode="&#x6a6;" horiz-adv-x="631" arabic-form="final" 
d="M631 115v113c0 47 -5 83 -15 108c-11 31 -30 46 -55 46c-23 0 -43 -16 -61 -47c-16 -27 -24 -53 -24 -77c0 -19 8 -34 24 -46c15 -11 37 -21 68 -30h-288c-164 0 -236 33 -236 102c0 19 5 38 28 83l-15 9c-5 -10 -12 -26 -21 -47c-14 -31 -21 -58 -21 -81
c0 -35 11 -63 34 -84c21 -18 51 -31 91 -40c33 -6 78 -9 133 -9h358zM590 233c-22 5 -37 10 -45 15c-11 7 -16 16 -16 28c0 20 8 31 27 31c12 0 21 -7 27 -22c5 -12 7 -29 7 -52zM609 607l-64 34l-29 -58l62 -33zM627 510l-65 32l-29 -56l64 -32zM537 474l-64 33l-29 -56
l63 -33zM489 515l30 56l-65 35l-28 -56z" />
    <glyph glyph-name="uniFB70" unicode="&#x6a6;" horiz-adv-x="214" arabic-form="initial" 
d="M214 115v101c0 56 -7 104 -21 145c-17 50 -42 75 -74 75c-23 0 -42 -15 -57 -46c-13 -27 -19 -59 -19 -95c0 -20 7 -36 20 -47c12 -9 27 -14 46 -14c10 0 21 1 32 4c7 2 18 5 31 10c5 -21 8 -43 8 -66h-208v-67h242zM150 317c-12 -7 -26 -12 -38 -12c-23 0 -35 10 -35 31
c0 16 11 29 24 29c10 0 20 -6 31 -19c9 -9 15 -19 18 -29zM164 638l-64 34l-29 -58l62 -33zM182 541l-65 32l-29 -56l64 -32zM92 505l-64 33l-29 -56l63 -33zM44 546l30 56l-65 35l-28 -56z" />
    <glyph glyph-name="uniFB71" unicode="&#x6a6;" horiz-adv-x="210" arabic-form="medial" 
d="M210 115v134c0 37 -5 68 -16 95c-14 34 -34 51 -61 51c-23 0 -42 -14 -59 -41c-15 -25 -22 -51 -22 -78c0 -31 15 -53 46 -66c13 -5 42 -11 87 -18c-28 -8 -46 -10 -78 -10h-135v-67h238zM175 251c-27 2 -44 4 -51 7c-21 7 -32 20 -32 40c0 15 12 28 27 28s28 -10 39 -29
c5 -10 11 -25 17 -46zM164 638l-64 34l-29 -58l62 -33zM182 541l-65 32l-29 -56l64 -32zM92 505l-64 33l-29 -56l63 -33zM44 546l30 56l-65 35l-28 -56z" />
    <glyph glyph-name="glyph1488" unicode="&#x6a7;" horiz-adv-x="465" 
d="M465 94v77c0 46 -7 87 -22 122c-18 42 -42 63 -72 63c-24 0 -44 -15 -61 -46c-15 -27 -23 -55 -23 -84c0 -25 9 -44 27 -56c14 -11 33 -16 56 -16c20 0 40 6 59 15c5 -12 7 -21 7 -46c0 -37 -24 -65 -72 -86c-42 -18 -91 -27 -146 -27c-52 0 -91 7 -118 22
c-28 16 -42 41 -42 75c0 17 2 34 5 51c3 14 8 30 15 49c5 14 12 30 20 49l-17 7c-17 -31 -30 -63 -39 -94c-9 -34 -14 -66 -14 -97c0 -45 17 -78 51 -100c31 -21 76 -32 134 -32c74 0 133 12 178 37c49 27 74 66 74 117zM404 239c-19 -7 -29 -11 -42 -11
c-19 0 -37 10 -37 26c0 19 11 31 36 31c11 0 20 -5 27 -16c3 -3 9 -13 16 -30zM383 469l-65 32l-30 -56l64 -33z" />
    <glyph glyph-name="glyph1490" unicode="&#x6a8;" horiz-adv-x="465" 
d="M465 94v77c0 46 -7 87 -22 122c-18 42 -42 63 -72 63c-24 0 -44 -15 -61 -46c-15 -27 -23 -55 -23 -84c0 -25 9 -44 27 -56c14 -11 33 -16 56 -16c20 0 40 6 59 15c5 -12 7 -21 7 -46c0 -37 -24 -65 -72 -86c-42 -18 -91 -27 -146 -27c-52 0 -91 7 -118 22
c-28 16 -42 41 -42 75c0 17 2 34 5 51c3 14 8 30 15 49c5 14 12 30 20 49l-17 7c-17 -31 -30 -63 -39 -94c-9 -34 -14 -66 -14 -97c0 -45 17 -78 51 -100c31 -21 76 -32 134 -32c74 0 133 12 178 37c49 27 74 66 74 117zM404 239c-19 -7 -29 -11 -42 -11
c-19 0 -37 10 -37 26c0 19 11 31 36 31c11 0 20 -5 27 -16c3 -3 9 -13 16 -30zM335 545l-64 34l-28 -58l62 -33zM413 476l-65 33l-29 -56l63 -34zM322 440l-64 33l-28 -57l63 -32z" />
    <glyph glyph-name="glyph1493" unicode="&#x6aa;" horiz-adv-x="316" 
d="M316 115v67c-5 15 -12 29 -23 44c-14 19 -30 33 -49 41c-29 12 -64 22 -105 30c-43 9 -64 21 -64 36c0 9 15 20 45 33c19 9 45 19 79 30l82 27v68l-87 -35c-53 -21 -95 -46 -126 -76c-29 -27 -43 -51 -43 -73c0 -25 39 -51 87 -62c62 -13 98 -21 108 -25
c24 -10 41 -23 50 -38h-298v-67h344z" />
    <glyph glyph-name="glyph1494" unicode="&#x6aa;" horiz-adv-x="412" 
d="M412 115v67h-51c-15 0 -34 11 -57 34c-28 28 -48 45 -60 51c-22 11 -57 21 -105 30c-43 9 -64 21 -64 36c0 9 15 20 45 33c19 9 45 19 79 30l82 27v68l-87 -35c-53 -21 -95 -46 -126 -76c-29 -27 -43 -51 -43 -73c0 -25 39 -51 87 -62c51 -11 83 -18 96 -22
c21 -7 31 -14 31 -21c0 -13 -31 -20 -94 -20h-173v-67h168c27 0 52 6 75 17c29 14 44 33 44 58c39 -50 74 -75 105 -75h48z" />
    <glyph glyph-name="glyph1492" unicode="&#x6aa;" horiz-adv-x="746" 
d="M746 115v67h-51c-17 0 -50 13 -99 39c-32 17 -64 33 -95 50c-38 17 -126 42 -265 74c-42 10 -63 22 -63 36c0 9 15 20 46 33c17 9 43 19 78 30l82 27v68l-87 -35c-53 -21 -96 -46 -127 -75c-28 -27 -42 -52 -42 -74c0 -13 9 -25 26 -37c17 -11 37 -20 61 -25
c117 -25 195 -44 234 -57c27 -9 40 -19 40 -30c0 -16 -34 -24 -103 -24h-198c-96 0 -144 24 -144 73c0 8 1 16 4 25l-15 7c-13 -28 -20 -51 -20 -69c0 -44 20 -74 59 -89c24 -9 63 -14 116 -14h178c30 0 62 8 96 25c37 19 56 40 56 63c47 -31 77 -50 92 -58
c37 -20 68 -30 93 -30h48z" />
    <glyph glyph-name="glyph1497" unicode="&#x6ab;" horiz-adv-x="316" 
d="M316 115v67c-20 38 -46 75 -77 110c-29 33 -64 64 -104 94c-11 7 -21 15 -32 24c-17 12 -25 21 -25 27s13 15 38 26c21 9 47 18 80 29l81 27v68l-110 -43c-50 -19 -85 -40 -105 -63c-22 -25 -33 -61 -33 -106c0 -7 8 -18 24 -31l47 -36l13 13c79 -48 121 -83 157 -139
h-298v-67h344zM280 471c0 31 -22 58 -50 58c-31 0 -54 -37 -54 -76c0 -28 13 -45 41 -45c36 0 63 31 63 63zM256 460c0 -9 -10 -13 -23 -13s-22 1 -29 4c-9 3 -13 10 -13 20c0 12 10 26 25 26c6 0 14 -4 24 -13c11 -9 16 -17 16 -24z" />
    <glyph glyph-name="glyph1498" unicode="&#x6ab;" horiz-adv-x="412" 
d="M284 239c-19 24 -33 41 -42 50c-14 16 -29 31 -45 45c-18 17 -39 35 -62 52c-11 7 -21 15 -32 24c-17 12 -25 21 -25 27s13 15 38 26c21 9 47 18 80 29l81 27v68l-110 -43c-50 -19 -85 -40 -105 -63c-22 -25 -33 -61 -33 -106c0 -7 8 -18 24 -31l47 -36l13 13
c18 -10 30 -18 37 -24c13 -13 20 -28 20 -45c0 -23 -17 -41 -51 -54c-28 -11 -63 -16 -104 -16h-43v-67h41c61 0 107 14 138 41c29 27 44 63 44 109c13 -13 22 -24 29 -31c3 -3 11 -13 24 -30c21 -27 37 -45 49 -56c23 -22 46 -33 67 -33h48v67h-51c-12 0 -26 7 -42 21
c-12 9 -24 21 -35 36zM280 471c0 31 -22 58 -50 58c-31 0 -54 -37 -54 -76c0 -28 13 -45 41 -45c36 0 63 31 63 63zM256 460c0 -9 -10 -13 -23 -13s-22 1 -29 4c-9 3 -13 10 -13 20c0 12 10 26 25 26c6 0 14 -4 24 -13c11 -9 16 -17 16 -24z" />
    <glyph glyph-name="glyph1496" unicode="&#x6ab;" horiz-adv-x="746" 
d="M183 115h165c61 0 106 14 137 41c29 27 44 63 44 109c13 -13 22 -24 29 -31c3 -3 11 -13 24 -30c21 -27 37 -45 49 -56c23 -22 46 -33 67 -33h48v67h-51c-12 0 -26 7 -42 21c-11 9 -23 21 -35 36c-19 24 -33 41 -42 50c-13 16 -28 31 -44 45c-19 17 -40 35 -63 52
c-11 7 -21 15 -31 24c-17 12 -25 21 -25 27c0 5 8 11 23 19c18 9 49 21 94 36l82 27v68l-111 -43c-49 -19 -84 -40 -105 -63c-21 -25 -32 -61 -32 -106c0 -7 8 -18 24 -31l46 -36l13 13c19 -10 31 -18 37 -24c13 -13 20 -28 20 -45c0 -23 -17 -41 -51 -54
c-27 -11 -62 -16 -104 -16h-166c-43 0 -76 5 -99 14c-30 11 -45 30 -45 59c0 20 5 38 22 78l-13 8c-11 -22 -19 -37 -22 -45c-12 -29 -18 -55 -18 -78c0 -38 14 -65 42 -81c27 -15 71 -22 133 -22zM613 471c0 31 -22 58 -50 58c-31 0 -54 -37 -54 -76c0 -28 13 -45 41 -45
c36 0 63 31 63 63zM589 460c0 -9 -10 -13 -23 -13s-22 1 -29 4c-9 3 -13 10 -13 20c0 12 10 26 25 26c6 0 14 -4 24 -13c11 -9 16 -17 16 -24z" />
    <glyph glyph-name="glyph1501" unicode="&#x6ac;" horiz-adv-x="316" 
d="M316 115v67c-20 38 -46 75 -77 110c-29 33 -64 64 -104 94c-11 7 -21 15 -32 24c-17 12 -25 21 -25 27s13 15 38 26c21 9 47 18 80 29l81 27v68l-110 -43c-50 -19 -85 -40 -105 -63c-22 -25 -33 -61 -33 -106c0 -7 8 -18 24 -31l47 -36l13 13c79 -48 121 -83 157 -139
h-298v-67h344zM187 642l-65 32l-30 -56l64 -33z" />
    <glyph glyph-name="glyph1502" unicode="&#x6ac;" horiz-adv-x="316" 
d="M316 115v67c-20 38 -46 75 -77 110c-29 33 -64 64 -104 94c-11 7 -21 15 -32 24c-17 12 -25 21 -25 27s13 15 38 26c21 9 47 18 80 29l81 27v68l-110 -43c-50 -19 -85 -40 -105 -63c-22 -25 -33 -61 -33 -106c0 -7 8 -18 24 -31l47 -36l13 13c79 -48 121 -83 157 -139
h-298v-67h344zM187 642l-65 32l-30 -56l64 -33z" />
    <glyph glyph-name="glyph1500" unicode="&#x6ac;" horiz-adv-x="481" 
d="M338 353c0 36 -9 48 -37 48l-21 -3c-3 -1 -7 -1 -12 -1c-11 0 -21 5 -21 13c0 13 8 24 23 33c9 6 23 11 42 16l7 50c-25 -8 -49 -27 -72 -58c-23 -30 -34 -56 -34 -78c0 -16 11 -22 23 -22l28 2h16c12 0 22 -9 22 -20c0 -23 -50 -44 -109 -44c-5 0 -18 1 -38 3
c-9 1 -17 1 -23 1l-7 -9c23 -7 40 -11 52 -14c19 -4 36 -6 52 -6c69 0 109 32 109 89zM481 115v76l-46 306l18 -6c7 16 15 51 15 75l-43 15c-19 8 -29 20 -29 35l-5 4c-13 -31 -19 -61 -19 -96l21 -10l49 -332h-249c-43 0 -76 5 -99 14c-30 11 -45 30 -45 59
c0 20 5 38 22 78l-13 8c-11 -22 -19 -37 -22 -45c-12 -29 -18 -55 -18 -78c0 -38 14 -65 42 -81c27 -15 71 -22 133 -22h288zM296 587l-65 32l-30 -56l64 -33z" />
    <glyph glyph-name="uni06AD" unicode="&#x6ad;" horiz-adv-x="481" arabic-form="isolated" 
d="M338 353c0 36 -9 48 -37 48l-21 -3c-3 -1 -7 -1 -12 -1c-11 0 -21 5 -21 13c0 13 8 24 23 33c9 6 23 11 42 16l7 50c-25 -8 -49 -27 -72 -58c-23 -30 -34 -56 -34 -78c0 -16 11 -22 23 -22l28 2h16c12 0 22 -9 22 -20c0 -23 -50 -44 -109 -44c-5 0 -18 1 -38 3
c-9 1 -17 1 -23 1l-7 -9c23 -7 40 -11 52 -14c19 -4 36 -6 52 -6c69 0 109 32 109 89zM481 115v76l-46 306l18 -6c7 16 15 51 15 75l-43 15c-19 8 -29 20 -29 35l-5 4c-13 -31 -19 -61 -19 -96l21 -10l49 -332h-249c-43 0 -76 5 -99 14c-30 11 -45 30 -45 59
c0 20 5 38 22 78l-13 8c-11 -22 -19 -37 -22 -45c-12 -29 -18 -55 -18 -78c0 -38 14 -65 42 -81c27 -15 71 -22 133 -22h288zM256 669l-64 34l-28 -58l62 -33zM334 600l-65 33l-29 -56l63 -34zM243 564l-64 33l-28 -57l63 -32z" />
    <glyph glyph-name="uniFBD4" unicode="&#x6ad;" horiz-adv-x="481" arabic-form="final" 
d="M338 353c0 36 -9 48 -37 48l-21 -3c-3 -1 -7 -1 -12 -1c-11 0 -21 5 -21 13c0 13 8 24 23 33c9 6 23 11 42 16l7 50c-25 -8 -49 -27 -72 -58c-23 -30 -34 -56 -34 -78c0 -16 11 -22 23 -22l28 2h16c12 0 22 -9 22 -20c0 -23 -50 -44 -109 -44c-5 0 -18 1 -38 3
c-9 1 -17 1 -23 1l-7 -9c23 -7 40 -11 52 -14c19 -4 36 -6 52 -6c69 0 109 32 109 89zM481 115v76l-46 306l18 -6c7 16 15 51 15 75l-43 15c-19 8 -29 20 -29 35l-5 4c-13 -31 -19 -61 -19 -96l21 -10l49 -332h-249c-43 0 -76 5 -99 14c-30 11 -45 30 -45 59
c0 20 5 38 22 78l-13 8c-11 -22 -19 -37 -22 -45c-12 -29 -18 -55 -18 -78c0 -38 14 -65 42 -81c27 -15 71 -22 133 -22h288zM256 669l-64 34l-28 -58l62 -33zM334 600l-65 33l-29 -56l63 -34zM243 564l-64 33l-28 -57l63 -32z" />
    <glyph glyph-name="uniFBD5" unicode="&#x6ad;" horiz-adv-x="316" arabic-form="initial" 
d="M316 115v67c-20 38 -46 75 -77 110c-29 33 -64 64 -104 94c-11 7 -21 15 -32 24c-17 12 -25 21 -25 27s13 15 38 26c21 9 47 18 80 29l81 27v68l-110 -43c-50 -19 -85 -40 -105 -63c-22 -25 -33 -61 -33 -106c0 -7 8 -18 24 -31l47 -36l13 13c79 -48 121 -83 157 -139
h-298v-67h344zM129 668l-53 13l-21 -37l52 -15zM196 648l-51 14l-21 -37l50 -14zM112 613l-52 15l-21 -38l51 -14z" />
    <glyph glyph-name="uniFBD6" unicode="&#x6ad;" horiz-adv-x="316" arabic-form="medial" 
d="M316 115v67c-20 38 -46 75 -77 110c-29 33 -64 64 -104 94c-11 7 -21 15 -32 24c-17 12 -25 21 -25 27s13 15 38 26c21 9 47 18 80 29l81 27v68l-110 -43c-50 -19 -85 -40 -105 -63c-22 -25 -33 -61 -33 -106c0 -7 8 -18 24 -31l47 -36l13 13c79 -48 121 -83 157 -139
h-298v-67h344zM129 668l-53 13l-21 -37l52 -15zM196 648l-51 14l-21 -37l50 -14zM112 613l-52 15l-21 -38l51 -14z" />
    <glyph glyph-name="glyph1509" unicode="&#x6ae;" horiz-adv-x="316" 
d="M316 115v67c-20 38 -46 75 -77 110c-29 33 -64 64 -104 94c-11 7 -21 15 -32 24c-17 12 -25 21 -25 27s13 15 38 26c21 9 47 18 80 29l81 27v68l-110 -43c-50 -19 -85 -40 -105 -63c-22 -25 -33 -61 -33 -106c0 -7 8 -18 24 -31l47 -36l13 13c79 -48 121 -83 157 -139
h-298v-67h344zM244 22l-63 33l-30 -57l64 -33zM231 -84l-63 34l-29 -57l63 -33zM155 -14l-64 34l-30 -57l65 -33z" />
    <glyph glyph-name="glyph1510" unicode="&#x6ae;" horiz-adv-x="316" 
d="M316 115v67c-20 38 -46 75 -77 110c-29 33 -64 64 -104 94c-11 7 -21 15 -32 24c-17 12 -25 21 -25 27s13 15 38 26c21 9 47 18 80 29l81 27v68l-110 -43c-50 -19 -85 -40 -105 -63c-22 -25 -33 -61 -33 -106c0 -7 8 -18 24 -31l47 -36l13 13c79 -48 121 -83 157 -139
h-298v-67h344zM244 22l-63 33l-30 -57l64 -33zM231 -84l-63 34l-29 -57l63 -33zM155 -14l-64 34l-30 -57l65 -33z" />
    <glyph glyph-name="glyph1508" unicode="&#x6ae;" horiz-adv-x="481" 
d="M338 353c0 36 -9 48 -37 48l-21 -3c-3 -1 -7 -1 -12 -1c-11 0 -21 5 -21 13c0 13 8 24 23 33c9 6 23 11 42 16l7 50c-25 -8 -49 -27 -72 -58c-23 -30 -34 -56 -34 -78c0 -16 11 -22 23 -22l28 2h16c12 0 22 -9 22 -20c0 -23 -50 -44 -109 -44c-5 0 -18 1 -38 3
c-9 1 -17 1 -23 1l-7 -9c23 -7 40 -11 52 -14c19 -4 36 -6 52 -6c69 0 109 32 109 89zM481 115v76l-46 306l18 -6c7 16 15 51 15 75l-43 15c-19 8 -29 20 -29 35l-5 4c-13 -31 -19 -61 -19 -96l21 -10l49 -332h-249c-43 0 -76 5 -99 14c-30 11 -45 30 -45 59
c0 20 5 38 22 78l-13 8c-11 -22 -19 -37 -22 -45c-12 -29 -18 -55 -18 -78c0 -38 14 -65 42 -81c27 -15 71 -22 133 -22h288zM345 22l-63 33l-30 -57l64 -33zM332 -84l-63 34l-29 -57l63 -33zM256 -14l-64 34l-30 -57l65 -33z" />
    <glyph glyph-name="glyph1513" unicode="&#x6b0;" horiz-adv-x="316" 
d="M316 115v67c-20 38 -46 75 -77 110c-29 33 -64 64 -104 94c-11 7 -21 15 -32 24c-17 12 -25 21 -25 27s13 15 38 26c21 9 47 18 80 29l81 27v68l-110 -43c-50 -19 -85 -40 -105 -63c-22 -25 -33 -61 -33 -106c0 -7 8 -18 24 -31l47 -36l13 13c79 -48 121 -83 157 -139
h-298v-67h344zM277 700c-38 -15 -77 -33 -116 -54c-71 -36 -123 -71 -140 -90v-42c25 17 58 35 100 55c48 23 100 45 156 66v65zM280 471c0 31 -22 58 -50 58c-31 0 -54 -37 -54 -76c0 -28 13 -45 41 -45c36 0 63 31 63 63zM256 460c0 -9 -10 -13 -23 -13s-22 1 -29 4
c-9 3 -13 10 -13 20c0 12 10 26 25 26c6 0 14 -4 24 -13c11 -9 16 -17 16 -24z" />
    <glyph glyph-name="glyph1514" unicode="&#x6b0;" horiz-adv-x="412" 
d="M284 239c-19 24 -33 41 -42 50c-14 16 -29 31 -45 45c-18 17 -39 35 -62 52c-11 7 -21 15 -32 24c-17 12 -25 21 -25 27s13 15 38 26c21 9 47 18 80 29l81 27v68l-110 -43c-50 -19 -85 -40 -105 -63c-22 -25 -33 -61 -33 -106c0 -7 8 -18 24 -31l47 -36l13 13
c18 -10 30 -18 37 -24c13 -13 20 -28 20 -45c0 -23 -17 -41 -51 -54c-28 -11 -63 -16 -104 -16h-43v-67h41c61 0 107 14 138 41c29 27 44 63 44 109c13 -13 22 -24 29 -31c3 -3 11 -13 24 -30c21 -27 37 -45 49 -56c23 -22 46 -33 67 -33h48v67h-51c-12 0 -26 7 -42 21
c-12 9 -24 21 -35 36zM277 700c-38 -15 -77 -33 -116 -54c-71 -36 -123 -71 -140 -90v-42c25 17 58 35 100 55c48 23 100 45 156 66v65zM280 471c0 31 -22 58 -50 58c-31 0 -54 -37 -54 -76c0 -28 13 -45 41 -45c36 0 63 31 63 63zM256 460c0 -9 -10 -13 -23 -13
s-22 1 -29 4c-9 3 -13 10 -13 20c0 12 10 26 25 26c6 0 14 -4 24 -13c11 -9 16 -17 16 -24z" />
    <glyph glyph-name="glyph1512" unicode="&#x6b0;" horiz-adv-x="746" 
d="M183 115h165c61 0 106 14 137 41c29 27 44 63 44 109c13 -13 22 -24 29 -31c3 -3 11 -13 24 -30c21 -27 37 -45 49 -56c23 -22 46 -33 67 -33h48v67h-51c-12 0 -26 7 -42 21c-11 9 -23 21 -35 36c-19 24 -33 41 -42 50c-13 16 -28 31 -44 45c-19 17 -40 35 -63 52
c-11 7 -21 15 -31 24c-17 12 -25 21 -25 27c0 5 8 11 23 19c18 9 49 21 94 36l82 27v68l-111 -43c-49 -19 -84 -40 -105 -63c-21 -25 -32 -61 -32 -106c0 -7 8 -18 24 -31l46 -36l13 13c19 -10 31 -18 37 -24c13 -13 20 -28 20 -45c0 -23 -17 -41 -51 -54
c-27 -11 -62 -16 -104 -16h-166c-43 0 -76 5 -99 14c-30 11 -45 30 -45 59c0 20 5 38 22 78l-13 8c-11 -22 -19 -37 -22 -45c-12 -29 -18 -55 -18 -78c0 -38 14 -65 42 -81c27 -15 71 -22 133 -22zM612 693c-39 -15 -78 -33 -117 -54c-69 -36 -123 -71 -139 -91v-41
c24 17 57 35 99 55c48 23 100 45 157 66v65zM613 471c0 31 -22 58 -50 58c-31 0 -54 -37 -54 -76c0 -28 13 -45 41 -45c36 0 63 31 63 63zM589 460c0 -9 -10 -13 -23 -13s-22 1 -29 4c-9 3 -13 10 -13 20c0 12 10 26 25 26c6 0 14 -4 24 -13c11 -9 16 -17 16 -24z" />
    <glyph glyph-name="uni06B1" unicode="&#x6b1;" horiz-adv-x="650" arabic-form="isolated" 
d="M604 182h-421c-43 0 -76 5 -99 14c-30 11 -45 30 -45 59c0 20 5 38 22 78l-13 8c-11 -22 -19 -37 -22 -45c-12 -29 -18 -55 -18 -78c0 -38 14 -65 42 -81c27 -15 71 -22 133 -22h467v67c-20 38 -46 75 -77 110c-29 33 -64 64 -104 94c-11 7 -21 15 -31 24
c-17 12 -25 21 -25 27s13 15 39 26c19 9 45 18 78 29l82 27v68l-111 -43c-49 -19 -84 -40 -105 -63c-21 -25 -32 -61 -32 -106c0 -7 8 -18 24 -31l46 -36l13 13c80 -48 121 -83 157 -139zM612 693c-39 -15 -78 -33 -117 -54c-69 -36 -123 -71 -139 -91v-41
c24 17 57 35 99 55c48 23 100 45 157 66v65zM522 696l-56 17l-22 -41l56 -18zM440 661l-56 17l-21 -41l56 -18z" />
    <glyph glyph-name="uniFB9B" unicode="&#x6b1;" horiz-adv-x="746" arabic-form="final" 
d="M183 115h165c61 0 106 14 137 41c29 27 44 63 44 109c13 -13 22 -24 29 -31c3 -3 11 -13 24 -30c21 -27 37 -45 49 -56c23 -22 46 -33 67 -33h48v67h-51c-12 0 -26 7 -42 21c-11 9 -23 21 -35 36c-19 24 -33 41 -42 50c-13 16 -28 31 -44 45c-19 17 -40 35 -63 52
c-11 7 -21 15 -31 24c-17 12 -25 21 -25 27c0 5 8 11 23 19c18 9 49 21 94 36l82 27v68l-111 -43c-49 -19 -84 -40 -105 -63c-21 -25 -32 -61 -32 -106c0 -7 8 -18 24 -31l46 -36l13 13c19 -10 31 -18 37 -24c13 -13 20 -28 20 -45c0 -23 -17 -41 -51 -54
c-27 -11 -62 -16 -104 -16h-166c-43 0 -76 5 -99 14c-30 11 -45 30 -45 59c0 20 5 38 22 78l-13 8c-11 -22 -19 -37 -22 -45c-12 -29 -18 -55 -18 -78c0 -38 14 -65 42 -81c27 -15 71 -22 133 -22zM612 693c-39 -15 -78 -33 -117 -54c-69 -36 -123 -71 -139 -91v-41
c24 17 57 35 99 55c48 23 100 45 157 66v65zM522 696l-56 17l-22 -41l56 -18zM440 661l-56 17l-21 -41l56 -18z" />
    <glyph glyph-name="uniFB9C" unicode="&#x6b1;" horiz-adv-x="316" arabic-form="initial" 
d="M316 115v67c-20 38 -46 75 -77 110c-29 33 -64 64 -104 94c-11 7 -21 15 -32 24c-17 12 -25 21 -25 27s13 15 38 26c21 9 47 18 80 29l81 27v68l-110 -43c-50 -19 -85 -40 -105 -63c-22 -25 -33 -61 -33 -106c0 -7 8 -18 24 -31l47 -36l13 13c79 -48 121 -83 157 -139
h-298v-67h344zM277 700c-38 -15 -77 -33 -116 -54c-71 -36 -123 -71 -140 -90v-42c25 17 58 35 100 55c48 23 100 45 156 66v65zM178 696l-56 17l-22 -41l56 -18zM96 661l-56 17l-21 -41l56 -18z" />
    <glyph glyph-name="uniFB9D" unicode="&#x6b1;" horiz-adv-x="412" arabic-form="medial" 
d="M284 239c-19 24 -33 41 -42 50c-14 16 -29 31 -45 45c-18 17 -39 35 -62 52c-11 7 -21 15 -32 24c-17 12 -25 21 -25 27s13 15 38 26c21 9 47 18 80 29l81 27v68l-110 -43c-50 -19 -85 -40 -105 -63c-22 -25 -33 -61 -33 -106c0 -7 8 -18 24 -31l47 -36l13 13
c18 -10 30 -18 37 -24c13 -13 20 -28 20 -45c0 -23 -17 -41 -51 -54c-28 -11 -63 -16 -104 -16h-43v-67h41c61 0 107 14 138 41c29 27 44 63 44 109c13 -13 22 -24 29 -31c3 -3 11 -13 24 -30c21 -27 37 -45 49 -56c23 -22 46 -33 67 -33h48v67h-51c-12 0 -26 7 -42 21
c-12 9 -24 21 -35 36zM277 700c-38 -15 -77 -33 -116 -54c-71 -36 -123 -71 -140 -90v-42c25 17 58 35 100 55c48 23 100 45 156 66v65zM178 696l-56 17l-22 -41l56 -18zM96 661l-56 17l-21 -41l56 -18z" />
    <glyph glyph-name="glyph1521" unicode="&#x6b2;" horiz-adv-x="316" 
d="M316 115v67c-20 38 -46 75 -77 110c-29 33 -64 64 -104 94c-11 7 -21 15 -32 24c-17 12 -25 21 -25 27s13 15 38 26c21 9 47 18 80 29l81 27v68l-110 -43c-50 -19 -85 -40 -105 -63c-22 -25 -33 -61 -33 -106c0 -7 8 -18 24 -31l47 -36l13 13c79 -48 121 -83 157 -139
h-298v-67h344zM277 700c-38 -15 -77 -33 -116 -54c-71 -36 -123 -71 -140 -90v-42c25 17 58 35 100 55c48 23 100 45 156 66v65zM251 22l-63 33l-30 -57l64 -33zM162 -14l-64 34l-30 -57l65 -33z" />
    <glyph glyph-name="glyph1522" unicode="&#x6b2;" horiz-adv-x="412" 
d="M284 239c-19 24 -33 41 -42 50c-14 16 -29 31 -45 45c-18 17 -39 35 -62 52c-11 7 -21 15 -32 24c-17 12 -25 21 -25 27s13 15 38 26c21 9 47 18 80 29l81 27v68l-110 -43c-50 -19 -85 -40 -105 -63c-22 -25 -33 -61 -33 -106c0 -7 8 -18 24 -31l47 -36l13 13
c18 -10 30 -18 37 -24c13 -13 20 -28 20 -45c0 -23 -17 -41 -51 -54c-28 -11 -63 -16 -104 -16h-43v-67h41c61 0 107 14 138 41c29 27 44 63 44 109c13 -13 22 -24 29 -31c3 -3 11 -13 24 -30c21 -27 37 -45 49 -56c23 -22 46 -33 67 -33h48v67h-51c-12 0 -26 7 -42 21
c-12 9 -24 21 -35 36zM277 700c-38 -15 -77 -33 -116 -54c-71 -36 -123 -71 -140 -90v-42c25 17 58 35 100 55c48 23 100 45 156 66v65zM197 22l-63 33l-30 -57l64 -33zM108 -14l-64 34l-30 -57l65 -33z" />
    <glyph glyph-name="glyph1520" unicode="&#x6b2;" horiz-adv-x="746" 
d="M183 115h165c61 0 106 14 137 41c29 27 44 63 44 109c13 -13 22 -24 29 -31c3 -3 11 -13 24 -30c21 -27 37 -45 49 -56c23 -22 46 -33 67 -33h48v67h-51c-12 0 -26 7 -42 21c-11 9 -23 21 -35 36c-19 24 -33 41 -42 50c-13 16 -28 31 -44 45c-19 17 -40 35 -63 52
c-11 7 -21 15 -31 24c-17 12 -25 21 -25 27c0 5 8 11 23 19c18 9 49 21 94 36l82 27v68l-111 -43c-49 -19 -84 -40 -105 -63c-21 -25 -32 -61 -32 -106c0 -7 8 -18 24 -31l46 -36l13 13c19 -10 31 -18 37 -24c13 -13 20 -28 20 -45c0 -23 -17 -41 -51 -54
c-27 -11 -62 -16 -104 -16h-166c-43 0 -76 5 -99 14c-30 11 -45 30 -45 59c0 20 5 38 22 78l-13 8c-11 -22 -19 -37 -22 -45c-12 -29 -18 -55 -18 -78c0 -38 14 -65 42 -81c27 -15 71 -22 133 -22zM612 693c-39 -15 -78 -33 -117 -54c-69 -36 -123 -71 -139 -91v-41
c24 17 57 35 99 55c48 23 100 45 157 66v65zM353 22l-63 33l-30 -57l64 -33zM264 -14l-64 34l-30 -57l65 -33z" />
    <glyph glyph-name="uni06B3" unicode="&#x6b3;" horiz-adv-x="650" arabic-form="isolated" 
d="M604 182h-421c-43 0 -76 5 -99 14c-30 11 -45 30 -45 59c0 20 5 38 22 78l-13 8c-11 -22 -19 -37 -22 -45c-12 -29 -18 -55 -18 -78c0 -38 14 -65 42 -81c27 -15 71 -22 133 -22h467v67c-20 38 -46 75 -77 110c-29 33 -64 64 -104 94c-11 7 -21 15 -31 24
c-17 12 -25 21 -25 27s13 15 39 26c19 9 45 18 78 29l82 27v68l-111 -43c-49 -19 -84 -40 -105 -63c-21 -25 -32 -61 -32 -106c0 -7 8 -18 24 -31l46 -36l13 13c80 -48 121 -83 157 -139zM612 693c-39 -15 -78 -33 -117 -54c-69 -36 -123 -71 -139 -91v-41
c24 17 57 35 99 55c48 23 100 45 157 66v65zM393 22l-64 33l-29 -57l64 -33zM411 -76l-62 34l-31 -58l64 -32z" />
    <glyph glyph-name="uniFB97" unicode="&#x6b3;" horiz-adv-x="746" arabic-form="final" 
d="M183 115h165c61 0 106 14 137 41c29 27 44 63 44 109c13 -13 22 -24 29 -31c3 -3 11 -13 24 -30c21 -27 37 -45 49 -56c23 -22 46 -33 67 -33h48v67h-51c-12 0 -26 7 -42 21c-11 9 -23 21 -35 36c-19 24 -33 41 -42 50c-13 16 -28 31 -44 45c-19 17 -40 35 -63 52
c-11 7 -21 15 -31 24c-17 12 -25 21 -25 27c0 5 8 11 23 19c18 9 49 21 94 36l82 27v68l-111 -43c-49 -19 -84 -40 -105 -63c-21 -25 -32 -61 -32 -106c0 -7 8 -18 24 -31l46 -36l13 13c19 -10 31 -18 37 -24c13 -13 20 -28 20 -45c0 -23 -17 -41 -51 -54
c-27 -11 -62 -16 -104 -16h-166c-43 0 -76 5 -99 14c-30 11 -45 30 -45 59c0 20 5 38 22 78l-13 8c-11 -22 -19 -37 -22 -45c-12 -29 -18 -55 -18 -78c0 -38 14 -65 42 -81c27 -15 71 -22 133 -22zM612 693c-39 -15 -78 -33 -117 -54c-69 -36 -123 -71 -139 -91v-41
c24 17 57 35 99 55c48 23 100 45 157 66v65zM315 22l-64 33l-29 -57l64 -33zM333 -76l-62 34l-31 -58l64 -32z" />
    <glyph glyph-name="uniFB98" unicode="&#x6b3;" horiz-adv-x="316" arabic-form="initial" 
d="M316 115v67c-20 38 -46 75 -77 110c-29 33 -64 64 -104 94c-11 7 -21 15 -32 24c-17 12 -25 21 -25 27s13 15 38 26c21 9 47 18 80 29l81 27v68l-110 -43c-50 -19 -85 -40 -105 -63c-22 -25 -33 -61 -33 -106c0 -7 8 -18 24 -31l47 -36l13 13c79 -48 121 -83 157 -139
h-298v-67h344zM277 700c-38 -15 -77 -33 -116 -54c-71 -36 -123 -71 -140 -90v-42c25 17 58 35 100 55c48 23 100 45 156 66v65zM197 22l-64 33l-29 -57l64 -33zM215 -76l-62 34l-31 -58l64 -32z" />
    <glyph glyph-name="uniFB99" unicode="&#x6b3;" horiz-adv-x="412" arabic-form="medial" 
d="M284 239c-19 24 -33 41 -42 50c-14 16 -29 31 -45 45c-18 17 -39 35 -62 52c-11 7 -21 15 -32 24c-17 12 -25 21 -25 27s13 15 38 26c21 9 47 18 80 29l81 27v68l-110 -43c-50 -19 -85 -40 -105 -63c-22 -25 -33 -61 -33 -106c0 -7 8 -18 24 -31l47 -36l13 13
c18 -10 30 -18 37 -24c13 -13 20 -28 20 -45c0 -23 -17 -41 -51 -54c-28 -11 -63 -16 -104 -16h-43v-67h41c61 0 107 14 138 41c29 27 44 63 44 109c13 -13 22 -24 29 -31c3 -3 11 -13 24 -30c21 -27 37 -45 49 -56c23 -22 46 -33 67 -33h48v67h-51c-12 0 -26 7 -42 21
c-12 9 -24 21 -35 36zM277 700c-38 -15 -77 -33 -116 -54c-71 -36 -123 -71 -140 -90v-42c25 17 58 35 100 55c48 23 100 45 156 66v65zM135 22l-64 33l-29 -57l64 -33zM153 -76l-62 34l-31 -58l64 -32z" />
    <glyph glyph-name="glyph1529" unicode="&#x6b4;" horiz-adv-x="316" 
d="M316 115v67c-20 38 -46 75 -77 110c-29 33 -64 64 -104 94c-11 7 -21 15 -32 24c-17 12 -25 21 -25 27s13 15 38 26c21 9 47 18 80 29l81 27v68l-110 -43c-50 -19 -85 -40 -105 -63c-22 -25 -33 -61 -33 -106c0 -7 8 -18 24 -31l47 -36l13 13c79 -48 121 -83 157 -139
h-298v-67h344zM277 700c-38 -15 -77 -33 -116 -54c-71 -36 -123 -71 -140 -90v-42c25 17 58 35 100 55c48 23 100 45 156 66v65zM107 700l-53 13l-21 -37l52 -15zM174 680l-51 14l-21 -37l50 -14zM90 645l-52 15l-21 -38l51 -14z" />
    <glyph glyph-name="glyph1530" unicode="&#x6b4;" horiz-adv-x="412" 
d="M284 239c-19 24 -33 41 -42 50c-14 16 -29 31 -45 45c-18 17 -39 35 -62 52c-11 7 -21 15 -32 24c-17 12 -25 21 -25 27s13 15 38 26c21 9 47 18 80 29l81 27v68l-110 -43c-50 -19 -85 -40 -105 -63c-22 -25 -33 -61 -33 -106c0 -7 8 -18 24 -31l47 -36l13 13
c18 -10 30 -18 37 -24c13 -13 20 -28 20 -45c0 -23 -17 -41 -51 -54c-28 -11 -63 -16 -104 -16h-43v-67h41c61 0 107 14 138 41c29 27 44 63 44 109c13 -13 22 -24 29 -31c3 -3 11 -13 24 -30c21 -27 37 -45 49 -56c23 -22 46 -33 67 -33h48v67h-51c-12 0 -26 7 -42 21
c-12 9 -24 21 -35 36zM277 700c-38 -15 -77 -33 -116 -54c-71 -36 -123 -71 -140 -90v-42c25 17 58 35 100 55c48 23 100 45 156 66v65zM107 700l-53 13l-21 -37l52 -15zM174 680l-51 14l-21 -37l50 -14zM90 645l-52 15l-21 -38l51 -14z" />
    <glyph glyph-name="glyph1528" unicode="&#x6b4;" horiz-adv-x="746" 
d="M183 115h165c61 0 106 14 137 41c29 27 44 63 44 109c13 -13 22 -24 29 -31c3 -3 11 -13 24 -30c21 -27 37 -45 49 -56c23 -22 46 -33 67 -33h48v67h-51c-12 0 -26 7 -42 21c-11 9 -23 21 -35 36c-19 24 -33 41 -42 50c-13 16 -28 31 -44 45c-19 17 -40 35 -63 52
c-11 7 -21 15 -31 24c-17 12 -25 21 -25 27c0 5 8 11 23 19c18 9 49 21 94 36l82 27v68l-111 -43c-49 -19 -84 -40 -105 -63c-21 -25 -32 -61 -32 -106c0 -7 8 -18 24 -31l46 -36l13 13c19 -10 31 -18 37 -24c13 -13 20 -28 20 -45c0 -23 -17 -41 -51 -54
c-27 -11 -62 -16 -104 -16h-166c-43 0 -76 5 -99 14c-30 11 -45 30 -45 59c0 20 5 38 22 78l-13 8c-11 -22 -19 -37 -22 -45c-12 -29 -18 -55 -18 -78c0 -38 14 -65 42 -81c27 -15 71 -22 133 -22zM612 693c-39 -15 -78 -33 -117 -54c-69 -36 -123 -71 -139 -91v-41
c24 17 57 35 99 55c48 23 100 45 157 66v65zM441 700l-53 13l-21 -37l52 -15zM508 680l-51 14l-21 -37l50 -14zM424 645l-52 15l-21 -38l51 -14z" />
    <glyph glyph-name="glyph1533" unicode="&#x6b5;" horiz-adv-x="165" 
d="M165 115v76l-46 306l20 -6c4 15 9 50 9 75l-39 15c-17 8 -25 20 -25 35l-6 4c-13 -31 -18 -61 -18 -96l20 -10l46 -332h-154v-67h193zM153 713h-34l-30 -55l-30 55h-34l53 -90h22z" />
    <glyph glyph-name="glyph1534" unicode="&#x6b5;" horiz-adv-x="165" 
d="M165 115v76l-46 306l20 -6c4 15 9 50 9 75l-39 15c-17 8 -25 20 -25 35l-6 4c-13 -31 -18 -61 -18 -96l20 -10l46 -332h-154v-67h193zM153 713h-34l-30 -55l-30 55h-34l53 -90h22z" />
    <glyph glyph-name="glyph1532" unicode="&#x6b5;" horiz-adv-x="405" 
d="M405 163c0 29 -3 70 -9 124c-4 34 -10 78 -18 133c-7 47 -11 73 -12 78l22 -7c9 31 10 39 10 75c-5 3 -11 6 -18 9c-10 5 -19 9 -26 12c-12 4 -16 13 -19 33h-6c-15 -29 -22 -61 -22 -96l18 -8l13 -77c9 -57 17 -108 23 -155c8 -60 12 -103 12 -128
c0 -23 -21 -43 -62 -60c-37 -15 -78 -23 -122 -23c-83 0 -132 34 -132 98c0 17 3 34 8 51c4 15 10 31 19 49c6 14 14 30 24 47l-13 8c-13 -25 -24 -47 -33 -65c-11 -24 -20 -46 -25 -67c-6 -24 -9 -47 -9 -70c0 -40 15 -70 45 -91c28 -19 67 -28 117 -28c44 0 80 4 109 12
c33 9 59 25 77 47c19 24 29 57 29 99zM388 713h-34l-30 -55l-30 55h-34l53 -90h22z" />
    <glyph glyph-name="glyph1537" unicode="&#x6b6;" horiz-adv-x="165" 
d="M165 115v76l-46 306l20 -6c4 15 9 50 9 75l-39 15c-17 8 -25 20 -25 35l-6 4c-13 -31 -18 -61 -18 -96l20 -10l46 -332h-154v-67h193zM136 680l-65 32l-30 -56l64 -33z" />
    <glyph glyph-name="glyph1538" unicode="&#x6b6;" horiz-adv-x="165" 
d="M165 115v76l-46 306l20 -6c4 15 9 50 9 75l-39 15c-17 8 -25 20 -25 35l-6 4c-13 -31 -18 -61 -18 -96l20 -10l46 -332h-154v-67h193zM136 680l-65 32l-30 -56l64 -33z" />
    <glyph glyph-name="glyph1536" unicode="&#x6b6;" horiz-adv-x="405" 
d="M405 163c0 29 -3 70 -9 124c-4 34 -10 78 -18 133c-7 47 -11 73 -12 78l22 -7c9 31 10 39 10 75c-5 3 -11 6 -18 9c-10 5 -19 9 -26 12c-12 4 -16 13 -19 33h-6c-15 -29 -22 -61 -22 -96l18 -8l13 -77c9 -57 17 -108 23 -155c8 -60 12 -103 12 -128
c0 -23 -21 -43 -62 -60c-37 -15 -78 -23 -122 -23c-83 0 -132 34 -132 98c0 17 3 34 8 51c4 15 10 31 19 49c6 14 14 30 24 47l-13 8c-13 -25 -24 -47 -33 -65c-11 -24 -20 -46 -25 -67c-6 -24 -9 -47 -9 -70c0 -40 15 -70 45 -91c28 -19 67 -28 117 -28c44 0 80 4 109 12
c33 9 59 25 77 47c19 24 29 57 29 99zM386 680l-65 32l-30 -56l64 -33z" />
    <glyph glyph-name="glyph1541" unicode="&#x6b7;" horiz-adv-x="165" 
d="M165 115v76l-46 306l20 -6c4 15 9 50 9 75l-39 15c-17 8 -25 20 -25 35l-6 4c-13 -31 -18 -61 -18 -96l20 -10l46 -332h-154v-67h193zM90 700l-53 13l-21 -37l52 -15zM157 680l-51 14l-21 -37l50 -14zM73 645l-52 15l-21 -38l51 -14z" />
    <glyph glyph-name="glyph1542" unicode="&#x6b7;" horiz-adv-x="165" 
d="M165 115v76l-46 306l20 -6c4 15 9 50 9 75l-39 15c-17 8 -25 20 -25 35l-6 4c-13 -31 -18 -61 -18 -96l20 -10l46 -332h-154v-67h193zM90 700l-53 13l-21 -37l52 -15zM157 680l-51 14l-21 -37l50 -14zM73 645l-52 15l-21 -38l51 -14z" />
    <glyph glyph-name="glyph1540" unicode="&#x6b7;" horiz-adv-x="405" 
d="M405 163c0 29 -3 70 -9 124c-4 34 -10 78 -18 133c-7 47 -11 73 -12 78l22 -7c9 31 10 39 10 75c-5 3 -11 6 -18 9c-10 5 -19 9 -26 12c-12 4 -16 13 -19 33h-6c-15 -29 -22 -61 -22 -96l18 -8l13 -77c9 -57 17 -108 23 -155c8 -60 12 -103 12 -128
c0 -23 -21 -43 -62 -60c-37 -15 -78 -23 -122 -23c-83 0 -132 34 -132 98c0 17 3 34 8 51c4 15 10 31 19 49c6 14 14 30 24 47l-13 8c-13 -25 -24 -47 -33 -65c-11 -24 -20 -46 -25 -67c-6 -24 -9 -47 -9 -70c0 -40 15 -70 45 -91c28 -19 67 -28 117 -28c44 0 80 4 109 12
c33 9 59 25 77 47c19 24 29 57 29 99zM332 700l-53 13l-21 -37l52 -15zM399 680l-51 14l-21 -37l50 -14zM315 645l-52 15l-21 -38l51 -14z" />
    <glyph glyph-name="glyph1545" unicode="&#x6b8;" horiz-adv-x="165" 
d="M165 115v76l-46 306l20 -6c4 15 9 50 9 75l-39 15c-17 8 -25 20 -25 35l-6 4c-13 -31 -18 -61 -18 -96l20 -10l46 -332h-154v-67h193zM173 22l-63 33l-30 -57l64 -33zM160 -84l-63 34l-29 -57l63 -33zM84 -14l-64 34l-30 -57l65 -33z" />
    <glyph glyph-name="glyph1546" unicode="&#x6b8;" horiz-adv-x="165" 
d="M165 115v76l-46 306l20 -6c4 15 9 50 9 75l-39 15c-17 8 -25 20 -25 35l-6 4c-13 -31 -18 -61 -18 -96l20 -10l46 -332h-154v-67h193zM173 22l-63 33l-30 -57l64 -33zM160 -84l-63 34l-29 -57l63 -33zM84 -14l-64 34l-30 -57l65 -33z" />
    <glyph glyph-name="glyph1544" unicode="&#x6b8;" horiz-adv-x="405" 
d="M405 163c0 29 -3 70 -9 124c-4 34 -10 78 -18 133c-7 47 -11 73 -12 78l22 -7c9 31 10 39 10 75c-5 3 -11 6 -18 9c-10 5 -19 9 -26 12c-12 4 -16 13 -19 33h-6c-15 -29 -22 -61 -22 -96l18 -8l13 -77c9 -57 17 -108 23 -155c8 -60 12 -103 12 -128
c0 -23 -21 -43 -62 -60c-37 -15 -78 -23 -122 -23c-83 0 -132 34 -132 98c0 17 3 34 8 51c4 15 10 31 19 49c6 14 14 30 24 47l-13 8c-13 -25 -24 -47 -33 -65c-11 -24 -20 -46 -25 -67c-6 -24 -9 -47 -9 -70c0 -40 15 -70 45 -91c28 -19 67 -28 117 -28c44 0 80 4 109 12
c33 9 59 25 77 47c19 24 29 57 29 99zM306 -33l-63 25l-30 -49l64 -25zM293 -115l-63 24l-30 -48l64 -25zM217 -68l-64 25l-29 -49l64 -25z" />
    <glyph glyph-name="glyph1549" unicode="&#x6b9;" horiz-adv-x="196" 
d="M164 476l-64 32l-29 -56l63 -32zM196 115v95c0 46 -4 79 -11 99c-5 13 -17 32 -36 55l-30 -63c19 -21 32 -38 37 -49c7 -16 11 -39 11 -70h-195v-67h224zM156 20l-65 32l-30 -56l64 -33z" />
    <glyph glyph-name="glyph1550" unicode="&#x6b9;" horiz-adv-x="196" 
d="M164 476l-64 32l-29 -56l63 -32zM196 115v95c0 46 -4 79 -11 99c-5 13 -17 32 -36 55l-30 -63c19 -21 32 -38 37 -49c7 -16 11 -39 11 -70h-195v-67h224zM156 20l-65 32l-30 -56l64 -33z" />
    <glyph glyph-name="glyph1548" unicode="&#x6b9;" horiz-adv-x="420" 
d="M276 414l-63 32l-28 -54l61 -34zM420 115v67c0 72 -8 109 -36 152l-32 -80c13 -15 22 -33 28 -53c9 -23 13 -48 13 -75c0 -39 -24 -69 -71 -90c-38 -17 -82 -26 -131 -26c-85 0 -133 34 -133 98c0 36 9 73 45 149l-16 7c-14 -29 -24 -51 -29 -65
c-19 -47 -31 -93 -31 -138c0 -41 15 -71 45 -91c28 -19 68 -28 120 -28c82 0 141 15 178 45c33 27 50 70 50 128zM280 -111l-65 32l-30 -56l64 -33z" />
    <glyph glyph-name="uni06BA" unicode="&#x6ba;" horiz-adv-x="420" arabic-form="isolated" 
d="M420 115v67c0 72 -8 109 -36 152l-32 -80c13 -15 22 -33 28 -53c9 -23 13 -48 13 -75c0 -39 -24 -69 -71 -90c-38 -17 -82 -26 -131 -26c-85 0 -133 34 -133 98c0 36 9 73 45 149l-16 7c-14 -29 -24 -51 -29 -65c-19 -47 -31 -93 -31 -138c0 -41 15 -71 45 -91
c28 -19 68 -28 120 -28c82 0 141 15 178 45c33 27 50 70 50 128z" />
    <glyph glyph-name="uniFB9F" unicode="&#x6ba;" horiz-adv-x="420" arabic-form="final" 
d="M420 115v67c0 72 -8 109 -36 152l-32 -80c13 -15 22 -33 28 -53c9 -23 13 -48 13 -75c0 -39 -24 -69 -71 -90c-38 -17 -82 -26 -131 -26c-85 0 -133 34 -133 98c0 36 9 73 45 149l-16 7c-14 -29 -24 -51 -29 -65c-19 -47 -31 -93 -31 -138c0 -41 15 -71 45 -91
c28 -19 68 -28 120 -28c82 0 141 15 178 45c33 27 50 70 50 128z" />
    <glyph glyph-name="uni06BB" unicode="&#x6bb;" horiz-adv-x="420" arabic-form="isolated" 
d="M420 115v67c0 72 -8 109 -36 152l-32 -80c13 -15 22 -33 28 -53c9 -23 13 -48 13 -75c0 -39 -24 -69 -71 -90c-38 -17 -82 -26 -131 -26c-85 0 -133 34 -133 98c0 36 9 73 45 149l-16 7c-14 -29 -24 -51 -29 -65c-19 -47 -31 -93 -31 -138c0 -41 15 -71 45 -91
c28 -19 68 -28 120 -28c82 0 141 15 178 45c33 27 50 70 50 128zM347 384v46c0 36 -16 54 -49 54c-12 0 -28 -5 -47 -14c-7 -3 -21 -10 -42 -23c2 9 3 16 4 19c2 11 3 20 3 29c0 22 -5 50 -16 83l3 -1c3 -1 5 -1 6 -2c5 17 7 30 7 38c-9 1 -15 2 -20 4c-8 3 -13 8 -16 14
c-5 -11 -8 -25 -11 -42l12 -5c3 -13 6 -23 8 -30c3 -14 5 -28 8 -41c2 -17 3 -31 3 -44c0 -11 -2 -23 -7 -35c-18 -12 -35 -18 -52 -18h-29v-32h235zM318 430c0 -9 -15 -14 -44 -14h-81c7 4 15 9 25 14c25 13 46 20 62 20c25 0 38 -7 38 -20z" />
    <glyph glyph-name="uniFBA1" unicode="&#x6bb;" horiz-adv-x="420" arabic-form="final" 
d="M420 115v67c0 72 -8 109 -36 152l-32 -80c13 -15 22 -33 28 -53c9 -23 13 -48 13 -75c0 -39 -24 -69 -71 -90c-38 -17 -82 -26 -131 -26c-85 0 -133 34 -133 98c0 36 9 73 45 149l-16 7c-14 -29 -24 -51 -29 -65c-19 -47 -31 -93 -31 -138c0 -41 15 -71 45 -91
c28 -19 68 -28 120 -28c82 0 141 15 178 45c33 27 50 70 50 128zM347 384v46c0 36 -16 54 -49 54c-12 0 -28 -5 -47 -14c-7 -3 -21 -10 -42 -23c2 9 3 16 4 19c2 11 3 20 3 29c0 22 -5 50 -16 83l3 -1c3 -1 5 -1 6 -2c5 17 7 30 7 38c-9 1 -15 2 -20 4c-8 3 -13 8 -16 14
c-5 -11 -8 -25 -11 -42l12 -5c3 -13 6 -23 8 -30c3 -14 5 -28 8 -41c2 -17 3 -31 3 -44c0 -11 -2 -23 -7 -35c-18 -12 -35 -18 -52 -18h-29v-32h235zM318 430c0 -9 -15 -14 -44 -14h-81c7 4 15 9 25 14c25 13 46 20 62 20c25 0 38 -7 38 -20z" />
    <glyph glyph-name="glyph1557" unicode="&#x6bc;" horiz-adv-x="196" 
d="M164 476l-64 32l-29 -56l63 -32zM196 115v95c0 46 -4 79 -11 99c-5 13 -17 32 -36 55l-30 -63c19 -21 32 -38 37 -49c7 -16 11 -39 11 -70h-195v-67h224zM148 88c0 31 -22 58 -50 58c-31 0 -54 -37 -54 -76c0 -28 13 -45 41 -45c36 0 63 31 63 63zM124 77
c0 -9 -10 -13 -23 -13s-22 1 -29 4c-9 3 -13 10 -13 20c0 12 10 26 25 26c6 0 14 -4 24 -13c11 -9 16 -17 16 -24z" />
    <glyph glyph-name="glyph1558" unicode="&#x6bc;" horiz-adv-x="196" 
d="M164 476l-64 32l-29 -56l63 -32zM196 115v95c0 46 -4 79 -11 99c-5 13 -17 32 -36 55l-30 -63c19 -21 32 -38 37 -49c7 -16 11 -39 11 -70h-195v-67h224zM148 88c0 31 -22 58 -50 58c-31 0 -54 -37 -54 -76c0 -28 13 -45 41 -45c36 0 63 31 63 63zM124 77
c0 -9 -10 -13 -23 -13s-22 1 -29 4c-9 3 -13 10 -13 20c0 12 10 26 25 26c6 0 14 -4 24 -13c11 -9 16 -17 16 -24z" />
    <glyph glyph-name="glyph1556" unicode="&#x6bc;" horiz-adv-x="420" 
d="M276 414l-63 32l-28 -54l61 -34zM420 115v67c0 72 -8 109 -36 152l-32 -80c13 -15 22 -33 28 -53c9 -23 13 -48 13 -75c0 -39 -24 -69 -71 -90c-38 -17 -82 -26 -131 -26c-85 0 -133 34 -133 98c0 36 9 73 45 149l-16 7c-14 -29 -24 -51 -29 -65
c-19 -47 -31 -93 -31 -138c0 -41 15 -71 45 -91c28 -19 68 -28 120 -28c82 0 141 15 178 45c33 27 50 70 50 128zM264 -84c0 31 -22 58 -50 58c-31 0 -54 -37 -54 -76c0 -28 13 -45 41 -45c36 0 63 31 63 63zM240 -95c0 -9 -10 -13 -23 -13s-22 1 -29 4c-9 3 -13 10 -13 20
c0 12 10 26 25 26c6 0 14 -4 24 -13c11 -9 16 -17 16 -24z" />
    <glyph glyph-name="glyph1560" unicode="&#x6bd;" horiz-adv-x="420" 
d="M420 115v67c0 72 -8 109 -36 152l-32 -80c13 -15 22 -33 28 -53c9 -23 13 -48 13 -75c0 -39 -24 -69 -71 -90c-38 -17 -82 -26 -131 -26c-85 0 -133 34 -133 98c0 36 9 73 45 149l-16 7c-14 -29 -24 -51 -29 -65c-19 -47 -31 -93 -31 -138c0 -41 15 -71 45 -91
c28 -19 68 -28 120 -28c82 0 141 15 178 45c33 27 50 70 50 128zM233 545l-64 34l-28 -58l62 -33zM311 476l-65 33l-29 -56l63 -34zM220 440l-64 33l-28 -57l63 -32z" />
    <glyph glyph-name="glyph1563" unicode="&#x6bf;" horiz-adv-x="424" 
d="M424 115v67h-24c-11 3 -32 18 -64 46c-40 37 -69 62 -88 75c-36 26 -67 39 -93 39c-27 0 -50 -9 -68 -26c-13 -11 -22 -27 -29 -46c13 2 26 3 40 3c21 0 43 -4 64 -12c19 -6 39 -16 62 -31c19 -11 41 -27 67 -48h-319v-67h452zM276 22l-64 33l-29 -57l64 -33zM262 -84
l-62 34l-30 -57l64 -33zM187 -14l-63 34l-31 -57l64 -33zM238 479l-65 32l-30 -56l64 -33z" />
    <glyph glyph-name="glyph1564" unicode="&#x6bf;" horiz-adv-x="424" 
d="M424 115v67h-24c-11 3 -32 18 -64 46c-40 37 -69 62 -88 75c-36 26 -67 39 -93 39c-27 0 -50 -9 -68 -26c-13 -11 -22 -27 -29 -46c13 2 26 3 40 3c21 0 43 -4 64 -12c19 -6 39 -16 62 -31c19 -11 41 -27 67 -48h-319v-67h452zM276 22l-64 33l-29 -57l64 -33zM262 -84
l-62 34l-30 -57l64 -33zM187 -14l-63 34l-31 -57l64 -33zM238 479l-65 32l-30 -56l64 -33z" />
    <glyph glyph-name="glyph1562" unicode="&#x6bf;" horiz-adv-x="420" 
d="M420 115v67h-53c-19 0 -33 2 -41 7c-13 7 -19 22 -19 43v22c15 3 27 5 35 6c14 3 26 5 37 6l16 66c-28 -3 -52 -6 -79 -6c-20 0 -45 2 -75 7c-29 5 -56 8 -81 8c-46 0 -80 -11 -102 -33c-9 -10 -19 -28 -28 -53c29 7 47 10 52 11c17 2 38 3 64 3c19 0 44 -1 64 -4
c-44 -24 -71 -39 -80 -45c-33 -22 -59 -46 -76 -72c-22 -33 -33 -72 -33 -117c0 -51 13 -93 39 -124c23 -28 56 -48 101 -61c37 -11 84 -16 140 -16h23l88 62l-2 5h-71c-85 0 -153 12 -204 36c-59 29 -88 71 -88 127c0 36 15 68 44 96c23 22 55 42 97 60c22 9 55 21 100 35
c-2 -10 -3 -18 -4 -23c-3 -15 -4 -28 -4 -38c0 -55 24 -75 87 -75h53zM281 97l-63 33l-30 -57l64 -33zM268 -8l-63 34l-30 -58l64 -33zM192 60l-63 34l-30 -56l64 -34zM267 479l-65 32l-30 -56l64 -33z" />
    <glyph glyph-name="uni06C0" unicode="&#x6c0;" horiz-adv-x="226" arabic-form="isolated" 
d="M210 229c0 24 -16 47 -47 68c-10 7 -38 22 -85 47l-24 -66l6 -2c-9 -21 -17 -41 -25 -61c-9 -23 -14 -44 -14 -63c0 -16 7 -28 22 -36c12 -8 28 -12 47 -12c49 0 83 14 101 43c13 18 19 45 19 82zM175 199c0 -7 -9 -14 -26 -23c-17 -8 -32 -12 -47 -12
c-24 0 -41 17 -41 42c0 9 4 19 11 30c3 3 10 11 21 24c14 -7 27 -14 39 -21c29 -17 43 -30 43 -40zM166 444c-15 -5 -16 -6 -27 -6c-9 0 -20 3 -32 10s-18 12 -18 16c0 7 14 12 26 12c9 0 18 -4 25 -11c7 9 9 16 9 23c0 12 -7 20 -18 20c-12 0 -26 -8 -41 -24
c-14 -15 -21 -26 -21 -35c0 -5 3 -10 8 -15c4 -4 10 -8 19 -12c-26 -9 -39 -20 -39 -31l73 25c11 3 19 7 24 10c8 5 12 11 12 18z" />
    <glyph glyph-name="uniFBA5" unicode="&#x6c0;" horiz-adv-x="300" arabic-form="final" 
d="M300 115v67h-56c-9 0 -17 14 -24 41c-5 18 -11 45 -18 82l-12 67c-8 32 -13 62 -18 94c-8 -9 -14 -18 -19 -27c-6 -11 -9 -21 -9 -30c0 -4 4 -28 5 -33c-43 -20 -80 -44 -109 -71s-44 -52 -44 -75c0 -12 45 -21 105 -21c27 0 52 17 68 46c7 -38 15 -69 26 -92
c14 -32 30 -48 49 -48h56zM164 289c-15 -16 -30 -24 -45 -24c-25 0 -38 2 -49 7c19 28 42 43 86 60zM166 523c-15 -5 -16 -6 -27 -6c-9 0 -20 3 -32 10s-18 12 -18 16c0 7 14 12 26 12c9 0 18 -4 25 -11c7 9 9 16 9 23c0 12 -7 20 -18 20c-12 0 -26 -8 -41 -24
c-14 -15 -21 -26 -21 -35c0 -5 3 -10 8 -15c4 -4 10 -8 19 -12c-26 -9 -39 -20 -39 -31l73 25c11 3 19 7 24 10c8 5 12 11 12 18z" />
    <glyph glyph-name="uni06C1" unicode="&#x6c1;" horiz-adv-x="310" arabic-form="final" 
d="M310 115v67h-23c-18 0 -39 14 -62 42c-22 25 -40 38 -55 38c-55 0 -108 -65 -160 -194l18 -11c16 33 33 62 52 88c26 37 48 55 66 55c8 0 16 -4 25 -11c1 -1 9 -10 24 -26c33 -37 52 -48 87 -48h28z" />
    <glyph glyph-name="glyph1571" unicode="&#x6c4;" horiz-adv-x="346" 
d="M346 138v44c0 37 -4 65 -12 86c-10 27 -26 40 -49 40c-22 0 -41 -13 -56 -40c-12 -23 -18 -47 -18 -74c0 -30 10 -51 30 -63c17 -11 43 -17 78 -17c-20 -28 -36 -48 -47 -60c-22 -24 -44 -43 -67 -56c-28 -16 -58 -24 -89 -24c-27 0 -61 11 -90 16l-6 -13
c17 -6 33 -12 50 -18c21 -7 39 -12 53 -14c17 -4 35 -6 52 -6c47 0 88 24 123 71c32 43 48 85 48 128zM321 180c-52 0 -73 13 -73 40c0 13 12 25 27 25c10 0 18 -4 25 -13c9 -9 16 -27 21 -52zM253 31c0 31 -22 58 -50 58c-31 0 -54 -37 -54 -76c0 -28 13 -45 41 -45
c36 0 63 31 63 63zM229 20c0 -9 -10 -13 -23 -13s-22 1 -29 4c-9 3 -13 10 -13 20c0 12 10 26 25 26c6 0 14 -4 24 -13c11 -9 16 -17 16 -24z" />
    <glyph glyph-name="uni06C5" unicode="&#x6c5;" horiz-adv-x="346" arabic-form="isolated" 
d="M346 138v44c0 84 -20 126 -61 126c-22 0 -41 -13 -56 -40c-12 -23 -18 -47 -18 -74c0 -53 36 -80 108 -80c-7 -9 -14 -19 -21 -29c-8 -1 -16 -2 -24 -2s-24 3 -47 9c-31 9 -50 13 -55 13c-16 0 -30 -10 -42 -29l4 -5c8 3 15 5 20 5c3 0 20 -4 51 -13c25 -7 43 -10 55 -10
c4 0 8 1 12 2l-4 -5c-21 -22 -42 -39 -63 -52c-27 -16 -57 -24 -89 -24c-12 0 -27 2 -44 6l-46 10l-6 -13c22 -8 39 -14 50 -18c20 -7 38 -11 53 -14c17 -4 35 -6 52 -6c47 0 88 24 123 71c32 43 48 85 48 128zM321 180c-49 0 -73 13 -73 40c0 17 9 25 27 25
c21 0 37 -22 46 -65z" />
    <glyph glyph-name="uniFBE1" unicode="&#x6c5;" horiz-adv-x="346" arabic-form="final" 
d="M346 138v44c0 84 -20 126 -61 126c-22 0 -41 -13 -56 -40c-12 -23 -18 -47 -18 -74c0 -53 36 -80 108 -80c-7 -9 -14 -19 -21 -29c-8 -1 -16 -2 -24 -2s-24 3 -47 9c-31 9 -50 13 -55 13c-16 0 -30 -10 -42 -29l4 -5c8 3 15 5 20 5c3 0 20 -4 51 -13c25 -7 43 -10 55 -10
c4 0 8 1 12 2l-4 -5c-21 -22 -42 -39 -63 -52c-27 -16 -57 -24 -89 -24c-12 0 -27 2 -44 6l-46 10l-6 -13c22 -8 39 -14 50 -18c20 -7 38 -11 53 -14c17 -4 35 -6 52 -6c47 0 88 24 123 71c32 43 48 85 48 128zM321 180c-49 0 -73 13 -73 40c0 17 9 25 27 25
c21 0 37 -22 46 -65z" />
    <glyph glyph-name="uni06C6" unicode="&#x6c6;" horiz-adv-x="346" arabic-form="isolated" 
d="M346 138v44c0 37 -4 65 -12 86c-10 27 -26 40 -49 40c-22 0 -41 -13 -56 -40c-12 -23 -18 -47 -18 -74c0 -30 10 -51 30 -63c17 -11 43 -17 78 -17c-20 -28 -36 -48 -47 -60c-22 -24 -44 -43 -67 -56c-28 -16 -58 -24 -89 -24c-27 0 -61 11 -90 16l-6 -13
c17 -6 33 -12 50 -18c21 -7 39 -12 53 -14c17 -4 35 -6 52 -6c47 0 88 24 123 71c32 43 48 85 48 128zM321 180c-52 0 -73 13 -73 40c0 13 12 25 27 25c10 0 18 -4 25 -13c9 -9 16 -27 21 -52zM348 468h-34l-30 -55l-30 55h-34l53 -90h22z" />
    <glyph glyph-name="uniFBDA" unicode="&#x6c6;" horiz-adv-x="346" arabic-form="final" 
d="M346 138v44c0 37 -4 65 -12 86c-10 27 -26 40 -49 40c-22 0 -41 -13 -56 -40c-12 -23 -18 -47 -18 -74c0 -30 10 -51 30 -63c17 -11 43 -17 78 -17c-20 -28 -36 -48 -47 -60c-22 -24 -44 -43 -67 -56c-28 -16 -58 -24 -89 -24c-27 0 -61 11 -90 16l-6 -13
c17 -6 33 -12 50 -18c21 -7 39 -12 53 -14c17 -4 35 -6 52 -6c47 0 88 24 123 71c32 43 48 85 48 128zM321 180c-52 0 -73 13 -73 40c0 13 12 25 27 25c10 0 18 -4 25 -13c9 -9 16 -27 21 -52zM348 468h-34l-30 -55l-30 55h-34l53 -90h22z" />
    <glyph glyph-name="uni06C7" unicode="&#x6c7;" horiz-adv-x="346" arabic-form="isolated" 
d="M346 138v44c0 37 -4 65 -12 86c-10 27 -26 40 -49 40c-22 0 -41 -13 -56 -40c-12 -23 -18 -47 -18 -74c0 -30 10 -51 30 -63c17 -11 43 -17 78 -17c-20 -28 -36 -48 -47 -60c-22 -24 -44 -43 -67 -56c-28 -16 -58 -24 -89 -24c-27 0 -61 11 -90 16l-6 -13
c17 -6 33 -12 50 -18c21 -7 39 -12 53 -14c17 -4 35 -6 52 -6c47 0 88 24 123 71c32 43 48 85 48 128zM321 180c-52 0 -73 13 -73 40c0 13 12 25 27 25c10 0 18 -4 25 -13c9 -9 16 -27 21 -52zM332 425c0 5 -1 10 -4 13c-5 3 -10 7 -14 11c11 28 13 35 13 44
c0 21 -14 38 -27 38c-24 0 -48 -31 -48 -66c0 -7 3 -15 8 -22c4 -5 10 -10 19 -15c-9 -11 -22 -22 -39 -35c-18 -15 -34 -26 -48 -32h29c13 0 29 9 48 28c5 5 14 14 27 28l32 -19c1 9 4 19 4 27zM303 470c0 -2 -1 -6 -4 -11l-17 14c-7 5 -10 11 -10 17c0 4 4 8 8 8
c11 0 23 -13 23 -28z" />
    <glyph glyph-name="uniFBD8" unicode="&#x6c7;" horiz-adv-x="346" arabic-form="final" 
d="M346 138v44c0 37 -4 65 -12 86c-10 27 -26 40 -49 40c-22 0 -41 -13 -56 -40c-12 -23 -18 -47 -18 -74c0 -30 10 -51 30 -63c17 -11 43 -17 78 -17c-20 -28 -36 -48 -47 -60c-22 -24 -44 -43 -67 -56c-28 -16 -58 -24 -89 -24c-27 0 -61 11 -90 16l-6 -13
c17 -6 33 -12 50 -18c21 -7 39 -12 53 -14c17 -4 35 -6 52 -6c47 0 88 24 123 71c32 43 48 85 48 128zM321 180c-52 0 -73 13 -73 40c0 13 12 25 27 25c10 0 18 -4 25 -13c9 -9 16 -27 21 -52zM332 425c0 5 -1 10 -4 13c-5 3 -10 7 -14 11c11 28 13 35 13 44
c0 21 -14 38 -27 38c-24 0 -48 -31 -48 -66c0 -7 3 -15 8 -22c4 -5 10 -10 19 -15c-9 -11 -22 -22 -39 -35c-18 -15 -34 -26 -48 -32h29c13 0 29 9 48 28c5 5 14 14 27 28l32 -19c1 9 4 19 4 27zM303 470c0 -2 -1 -6 -4 -11l-17 14c-7 5 -10 11 -10 17c0 4 4 8 8 8
c11 0 23 -13 23 -28z" />
    <glyph glyph-name="uni06C8" unicode="&#x6c8;" horiz-adv-x="346" arabic-form="isolated" 
d="M346 138v44c0 37 -4 65 -12 86c-10 27 -26 40 -49 40c-22 0 -41 -13 -56 -40c-12 -23 -18 -47 -18 -74c0 -30 10 -51 30 -63c17 -11 43 -17 78 -17c-20 -28 -36 -48 -47 -60c-22 -24 -44 -43 -67 -56c-28 -16 -58 -24 -89 -24c-27 0 -61 11 -90 16l-6 -13
c17 -6 33 -12 50 -18c21 -7 39 -12 53 -14c17 -4 35 -6 52 -6c47 0 88 24 123 71c32 43 48 85 48 128zM321 180c-52 0 -73 13 -73 40c0 13 12 25 27 25c10 0 18 -4 25 -13c9 -9 16 -27 21 -52zM286 410c0 34 -7 95 -21 182c-7 -13 -14 -24 -19 -34c13 -85 19 -143 19 -176
c0 -4 -1 -11 -2 -21l4 -1c13 19 19 36 19 50z" />
    <glyph glyph-name="uniFBDC" unicode="&#x6c8;" horiz-adv-x="346" arabic-form="final" 
d="M346 138v44c0 37 -4 65 -12 86c-10 27 -26 40 -49 40c-22 0 -41 -13 -56 -40c-12 -23 -18 -47 -18 -74c0 -30 10 -51 30 -63c17 -11 43 -17 78 -17c-20 -28 -36 -48 -47 -60c-22 -24 -44 -43 -67 -56c-28 -16 -58 -24 -89 -24c-27 0 -61 11 -90 16l-6 -13
c17 -6 33 -12 50 -18c21 -7 39 -12 53 -14c17 -4 35 -6 52 -6c47 0 88 24 123 71c32 43 48 85 48 128zM321 180c-52 0 -73 13 -73 40c0 13 12 25 27 25c10 0 18 -4 25 -13c9 -9 16 -27 21 -52zM286 410c0 34 -7 95 -21 182c-7 -13 -14 -24 -19 -34c13 -85 19 -143 19 -176
c0 -4 -1 -11 -2 -21l4 -1c13 19 19 36 19 50z" />
    <glyph glyph-name="uni06C9" unicode="&#x6c9;" horiz-adv-x="346" arabic-form="isolated" 
d="M346 138v44c0 37 -4 65 -12 86c-10 27 -26 40 -49 40c-22 0 -41 -13 -56 -40c-12 -23 -18 -47 -18 -74c0 -30 10 -51 30 -63c17 -11 43 -17 78 -17c-20 -28 -36 -48 -47 -60c-22 -24 -44 -43 -67 -56c-28 -16 -58 -24 -89 -24c-27 0 -61 11 -90 16l-6 -13
c17 -6 33 -12 50 -18c21 -7 39 -12 53 -14c17 -4 35 -6 52 -6c47 0 88 24 123 71c32 43 48 85 48 128zM321 180c-52 0 -73 13 -73 40c0 13 12 25 27 25c10 0 18 -4 25 -13c9 -9 16 -27 21 -52zM348 378l-53 90h-22l-53 -90h34l30 55l30 -55h34z" />
    <glyph glyph-name="uniFBE3" unicode="&#x6c9;" horiz-adv-x="346" arabic-form="final" 
d="M346 138v44c0 37 -4 65 -12 86c-10 27 -26 40 -49 40c-22 0 -41 -13 -56 -40c-12 -23 -18 -47 -18 -74c0 -30 10 -51 30 -63c17 -11 43 -17 78 -17c-20 -28 -36 -48 -47 -60c-22 -24 -44 -43 -67 -56c-28 -16 -58 -24 -89 -24c-27 0 -61 11 -90 16l-6 -13
c17 -6 33 -12 50 -18c21 -7 39 -12 53 -14c17 -4 35 -6 52 -6c47 0 88 24 123 71c32 43 48 85 48 128zM321 180c-52 0 -73 13 -73 40c0 13 12 25 27 25c10 0 18 -4 25 -13c9 -9 16 -27 21 -52zM348 378l-53 90h-22l-53 -90h34l30 55l30 -55h34z" />
    <glyph glyph-name="glyph1583" unicode="&#x6ca;" horiz-adv-x="346" 
d="M346 138v44c0 37 -4 65 -12 86c-10 27 -26 40 -49 40c-22 0 -41 -13 -56 -40c-12 -23 -18 -47 -18 -74c0 -30 10 -51 30 -63c17 -11 43 -17 78 -17c-20 -28 -36 -48 -47 -60c-22 -24 -44 -43 -67 -56c-28 -16 -58 -24 -89 -24c-27 0 -61 11 -90 16l-6 -13
c17 -6 33 -12 50 -18c21 -7 39 -12 53 -14c17 -4 35 -6 52 -6c47 0 88 24 123 71c32 43 48 85 48 128zM321 180c-52 0 -73 13 -73 40c0 13 12 25 27 25c10 0 18 -4 25 -13c9 -9 16 -27 21 -52zM345 466l-63 33l-30 -57l64 -33zM256 430l-64 34l-30 -57l65 -33z" />
    <glyph glyph-name="uni06CB" unicode="&#x6cb;" horiz-adv-x="346" arabic-form="isolated" 
d="M346 138v44c0 37 -4 65 -12 86c-10 27 -26 40 -49 40c-22 0 -41 -13 -56 -40c-12 -23 -18 -47 -18 -74c0 -30 10 -51 30 -63c17 -11 43 -17 78 -17c-20 -28 -36 -48 -47 -60c-22 -24 -44 -43 -67 -56c-28 -16 -58 -24 -89 -24c-27 0 -61 11 -90 16l-6 -13
c17 -6 33 -12 50 -18c21 -7 39 -12 53 -14c17 -4 35 -6 52 -6c47 0 88 24 123 71c32 43 48 85 48 128zM321 180c-52 0 -73 13 -73 40c0 13 12 25 27 25c10 0 18 -4 25 -13c9 -9 16 -27 21 -52zM272 535l-64 34l-28 -58l62 -33zM350 466l-65 33l-29 -56l63 -34zM259 430
l-64 33l-28 -57l63 -32z" />
    <glyph glyph-name="uniFBDF" unicode="&#x6cb;" horiz-adv-x="346" arabic-form="final" 
d="M346 138v44c0 37 -4 65 -12 86c-10 27 -26 40 -49 40c-22 0 -41 -13 -56 -40c-12 -23 -18 -47 -18 -74c0 -30 10 -51 30 -63c17 -11 43 -17 78 -17c-20 -28 -36 -48 -47 -60c-22 -24 -44 -43 -67 -56c-28 -16 -58 -24 -89 -24c-27 0 -61 11 -90 16l-6 -13
c17 -6 33 -12 50 -18c21 -7 39 -12 53 -14c17 -4 35 -6 52 -6c47 0 88 24 123 71c32 43 48 85 48 128zM321 180c-52 0 -73 13 -73 40c0 13 12 25 27 25c10 0 18 -4 25 -13c9 -9 16 -27 21 -52zM272 535l-64 34l-28 -58l62 -33zM350 466l-65 33l-29 -56l63 -34zM259 430
l-64 33l-28 -57l63 -32z" />
    <glyph glyph-name="glyph1587" unicode="&#x6cd;" horiz-adv-x="471" 
d="M471 115v67h-68c-23 0 -44 -3 -63 -9c-61 -18 -92 -57 -92 -116c0 -17 15 -26 46 -26c6 0 16 0 30 -1c17 -1 28 -2 32 -2c11 -1 18 -3 20 -4c4 -2 6 -5 6 -10c0 -12 -17 -22 -52 -29c-29 -5 -62 -8 -99 -8c-45 0 -83 5 -114 16c-44 16 -66 43 -66 81c0 19 7 42 22 70
c13 23 22 39 29 50l-16 8l-114 -59v-24l92 48c-12 -19 -20 -34 -25 -43c-17 -34 -25 -66 -25 -96c0 -43 22 -74 66 -94c32 -15 72 -22 120 -22c67 0 116 8 149 23c48 22 72 62 72 120c0 9 -4 16 -11 20c-5 2 -13 4 -26 6c-29 3 -51 5 -66 5c-24 0 -36 4 -36 13
c0 11 40 16 121 16h68z" />
    <glyph glyph-name="glyph1590" unicode="&#x6ce;" horiz-adv-x="196" 
d="M196 115v95c0 46 -4 79 -11 99c-5 13 -17 32 -36 55l-30 -63c19 -21 32 -38 37 -49c7 -16 11 -39 11 -70h-195v-67h224zM194 36l-65 33l-29 -56l63 -33zM103 1l-64 33l-28 -56l63 -33zM196 496h-34l-30 -55l-30 55h-34l53 -90h22z" />
    <glyph glyph-name="glyph1591" unicode="&#x6ce;" horiz-adv-x="196" 
d="M196 115v95c0 46 -4 79 -11 99c-5 13 -17 32 -36 55l-30 -63c19 -21 32 -38 37 -49c7 -16 11 -39 11 -70h-195v-67h224zM194 36l-65 33l-29 -56l63 -33zM103 1l-64 33l-28 -56l63 -33zM196 496h-34l-30 -55l-30 55h-34l53 -90h22z" />
    <glyph glyph-name="glyph1589" unicode="&#x6ce;" horiz-adv-x="471" 
d="M471 115v67h-68c-22 0 -43 -3 -63 -9c-27 -8 -48 -20 -63 -37c-19 -20 -29 -46 -29 -79c0 -17 13 -26 46 -26c9 0 49 -3 62 -3c20 0 26 -6 26 -14c0 -12 -17 -22 -52 -29c-29 -5 -62 -8 -99 -8c-55 0 -99 8 -131 23c-33 17 -49 42 -49 74c0 17 7 41 22 70
c9 17 19 33 29 50l-16 8c-25 -40 -41 -66 -47 -78c-17 -34 -25 -66 -25 -96c0 -38 18 -67 53 -88c33 -19 77 -28 133 -28c81 0 138 12 173 36c32 22 48 58 48 107c0 9 -4 16 -11 20c-4 2 -13 4 -26 6c-21 2 -34 3 -41 4c-6 1 -14 1 -25 1c-24 0 -36 4 -36 13
c0 12 40 16 121 16h68zM270 339h-34l-30 -55l-30 55h-34l53 -90h22z" />
    <glyph glyph-name="glyph1593" unicode="&#x6cf;" horiz-adv-x="346" 
d="M346 138v44c0 37 -4 65 -12 86c-10 27 -26 40 -49 40c-22 0 -41 -13 -56 -40c-12 -23 -18 -47 -18 -74c0 -30 10 -51 30 -63c17 -11 43 -17 78 -17c-20 -28 -36 -48 -47 -60c-22 -24 -44 -43 -67 -56c-28 -16 -58 -24 -89 -24c-27 0 -61 11 -90 16l-6 -13
c17 -6 33 -12 50 -18c21 -7 39 -12 53 -14c17 -4 35 -6 52 -6c47 0 88 24 123 71c32 43 48 85 48 128zM321 180c-52 0 -73 13 -73 40c0 13 12 25 27 25c10 0 18 -4 25 -13c9 -9 16 -27 21 -52zM288 436l-65 32l-30 -56l64 -33z" />
    <glyph glyph-name="uni06D0" unicode="&#x6d0;" horiz-adv-x="510" arabic-form="isolated" 
d="M484 313c0 35 -20 57 -55 57c-27 0 -53 -13 -80 -40c-22 -22 -41 -49 -57 -82c-14 -29 -21 -53 -21 -70c0 -27 20 -44 43 -44h91c15 0 21 -3 21 -12c0 -7 -14 -18 -43 -33s-61 -27 -96 -38c-41 -13 -77 -19 -108 -19c-83 0 -127 32 -127 95c0 39 17 92 50 149l-17 8
l-24 -48c-12 -24 -21 -48 -28 -71c-9 -29 -13 -57 -13 -84c0 -40 13 -70 40 -89c24 -18 59 -27 105 -27c90 0 161 16 213 47c57 34 86 84 86 149c0 17 -6 27 -19 29s-24 3 -33 3c-9 1 -22 1 -41 1h-31c-28 0 -38 6 -38 15c0 14 12 33 35 58c25 27 48 40 71 40
c27 0 54 -15 71 -39c1 8 5 28 5 45zM236 -75l-35 10l-15 -28l37 -10zM246 -117l-36 9l-14 -27l37 -10z" />
    <glyph glyph-name="uniFBE5" unicode="&#x6d0;" horiz-adv-x="471" arabic-form="final" 
d="M471 115v67h-68c-22 0 -43 -3 -63 -9c-27 -8 -48 -20 -63 -37c-19 -20 -29 -46 -29 -79c0 -17 13 -26 46 -26c9 0 49 -3 62 -3c20 0 26 -6 26 -14c0 -12 -17 -22 -52 -29c-29 -5 -62 -8 -99 -8c-55 0 -99 8 -131 23c-33 17 -49 42 -49 74c0 17 7 41 22 70
c9 17 19 33 29 50l-16 8c-25 -40 -41 -66 -47 -78c-17 -34 -25 -66 -25 -96c0 -38 18 -67 53 -88c33 -19 77 -28 133 -28c81 0 138 12 173 36c32 22 48 58 48 107c0 9 -4 16 -11 20c-4 2 -13 4 -26 6c-21 2 -34 3 -41 4c-6 1 -14 1 -25 1c-24 0 -36 4 -36 13
c0 12 40 16 121 16h68zM244 -100l-35 10l-15 -28l37 -10zM254 -142l-36 9l-14 -27l37 -10z" />
    <glyph glyph-name="uniFBE6" unicode="&#x6d0;" horiz-adv-x="196" arabic-form="initial" 
d="M196 115v95c0 46 -4 79 -11 99c-5 13 -17 32 -36 55l-30 -63c19 -21 32 -38 37 -49c7 -16 11 -39 11 -70h-195v-67h224zM135 22l-64 33l-29 -57l64 -33zM153 -76l-62 34l-31 -58l64 -32z" />
    <glyph glyph-name="uniFBE7" unicode="&#x6d0;" horiz-adv-x="196" arabic-form="medial" 
d="M196 115v95c0 46 -4 79 -11 99c-5 13 -17 32 -36 55l-30 -63c19 -21 32 -38 37 -49c7 -16 11 -39 11 -70h-195v-67h224zM135 22l-64 33l-29 -57l64 -33zM153 -76l-62 34l-31 -58l64 -32z" />
    <glyph glyph-name="glyph1599" unicode="&#x6d1;" horiz-adv-x="471" 
d="M471 115v67h-68c-22 0 -43 -3 -63 -9c-27 -8 -48 -20 -63 -37c-19 -20 -29 -46 -29 -79c0 -17 13 -26 46 -26c9 0 49 -3 62 -3c20 0 26 -6 26 -14c0 -12 -17 -22 -52 -29c-29 -5 -62 -8 -99 -8c-55 0 -99 8 -131 23c-33 17 -49 42 -49 74c0 17 7 41 22 70
c9 17 19 33 29 50l-16 8c-25 -40 -41 -66 -47 -78c-17 -34 -25 -66 -25 -96c0 -38 18 -67 53 -88c33 -19 77 -28 133 -28c81 0 138 12 173 36c32 22 48 58 48 107c0 9 -4 16 -11 20c-4 2 -13 4 -26 6c-21 2 -34 3 -41 4c-6 1 -14 1 -25 1c-24 0 -36 4 -36 13
c0 12 40 16 121 16h68zM283 -103l-40 11l-13 -27l40 -11zM270 -142l-40 11l-13 -27l40 -11zM221 -123l-40 12l-13 -28l40 -11z" />
    <glyph glyph-name="uni06D2" unicode="&#x6d2;" horiz-adv-x="650" arabic-form="isolated" 
d="M650 44v4h-553c-25 0 -37 4 -37 12c0 6 16 17 47 32c39 20 72 37 98 50c8 4 17 13 26 27c13 20 20 31 21 32c17 20 32 30 47 30c16 0 32 -16 48 -49c3 12 4 28 4 48c0 19 -3 34 -9 47c-7 14 -15 21 -26 21c-9 0 -17 -4 -25 -11c-1 -1 -10 -12 -29 -32
c-26 -29 -50 -49 -71 -62c-23 -13 -46 -25 -69 -37c-35 -19 -55 -33 -61 -40c-9 -11 -17 -28 -24 -52c-7 -23 -10 -43 -9 -60c0 -8 4 -14 11 -18s25 -6 55 -6h457z" />
    <glyph glyph-name="uniFBAF" unicode="&#x6d2;" horiz-adv-x="650" arabic-form="final" 
d="M551 -166l99 65v3h-553c-25 0 -37 4 -37 11c0 12 15 32 46 59c122 95 272 143 449 143h95v67h-93c-175 0 -320 -44 -433 -132c-29 -26 -50 -48 -63 -67c-7 -12 -15 -33 -22 -63c-8 -25 -12 -46 -11 -62c0 -9 4 -15 11 -19c7 -3 25 -5 55 -5h457z" />
    <glyph glyph-name="uni06D3" unicode="&#x6d3;" horiz-adv-x="650" arabic-form="isolated" 
d="M650 44v4h-553c-25 0 -37 4 -37 12c0 6 16 17 47 32c39 20 72 37 98 50c8 4 17 13 26 27c13 20 20 31 21 32c17 20 32 30 47 30c16 0 32 -16 48 -49c3 12 4 28 4 48c0 19 -3 34 -9 47c-7 14 -15 21 -26 21c-9 0 -17 -4 -25 -11c-1 -1 -10 -12 -29 -32
c-26 -29 -50 -49 -71 -62c-23 -13 -46 -25 -69 -37c-35 -19 -55 -33 -61 -40c-9 -11 -17 -28 -24 -52c-7 -23 -10 -43 -9 -60c0 -8 4 -14 11 -18s25 -6 55 -6h457zM260 327c-15 -5 -16 -6 -27 -6c-9 0 -20 3 -32 10s-18 12 -18 16c0 7 14 12 26 12c9 0 18 -4 25 -11
c7 9 9 16 9 23c0 12 -7 20 -18 20c-12 0 -26 -8 -41 -24c-14 -15 -21 -26 -21 -35c0 -5 3 -10 8 -15c4 -4 10 -8 19 -12c-26 -9 -39 -20 -39 -31l73 25c11 3 19 7 24 10c8 5 12 11 12 18z" />
    </font>
</defs>
</svg>
